<svg width="129" height="113" viewBox="0 0 129 113" fill="none" xmlns="http://www.w3.org/2000/svg">
<g filter="url(#filter0_d_3210_1009)">
<rect x="16" y="15" width="74" height="74" rx="24" fill="white"/>
</g>
<rect x="37.8311" y="57.1964" width="6.21126" height="12.4225" rx="1.77465" fill="#364050"/>
<rect x="45.8174" y="52.7598" width="6.21126" height="16.8591" rx="1.77465" fill="#364050"/>
<rect x="53.8027" y="47.4359" width="6.21126" height="22.1831" rx="1.77465" fill="#364050"/>
<rect x="61.7891" y="42.9992" width="6.21126" height="26.6197" rx="1.77465" fill="#364050"/>
<path d="M36.5 48.9851C45.8169 46.7668 55.1337 41.8866 61.7887 34.788" stroke="#364050" stroke-width="1.74998" stroke-miterlimit="10" stroke-linecap="round"/>
<path d="M65.4298 29.6057L59.4714 31.4726C58.8691 31.6609 58.6961 32.4318 59.1611 32.8586L63.7565 37.0855C64.2214 37.5133 64.9749 37.277 65.1122 36.6609L66.4752 30.568C66.6136 29.9511 66.033 29.4175 65.4298 29.6057Z" fill="#364050"/>
<rect x="70" width="59" height="33" rx="16.5" fill="#1AC44A"/>
<path d="M85.264 21V18.588H82.852V17.388H85.264V15H86.464V17.388H88.852V18.588H86.464V21H85.264ZM90.2992 21V19.98L92.7472 17.364C93.2272 16.852 93.6032 16.44 93.8752 16.128C94.1552 15.808 94.3552 15.528 94.4752 15.288C94.6032 15.048 94.6672 14.796 94.6672 14.532C94.6672 14.1 94.5352 13.768 94.2712 13.536C94.0072 13.296 93.6672 13.176 93.2512 13.176C92.8192 13.176 92.4472 13.3 92.1352 13.548C91.8232 13.788 91.6072 14.14 91.4872 14.604L90.2392 14.244C90.3352 13.772 90.5272 13.364 90.8152 13.02C91.1032 12.668 91.4552 12.396 91.8712 12.204C92.2952 12.012 92.7512 11.916 93.2392 11.916C93.8072 11.916 94.3032 12.024 94.7272 12.24C95.1512 12.448 95.4792 12.74 95.7112 13.116C95.9512 13.492 96.0712 13.928 96.0712 14.424C96.0712 14.752 96.0072 15.072 95.8792 15.384C95.7592 15.688 95.5712 16.012 95.3152 16.356C95.0592 16.692 94.7312 17.072 94.3312 17.496L92.1712 19.8H96.2392V21H90.2992ZM100.459 21.144C99.9871 21.144 99.5431 21.06 99.1271 20.892C98.7111 20.716 98.3511 20.472 98.0471 20.16C97.7431 19.848 97.5271 19.472 97.3991 19.032L98.5871 18.576C98.7391 19 98.9871 19.324 99.3311 19.548C99.6751 19.772 100.051 19.884 100.459 19.884C100.795 19.884 101.091 19.808 101.347 19.656C101.603 19.504 101.803 19.296 101.947 19.032C102.099 18.768 102.175 18.468 102.175 18.132C102.175 17.788 102.099 17.488 101.947 17.232C101.803 16.968 101.603 16.764 101.347 16.62C101.091 16.468 100.795 16.392 100.459 16.392C100.123 16.392 99.8151 16.468 99.5351 16.62C99.2551 16.772 99.0511 16.976 98.9231 17.232L97.7831 16.98L98.4791 12.06H103.243V13.26H99.0311L99.5711 12.672L99.0551 16.44L98.6111 16.14C98.8511 15.804 99.1431 15.56 99.4871 15.408C99.8311 15.256 100.223 15.18 100.663 15.18C101.247 15.18 101.755 15.312 102.187 15.576C102.627 15.832 102.967 16.184 103.207 16.632C103.455 17.072 103.579 17.572 103.579 18.132C103.579 18.7 103.443 19.212 103.171 19.668C102.899 20.124 102.527 20.484 102.055 20.748C101.591 21.012 101.059 21.144 100.459 21.144ZM106.03 21L113.302 12.06H114.814L107.542 21H106.03ZM107.398 16.596C106.958 16.596 106.562 16.492 106.21 16.284C105.858 16.068 105.574 15.784 105.358 15.432C105.15 15.08 105.046 14.688 105.046 14.256C105.046 13.824 105.15 13.432 105.358 13.08C105.574 12.72 105.858 12.436 106.21 12.228C106.562 12.02 106.958 11.916 107.398 11.916C107.838 11.916 108.234 12.02 108.586 12.228C108.938 12.436 109.218 12.72 109.426 13.08C109.634 13.432 109.738 13.824 109.738 14.256C109.738 14.688 109.634 15.08 109.426 15.432C109.218 15.784 108.938 16.068 108.586 16.284C108.234 16.492 107.838 16.596 107.398 16.596ZM107.398 15.504C107.646 15.504 107.858 15.444 108.034 15.324C108.218 15.204 108.358 15.048 108.454 14.856C108.55 14.664 108.598 14.464 108.598 14.256C108.598 14.04 108.55 13.84 108.454 13.656C108.358 13.464 108.218 13.308 108.034 13.188C107.858 13.068 107.646 13.008 107.398 13.008C107.158 13.008 106.946 13.068 106.762 13.188C106.578 13.308 106.434 13.464 106.33 13.656C106.234 13.84 106.186 14.04 106.186 14.256C106.186 14.464 106.234 14.664 106.33 14.856C106.434 15.048 106.578 15.204 106.762 15.324C106.946 15.444 107.158 15.504 107.398 15.504ZM113.386 21.144C112.946 21.144 112.546 21.04 112.186 20.832C111.834 20.616 111.554 20.332 111.346 19.98C111.138 19.628 111.034 19.236 111.034 18.804C111.034 18.372 111.138 17.98 111.346 17.628C111.554 17.268 111.834 16.984 112.186 16.776C112.546 16.568 112.946 16.464 113.386 16.464C113.826 16.464 114.222 16.568 114.574 16.776C114.926 16.984 115.206 17.268 115.414 17.628C115.622 17.98 115.726 18.372 115.726 18.804C115.726 19.236 115.622 19.628 115.414 19.98C115.206 20.332 114.926 20.616 114.574 20.832C114.222 21.04 113.826 21.144 113.386 21.144ZM113.386 20.052C113.634 20.052 113.846 19.992 114.022 19.872C114.198 19.752 114.334 19.596 114.43 19.404C114.534 19.212 114.586 19.012 114.586 18.804C114.586 18.588 114.534 18.388 114.43 18.204C114.334 18.012 114.198 17.856 114.022 17.736C113.846 17.616 113.634 17.556 113.386 17.556C113.146 17.556 112.934 17.616 112.75 17.736C112.566 17.856 112.422 18.012 112.318 18.204C112.222 18.388 112.174 18.588 112.174 18.804C112.174 19.012 112.222 19.212 112.318 19.404C112.422 19.596 112.566 19.752 112.75 19.872C112.934 19.992 113.146 20.052 113.386 20.052Z" fill="white"/>
<defs>
<filter id="filter0_d_3210_1009" x="0" y="7" width="106" height="106" filterUnits="userSpaceOnUse" color-interpolation-filters="sRGB">
<feFlood flood-opacity="0" result="BackgroundImageFix"/>
<feColorMatrix in="SourceAlpha" type="matrix" values="0 0 0 0 0 0 0 0 0 0 0 0 0 0 0 0 0 0 127 0" result="hardAlpha"/>
<feOffset dy="8"/>
<feGaussianBlur stdDeviation="8"/>
<feComposite in2="hardAlpha" operator="out"/>
<feColorMatrix type="matrix" values="0 0 0 0 0.146667 0 0 0 0 0.386222 0 0 0 0 0.8 0 0 0 0.15 0"/>
<feBlend mode="normal" in2="BackgroundImageFix" result="effect1_dropShadow_3210_1009"/>
<feBlend mode="normal" in="SourceGraphic" in2="effect1_dropShadow_3210_1009" result="shape"/>
</filter>
</defs>
</svg>
