<svg width="301" height="225" viewBox="0 0 301 225" fill="none" xmlns="http://www.w3.org/2000/svg">
<g clip-path="url(#clip0_647_109)">
<mask id="mask0_647_109" style="mask-type:luminance" maskUnits="userSpaceOnUse" x="0" y="-8" width="301" height="229">
<path d="M300.99 -7.5H0.990051V220.5H300.99V-7.5Z" fill="white"/>
</mask>
<g mask="url(#mask0_647_109)">
<path d="M69.51 116.7V117.66L69.63 118.5L69.87 119.34L69.99 120.3V121.14V122.1L70.11 122.94L70.35 123.78L70.59 124.74L70.71 125.58L70.95 126.42L71.07 127.38L71.31 128.22L71.55 129.06L71.79 129.9L71.91 130.86L72.27 131.7L72.51 132.54L72.63 133.38L72.87 134.34L73.11 135.18L73.47 136.02L73.83 136.86L73.95 137.7L74.31 138.54L74.67 139.38L75.03 140.22L75.39 140.94L75.63 141.78L75.99 142.62L76.35 143.46L76.71 144.3L77.19 145.02L77.43 144.18L77.55 143.34L78.03 142.5L78.15 141.66L78.39 140.82L78.51 139.86L78.75 139.02L78.99 138.18L79.11 137.22L79.23 136.38L79.59 135.54L79.47 134.58L79.71 133.74V132.9L79.83 131.94L79.95 131.1L80.19 130.26L80.31 129.3V128.46L80.43 127.5L80.55 126.66L80.43 125.82L80.55 124.86L80.67 124.02L80.55 123.06L80.67 122.22V121.26L80.55 120.42L80.79 119.46L80.55 118.62V117.66V116.82L80.43 115.86V115.02V114.06L80.31 113.22L80.07 112.38V111.42L79.95 110.58L79.71 109.62L79.59 108.78L79.35 107.94L79.23 107.1L79.11 106.14L78.87 105.3L78.75 104.34L78.51 103.5L78.15 102.66L78.03 101.82L77.79 100.98L77.43 100.14V99.18L76.95 98.34L76.83 97.5L76.47 96.66L76.11 95.82L75.99 94.98L75.63 94.14L75.27 93.3L75.03 92.46L74.55 91.62L74.43 90.78L73.95 89.94L73.59 89.22L73.11 88.38L72.87 87.66L72.51 88.38L72.39 89.34L72.03 90.18L71.79 91.02L71.67 91.86L71.43 92.7L71.31 93.66L70.95 94.5L70.83 95.34V96.18L70.59 97.14L70.47 97.98L70.35 98.82L70.11 99.78V100.62L69.99 101.58L69.87 102.42L69.75 103.26L69.51 104.22V105.06L69.63 106.02L69.51 106.86L69.39 107.7V108.66V109.5L69.27 110.46V111.3V112.26L69.39 113.1L69.27 114.06V114.9V115.86L69.51 116.7Z" fill="#00643C"/>
<path d="M86.0701 126.66L85.9501 127.5L85.7101 128.46L85.5901 129.3L85.3501 130.14L85.2301 131.1L85.1101 131.94V132.9L84.9901 133.74L84.6301 134.7V135.54V136.5V137.34V138.3L84.5101 139.26L84.6301 140.1V141.06L84.3901 141.9L84.5101 142.86L84.6301 143.7V144.66V145.5L84.8701 146.34L84.7501 147.3L84.9901 148.14L85.1101 149.1L85.5901 148.26L86.0701 147.54L86.5501 146.82L87.0301 145.98L87.5101 145.26L87.8701 144.42L88.4701 143.82L88.9501 142.98L89.1901 142.14L89.6701 141.3L90.0301 140.46L90.3901 139.62L90.7501 138.78L91.1101 137.94L91.5901 137.22L91.7101 136.26L92.1901 135.54L92.4301 134.7L92.9101 133.86V132.9L93.2701 132.06L93.5101 131.22L93.7501 130.38L94.1101 129.54L94.3501 128.58L94.5901 127.74L94.7101 126.78V125.94L95.0701 125.1L95.1901 124.14V123.3L95.4301 122.34L95.6701 121.5L95.5501 120.54L95.6701 119.7V118.74L95.7901 117.78V116.94V115.98L96.0301 115.14L95.9101 114.18L95.7901 113.34L95.9101 112.38L95.7901 111.54V110.58L95.6701 109.74V108.78V107.94L95.5501 106.98L95.3101 106.02L94.8301 106.86L94.2301 107.58L93.9901 108.42L93.2701 109.14L92.9101 109.98L92.4301 110.7L91.9501 111.42L91.5901 112.26L91.1101 113.1L90.8701 113.94L90.3901 114.78L89.9101 115.5L89.5501 116.34L89.3101 117.18L88.8301 118.02L88.7101 118.86L88.2301 119.7L87.9901 120.54L87.5101 121.38L87.2701 122.22L87.0301 123.06L86.7901 124.02L86.5501 124.86L86.4301 125.7L86.0701 126.66Z" fill="#00643C"/>
<path d="M79.3501 196.26L79.1101 194.22L79.2301 193.26L79.1101 191.58L78.9901 190.62V189.78L78.8701 187.98L78.6301 187.14V185.22L78.5101 184.26L78.2701 182.46L78.3901 181.5L78.2701 180.78L78.1501 179.82L78.2701 178.86L78.1501 178.02L77.7901 176.1L77.9101 175.14L77.1901 166.14V165.3L76.9501 164.34V163.38L76.8301 162.54V161.58L76.7101 160.62L76.8301 159.66V158.94L76.5901 157.98V156.9V156.06L76.4701 154.38L76.2301 153.42V152.46V151.62L75.8701 148.86L75.9901 147.06L75.5101 143.34L75.6301 142.38L75.5101 141.66L75.3901 140.58V138.78V137.94L75.0301 136.14L75.1501 135.18L75.0301 134.46L74.9101 132.42V131.7L74.6701 130.74L74.5501 129.78L74.4301 126.18L74.3101 125.34L74.1901 124.14L74.3101 123.42L74.0701 122.46L74.1901 121.62L73.9501 120.66L74.0701 119.58L73.8301 117.06L73.5901 116.1L73.7101 115.14L73.5901 114.18V113.34L73.3501 112.38V111.42V110.58L73.2301 109.62V108.66L73.1101 107.94L75.5101 107.58L75.7501 108.66L75.6301 109.5L75.8701 110.34L75.7501 111.42V112.26L75.8701 113.22L75.9901 114.06L76.1101 115.02V115.98L76.2301 116.82L76.4701 119.7L76.3501 120.54L76.5901 121.38L76.4701 122.34L76.7101 123.18L76.5901 124.26L76.7101 124.98L76.8301 126.06L77.0701 130.38L77.3101 131.34V132.42L77.4301 134.22L77.5501 135.06L77.4301 136.02L77.7901 137.82L77.6701 138.9L77.7901 140.46L77.9101 141.3L78.0301 142.38L77.9101 143.34L78.3901 146.94L78.2701 148.74L78.6301 151.5V152.46V153.18L78.8701 154.14L78.9901 156.06V157.02V157.74L79.2301 158.82V159.78L79.1101 160.5L79.3501 161.46L79.2301 162.42L79.3501 163.38V164.1L79.5901 165.18V166.86L80.3101 175.14L80.1901 175.98L80.5501 177.78L80.6701 178.74L80.5501 179.7L80.6701 180.54L80.7901 181.5L80.6701 182.46L80.9101 184.14L81.0301 184.98V186.78L81.2701 187.86L81.3901 189.66V190.5L81.5101 192.3L81.6301 193.38L81.5101 194.22L81.6301 195.9L79.3501 196.26Z" fill="#201F1A"/>
<path d="M70.5901 211.5L68.3101 210.9L68.9101 208.38L69.0301 207.3L69.7501 204.42L70.1101 203.82V202.86L70.4701 202.02L70.7101 200.94L70.9501 200.22V199.38L71.4301 198.42L72.2701 194.7L72.5101 193.98L72.6301 193.26L72.8701 191.94L73.2301 191.34L73.3501 190.5L73.5901 189.42L73.9501 188.7L74.0701 187.98L74.1901 186.9L74.5501 185.94L74.9101 184.38L75.0301 183.3L75.6301 181.62L75.8701 180.66L76.1101 179.82L76.2301 179.1L76.7101 177.18L76.9501 176.22L77.5501 174.54L77.6701 173.82L77.7901 172.86L78.1501 172.02L78.2701 171.06L78.7501 169.14L78.9901 168.42L79.4701 166.5L79.8301 165.78L79.9501 164.94L80.6701 162.3L80.7901 161.22L81.0301 160.5L81.1501 159.66L81.5101 158.58L81.7501 157.86L81.8701 157.02L82.1101 156.06L82.2301 155.34L82.5901 154.14L82.9501 153.42L83.1901 151.62L83.6701 150.78L84.0301 149.1L84.2701 148.26L84.3901 147.18L84.7501 146.34L85.5901 142.74L85.9501 141.9L86.0701 141.3L86.1901 140.22L86.4301 139.5L86.6701 138.42L86.9101 137.58L87.2701 135.78L87.6301 134.82L87.8701 134.1L88.1101 133.14L88.3501 132.42L88.4701 131.34L88.7101 130.62L88.9501 129.66L89.4301 128.1V127.02L89.9101 126.18V125.34L90.3901 124.26L92.5501 125.22L92.3101 125.82V126.78L91.8301 127.62V128.46L91.2301 130.26L90.9901 131.22L90.7501 132.06L90.6301 133.02L90.3901 133.86L90.1501 134.94L89.7901 135.66L89.5501 136.5L89.1901 138.18L88.9501 139.02L88.8301 140.1L88.5901 140.82L88.4701 141.78L88.1101 142.86L87.7501 143.58L87.0301 147.06L86.6701 147.9L86.5501 148.86L86.0701 150.54L85.8301 151.74L85.4701 152.34L85.2301 154.14L84.8701 155.1L84.6301 155.82L84.5101 156.66L84.2701 157.5L84.0301 158.7L83.6701 159.42L83.5501 160.14L83.3101 161.34L83.0701 161.94L82.9501 163.02L82.7101 163.86L82.2301 165.42L82.1101 166.62L81.7501 167.34L81.2701 169.14L81.0301 169.98L80.5501 171.54V172.5L80.1901 173.34L80.0701 174.3L79.8301 175.26L79.2301 176.94L79.1101 177.78L78.3901 180.66L78.1501 181.38L77.9101 182.34L77.4301 184.02L77.0701 185.7L76.8301 186.9L76.5901 187.5L76.4701 188.46L76.2301 189.54L75.8701 190.26L75.7501 190.98L75.6301 192.06L75.1501 192.9L75.0301 193.62L74.7901 194.82L74.5501 195.54L73.5901 199.14L73.3501 199.86V200.82L72.9901 201.66L72.7501 202.74L72.5101 203.46L72.3901 204.42L71.9101 205.38L71.3101 207.78V208.86L70.5901 211.5Z" fill="#201F1A"/>
<path d="M100.83 218.46H99.87H99.03L98.07 218.34L97.23 218.46L96.27 218.58H95.43L94.47 218.34H93.63L92.67 218.46H91.83H90.87H90.03L89.07 218.34L88.23 218.46L87.27 218.58L86.43 218.34L85.47 218.58L84.63 218.46H83.67H82.83L81.87 218.34H81.03H80.07H79.23H78.27L77.43 218.46L76.47 218.34L75.63 218.46L74.67 218.34L73.83 218.46L72.87 218.34H72.03L71.07 218.46L70.23 218.34L69.27 218.46L68.43 218.58L67.47 218.34H66.63L65.67 218.46H64.83L63.87 218.34H63.03H62.07H61.23L60.15 218.46L60.39 217.5L60.63 216.66L60.75 215.7V214.86L60.99 214.02V213.06L61.23 212.22L61.47 211.26L61.59 210.42L61.71 209.46V208.62L61.83 207.66L61.95 206.82L62.19 205.86L62.31 205.02L62.43 204.06L62.55 203.22L62.67 202.26L62.79 201.42L62.91 200.46L63.03 199.62L63.27 198.78L63.39 197.82L63.63 196.98L63.75 196.02V195.18V194.22L63.99 193.26L64.23 192.42V191.46L64.59 190.62L64.71 189.66L65.07 188.82L65.43 188.1L65.67 187.14L66.03 186.3L66.51 185.58L66.87 184.74L67.35 183.9L67.95 183.18L68.43 182.46L69.03 181.74L69.63 181.02L69.39 180.9L70.11 180.3L70.71 179.7L71.19 178.86L71.79 178.14L72.15 177.42L72.63 176.58L72.87 175.74L73.35 175.02L73.71 174.18L73.95 173.34L74.19 172.5L74.55 171.66L74.79 170.82L74.91 169.86V169.02L75.15 168.06L75.03 167.22L75.15 166.38V165.42V164.46V163.5V162.66V161.7L75.27 160.74L75.15 159.78H75.99L76.95 159.9L77.79 159.78L78.75 159.9L79.59 159.66L80.55 159.78H81.39L82.35 159.66L83.19 159.78H84.15L84.99 159.9L85.95 159.78V160.74L86.07 161.7L85.83 162.54L86.07 163.5L85.95 164.46L85.83 165.42L85.95 166.38L85.83 167.22L86.07 168.18V169.02L86.31 169.86L86.43 170.82L86.55 171.66L86.79 172.5L87.15 173.34L87.51 174.18L87.75 175.02L88.23 175.74L88.59 176.58L88.95 177.3L89.43 178.14L89.91 178.86L90.39 179.58L90.87 180.3L91.47 181.02L91.59 180.9L92.19 181.62L92.67 182.46L93.27 183.06L93.75 183.9L94.23 184.62L94.59 185.58L94.95 186.3L95.43 187.14L95.67 187.98L95.91 188.94L96.15 189.78L96.51 190.62L96.75 191.46L96.87 192.42L97.11 193.26V194.22L97.35 195.06L97.47 196.02V196.86L97.71 197.82L97.83 198.66L97.95 199.62V200.46L98.31 201.3V202.26L98.43 203.22L98.67 204.06V204.9L99.03 205.86V206.7V207.66L99.27 208.5L99.39 209.46L99.63 210.3L99.75 211.14V212.1L99.87 213.06L99.99 213.9L100.23 214.74L100.35 215.7L100.59 216.54L100.71 217.5L100.83 218.46Z" fill="#E6E6E3"/>
<path d="M198.03 64.5L198.75 64.02L199.35 63.3L199.95 62.58L200.79 62.1L201.51 61.62H202.47L203.31 61.86L204.03 62.58L204.15 63.54V64.38V65.34L204.03 66.18V67.02L203.67 67.98L203.43 68.82L203.19 69.66L202.71 70.5L202.47 71.34L201.99 72.06L201.63 72.9L201.03 73.62L200.55 74.34L199.95 74.94L199.35 75.66L198.63 76.38L198.03 76.98" fill="#765749"/>
<path d="M198.87 77.82L197.19 76.14L198.39 74.94L198.87 74.34L198.99 74.22L199.59 73.62L200.07 73.02L200.67 72.42L201.03 71.7L201.51 70.98L201.75 70.26C201.75 70.14 201.87 70.14 201.87 70.02L202.23 69.42L202.35 68.7C202.35 68.58 202.35 68.58 202.35 68.46L202.83 67.02V66.3V66.18L203.07 64.62L202.95 63.3L202.83 63.18L202.47 63.06H202.11L200.91 63.78L199.71 64.98L199.59 65.1L198.87 65.7L197.43 63.78L198.03 63.3L199.23 61.98C199.35 61.86 199.35 61.86 199.47 61.74L201.03 60.78C201.15 60.66 201.39 60.66 201.63 60.54H202.47C202.59 60.54 202.71 60.54 202.83 60.54L203.67 60.78C203.91 60.78 204.03 60.9 204.15 61.14L204.87 61.86C204.99 62.1 205.11 62.34 205.23 62.58L205.47 64.5C205.47 64.62 205.47 64.62 205.47 64.74L205.35 65.58L205.23 66.54V67.38C205.23 67.5 205.23 67.62 205.23 67.74L204.63 69.42L204.51 70.26C204.51 70.38 204.39 70.5 204.39 70.62L204.03 71.22L203.79 71.94C203.79 72.06 203.67 72.06 203.67 72.18L203.19 72.9L202.83 73.62C202.83 73.74 202.71 73.86 202.71 73.86L202.11 74.58L201.63 75.18L201.51 75.3L200.91 75.9L200.43 76.5L200.31 76.62L198.87 77.82Z" fill="#2E2828"/>
<path d="M198.15 84.3L198.75 85.02L199.47 85.5L200.19 86.1L200.91 86.7L201.75 87.18L202.47 87.78L203.07 88.5L203.91 88.86L204.63 89.46L205.35 90.3L206.07 90.78L206.67 91.5L206.91 92.34V93.3L206.31 93.9L205.59 94.5L204.99 95.22L204.15 95.7L203.31 96.06L202.47 96.3H201.51H200.67H199.83L198.87 96.18L198.03 95.82" fill="#492A2A"/>
<path d="M202.47 97.5H201.51H200.67H199.71L198.75 97.38C198.63 97.38 198.51 97.38 198.39 97.26L197.55 96.9L198.39 94.62L199.11 94.86L199.83 94.98H200.67H201.51H202.23L203.55 94.5L204.15 94.14L204.63 93.54L204.75 93.42L205.35 92.94L205.59 92.7V92.46L205.47 91.98L205.23 91.62L204.63 91.14C204.51 91.14 204.51 91.02 204.39 90.9L203.79 90.18L203.31 89.7L202.59 89.34C202.47 89.22 202.35 89.22 202.23 89.1L201.03 87.9L200.31 87.54C200.19 87.54 200.07 87.42 200.07 87.3L199.35 86.7L198.03 85.74C197.91 85.62 197.79 85.62 197.79 85.5L197.19 84.78L198.99 83.22L199.47 83.82L200.07 84.3L200.91 84.9L201.51 85.5L202.23 85.86C202.35 85.86 202.47 85.98 202.59 86.1L203.79 87.3L204.51 87.66C204.63 87.66 204.75 87.78 204.75 87.9L205.47 88.5L205.59 88.62L206.07 89.22L206.67 89.7C206.79 89.82 206.91 89.82 206.91 89.94L207.51 90.66C207.63 90.78 207.63 90.9 207.75 91.02L207.99 91.86C207.99 91.98 207.99 92.1 207.99 92.22V93.18C207.99 93.42 207.87 93.78 207.75 94.02L207.15 94.74L207.03 94.86L206.43 95.34L205.83 95.94C205.71 96.06 205.71 96.06 205.59 96.06L204.87 96.54C204.75 96.54 204.75 96.66 204.63 96.66L203.79 97.02L202.83 97.38C202.71 97.5 202.59 97.5 202.47 97.5Z" fill="#1B1515"/>
<path d="M202.35 121.98L201.75 122.7L201.27 123.54L200.67 124.26L200.19 124.98L199.83 125.82L199.23 126.66L198.87 127.5L198.39 128.22L197.91 129.06L197.43 129.9L196.95 130.62L196.59 131.58L195.99 132.3L195.63 133.14L194.91 133.74L194.19 134.22L193.35 134.46H192.51L191.55 134.34L190.95 133.62L190.47 132.9L190.11 132.06L189.87 131.1L189.99 130.14L190.23 129.3L190.47 128.34L190.83 127.62L190.95 126.66L191.19 125.82L191.55 124.98L191.91 124.14L192.03 123.3L192.39 122.46L192.75 121.62L192.87 120.78L192.99 119.82L193.35 118.98L193.71 118.26L194.07 117.42L194.19 116.46L194.55 115.62L194.79 114.78L195.03 113.94" fill="#3A2F2F"/>
<path d="M159.03 170.1V169.14L159.15 168.3V167.34L159.03 166.5V165.54L158.91 164.58L159.15 163.62L159.03 162.78V161.82L158.91 160.86L159.03 160.02L158.91 159.06L159.03 158.1V157.26L158.91 156.3L159.87 155.94L160.71 155.58L161.55 155.34L162.27 154.86L163.11 154.5L163.83 154.02L164.67 153.54L165.51 153.18L166.11 152.58L166.95 152.1L167.67 151.5L168.39 151.14L169.11 150.54L169.83 150.06L170.67 149.58L171.39 149.1L171.87 148.38L172.59 147.78L173.31 147.18L174.03 146.58L174.63 145.98L175.11 145.26L175.83 144.54L176.31 143.82L177.03 143.22L177.63 142.5L177.99 141.66L178.47 140.94L178.95 140.22L179.43 139.38L179.91 138.66L180.15 137.82L180.63 136.98L180.99 136.14L181.23 135.3L181.71 134.58L181.83 133.62L182.19 132.78L182.43 131.94L182.55 130.98L182.67 130.14V129.18L182.55 128.34V127.38V126.54V125.58L182.67 124.74L182.55 123.78V122.94L181.71 122.82L180.75 122.94L179.91 122.82L178.95 122.94L178.11 122.82H177.15H176.31L175.35 122.94L174.51 122.82L173.55 123.06L172.71 122.94L171.75 123.06L170.91 122.94L169.95 123.06L169.11 122.82L168.15 122.94H167.31L166.35 123.06L165.51 122.94L164.55 122.82H163.71H162.75H161.91H160.95L160.11 122.94H159.15L158.31 123.06L157.35 122.94L156.39 122.82L155.55 123.06L154.59 122.94H153.75L152.79 122.82L151.95 122.94L150.99 123.06L150.15 122.82L149.19 122.94L148.35 122.82L147.39 122.94H146.43H145.59L144.63 123.06L143.79 122.82L142.83 122.94L141.99 122.82L141.03 122.94H140.19H139.23H138.39H137.43H136.47L135.63 123.06L134.67 122.94H133.83H132.87L132.03 123.06L131.07 122.82L130.11 122.94H129.27L129.03 123.78L128.79 124.62V125.58L128.67 126.42L128.43 127.38L128.31 128.22L128.19 129.18L128.07 130.02L127.83 130.86L127.71 131.82L127.47 132.66V133.62L127.35 134.46L127.11 135.3V136.26L126.87 137.1L126.63 137.94L126.39 138.9L126.27 139.74L126.15 140.7L126.03 141.54L125.91 142.5L125.67 143.34L125.55 144.18L125.43 145.14L125.19 145.98V146.94L125.07 147.78L124.83 148.62L124.59 149.58V150.42L124.23 151.38V152.22L124.11 153.18L123.87 154.02V154.98L123.51 155.82L123.39 156.66V157.62L123.15 158.46L123.03 159.42L122.91 160.26L122.67 161.22L122.55 162.06L122.31 162.9V163.86L122.07 164.7L121.83 165.66V166.5L121.59 167.46L121.47 168.3L121.35 169.26L121.23 170.1" fill="#563333"/>
<path d="M193.35 135.66H193.23L191.43 135.42C191.19 135.42 190.95 135.3 190.83 135.06L190.11 134.46C189.99 134.34 189.99 134.34 189.87 134.22L189.39 133.5L188.91 132.54C188.91 132.42 188.79 132.42 188.79 132.3L188.55 131.34C188.55 131.22 188.55 130.98 188.55 130.86L188.67 129.9C188.67 129.78 188.67 129.78 188.67 129.78L188.91 129.06L189.03 128.22C189.03 128.1 189.03 127.98 189.15 127.86L189.51 127.26L189.63 126.54L189.87 125.58C189.87 125.46 189.87 125.46 189.99 125.34L190.71 123.78L190.83 123.06C190.83 122.94 190.83 122.94 190.83 122.82L191.43 121.26L191.55 120.54V120.42L191.79 119.58V119.46L192.75 117.06L192.87 116.22C192.87 116.1 192.87 115.98 192.99 115.86L193.35 115.14L193.83 113.46L196.11 114.18L195.63 115.86C195.63 115.98 195.63 115.98 195.51 116.1L195.15 116.7L195.03 117.42C195.03 117.54 195.03 117.54 195.03 117.66L194.79 118.5L194.07 120.06L193.95 120.78L193.83 121.62C193.83 121.74 193.83 121.86 193.71 121.98L193.11 123.54L192.99 124.38C192.99 124.5 192.99 124.62 192.87 124.62L192.15 126.18L191.91 126.9L191.79 127.74C191.79 127.86 191.79 127.98 191.67 128.1L191.31 128.7L191.19 129.42C191.19 129.54 191.19 129.54 191.19 129.66L190.95 130.38L190.83 130.98L190.95 131.58L191.67 132.9L191.91 133.14L192.99 133.26L193.47 133.14L194.07 132.78L194.55 132.42L194.91 131.82C194.91 131.7 195.03 131.7 195.03 131.7L195.51 131.1L195.87 130.38L196.35 129.42L196.83 128.58L197.19 127.86L197.67 127.02L198.03 126.3L198.15 126.18L198.63 125.58L198.99 124.86L199.47 124.02L199.59 123.9L200.07 123.3L200.43 122.58C200.43 122.46 200.55 122.46 200.55 122.34L201.15 121.62L203.07 123.18L202.59 123.78L202.23 124.5C202.23 124.62 202.11 124.62 202.11 124.74L201.63 125.46L200.79 127.02C200.79 127.14 200.67 127.14 200.67 127.26L200.19 127.98L199.83 128.7L199.35 129.54L198.99 130.26C198.99 130.26 198.99 130.38 198.87 130.38L197.91 131.94L197.55 132.66C197.55 132.78 197.43 132.78 197.43 132.9L196.95 133.62L196.59 134.34C196.47 134.46 196.47 134.58 196.23 134.7L195.51 135.3C195.51 135.3 195.39 135.3 195.39 135.42L194.67 135.9C194.55 135.9 194.55 136.02 194.43 136.02L193.59 136.38C193.71 135.66 193.47 135.66 193.35 135.66Z" fill="#552323"/>
<path d="M122.43 170.22L120.03 170.1V169.14V169.02L120.27 167.22V167.1L120.51 166.38V165.66C120.51 165.54 120.51 165.42 120.51 165.42L120.75 164.58L120.99 163.74V163.02C120.99 162.9 120.99 162.9 120.99 162.78L121.23 161.94L121.47 160.14L121.71 159.3V158.46C121.71 158.34 121.71 158.22 121.83 158.1L122.07 157.38V156.66C122.07 156.54 122.07 156.54 122.07 156.42L122.19 155.58C122.19 155.46 122.19 155.46 122.19 155.34L122.43 154.74V154.02C122.43 153.9 122.43 153.78 122.55 153.66L122.79 152.94L122.91 151.26C122.91 151.14 122.91 151.14 122.91 151.02L123.15 150.3L123.39 148.5C123.39 148.38 123.39 148.38 123.39 148.26L123.63 147.54L123.75 146.82V145.98V145.86L124.11 144.18V143.34C124.11 143.22 124.11 143.1 124.11 143.1L124.35 142.38L124.83 138.9L125.07 137.94V137.82L125.31 137.1L125.43 136.38V135.54C125.43 135.42 125.43 135.3 125.43 135.3L125.79 133.74V133.02C125.79 132.9 125.79 132.78 125.79 132.54L126.03 131.82V131.1C126.03 130.98 126.03 130.86 126.03 130.74L126.27 129.9L126.51 128.34V127.5C126.51 127.38 126.51 127.26 126.51 127.14L126.75 126.42L126.87 125.7V124.86C126.87 124.74 126.87 124.74 126.87 124.62L126.99 123.78C126.99 123.66 126.99 123.66 126.99 123.54L127.35 122.7C127.47 122.22 127.95 121.98 128.43 121.98H129.27L130.11 121.86C130.23 121.86 130.35 121.86 130.47 121.86L131.19 121.98L131.91 121.86C132.03 121.86 132.03 121.86 132.15 121.86L132.99 121.98H133.83H133.95L134.79 122.1H135.63H135.75H136.59L137.43 121.98C137.55 121.98 137.55 121.98 137.67 121.98L138.51 122.1L139.35 121.98H140.31L141.15 121.86C141.27 121.86 141.39 121.86 141.39 121.86L142.11 121.98L142.83 121.86C142.95 121.86 143.07 121.86 143.31 121.86L144.03 121.98L144.75 121.86C144.87 121.86 144.87 121.86 144.99 121.86L145.83 121.98L147.51 121.86C147.63 121.86 147.75 121.86 147.75 121.86L148.47 121.98L149.19 121.86C149.31 121.86 149.55 121.86 149.67 121.86L150.39 122.1L152.07 121.98C152.19 121.98 152.19 121.98 152.31 121.98L153.03 122.1L153.75 121.98C153.87 121.98 153.87 121.98 153.99 121.98L154.71 122.1L155.43 121.98C155.55 121.98 155.67 121.98 155.79 121.98L156.63 122.1H157.35L158.19 121.98H158.31H159.15L160.95 121.86H161.91H163.71C163.83 121.86 163.83 121.86 163.95 121.86L164.79 121.98H165.63H166.47H167.31L168.03 121.86C168.15 121.86 168.39 121.86 168.51 121.86L169.23 121.98L169.95 121.86C170.07 121.86 170.19 121.86 170.31 121.86L171.15 121.98H171.99H172.83L173.55 121.86C173.67 121.86 173.79 121.86 173.91 121.86L174.63 121.98L175.35 121.86C175.47 121.86 175.47 121.86 175.59 121.86H176.55H177.51C177.63 121.86 177.63 121.86 177.75 121.86L178.47 121.98L179.19 121.86C179.31 121.86 179.43 121.86 179.43 121.86L180.27 121.98L181.11 121.86C181.23 121.86 181.23 121.86 181.35 121.86L182.19 121.98C182.79 122.1 183.27 122.58 183.27 123.18V124.02L183.39 124.86C183.39 124.98 183.39 125.22 183.39 125.34L183.27 126.06V126.78V127.74V128.46L183.39 129.3V129.42V130.26V130.38L183.15 132.18L182.91 133.14V133.26L182.67 133.98L182.55 134.82C182.55 134.94 182.43 135.06 182.43 135.18L182.07 135.9L181.83 136.62L180.99 138.3L180.75 139.02C180.75 139.14 180.63 139.26 180.51 139.38L180.03 139.98L179.67 140.7L179.55 140.82L178.59 142.14L178.23 142.86C178.23 142.98 178.11 143.1 177.99 143.22L177.39 143.94L177.27 144.06L176.67 144.54L176.31 145.14C176.31 145.26 176.19 145.26 176.19 145.38L175.71 145.86L175.35 146.46C175.35 146.58 175.23 146.58 175.11 146.7L174.51 147.3L172.47 148.98L171.99 149.58C171.99 149.7 171.87 149.7 171.75 149.82L171.03 150.42L170.91 150.54L170.07 151.02L169.47 151.38L168.87 151.98C168.75 152.1 168.75 152.1 168.63 152.22L167.91 152.58L167.31 153.06C167.31 153.06 167.19 153.18 167.07 153.18L166.35 153.54L165.75 154.02C165.63 154.14 165.51 154.14 165.39 154.26L164.67 154.62L162.27 155.94L161.43 156.3H161.31L159.63 156.9C159.63 157.02 159.63 157.02 159.63 157.14L159.39 158.94L159.51 159.78C159.51 159.9 159.51 159.9 159.51 160.02V160.86L159.63 161.7V161.82L159.75 163.62C159.75 163.74 159.75 163.86 159.75 163.98L159.63 164.7L159.75 168.3V169.26V170.1L157.35 170.22V169.26V169.14L157.47 167.34L157.35 164.7C157.35 164.58 157.35 164.46 157.35 164.46L157.47 163.74L157.23 161.22C157.23 161.1 157.23 161.1 157.23 160.98V160.14L157.11 159.3C157.11 159.18 157.11 159.06 157.11 159.06L157.35 157.38L157.23 156.54C157.11 155.94 157.47 155.46 157.95 155.22L160.47 154.26L162.75 153.06L163.47 152.58C163.47 152.58 163.59 152.58 163.59 152.46L164.19 152.22L164.67 151.74C164.79 151.62 164.79 151.62 164.91 151.62L165.63 151.26L166.23 150.78C166.35 150.78 166.35 150.66 166.47 150.66L167.07 150.3L167.67 149.82L167.79 149.7L168.51 149.22L169.35 148.74L169.83 148.38L170.31 147.78C170.31 147.66 170.43 147.66 170.55 147.54L172.59 145.86L173.07 145.38L173.43 144.78C173.43 144.66 173.55 144.54 173.67 144.54L174.27 144.06L174.75 143.46C174.87 143.34 174.87 143.34 174.99 143.22L175.59 142.74L175.95 142.26L176.19 141.54C176.19 141.42 176.31 141.42 176.31 141.3L177.27 139.86L177.63 139.14C177.63 139.02 177.75 139.02 177.75 139.02L178.11 138.42L178.35 137.7C178.35 137.58 178.35 137.58 178.47 137.46L179.19 135.9L179.43 135.18C179.43 135.06 179.43 135.06 179.55 134.94L179.91 134.34L180.03 133.62C180.03 133.5 180.03 133.5 180.15 133.38L180.39 132.54L180.63 131.7L180.87 130.14V129.42L180.75 128.58V128.46V127.62V126.66V125.82C180.75 125.7 180.75 125.58 180.75 125.46L180.87 124.74L180.75 124.14H180.27C180.15 124.14 180.15 124.14 180.03 124.14L179.31 124.02L178.59 124.14C178.47 124.14 178.35 124.14 178.23 124.14L177.39 124.02H176.55H175.83L174.99 124.14C174.87 124.14 174.75 124.14 174.63 124.14L173.91 124.02L173.19 124.14C173.07 124.14 173.07 124.14 172.95 124.14H172.11H171.27C171.15 124.14 171.15 124.14 171.03 124.14L170.31 124.02L169.59 124.14C169.47 124.14 169.35 124.14 169.23 124.14L168.51 124.02L167.79 124.14C167.67 124.14 167.67 124.14 167.55 124.14H166.59H165.75H164.79C164.67 124.14 164.67 124.14 164.55 124.14L163.71 124.02H162.03H161.07L159.39 124.14H159.27H158.43L157.59 124.26H157.47H156.51H156.39L155.67 124.14L154.95 124.26C154.83 124.26 154.71 124.26 154.59 124.26L153.75 124.14L152.91 124.26C152.79 124.26 152.79 124.26 152.67 124.26L151.83 124.14L150.15 124.26C150.03 124.26 149.91 124.26 149.67 124.26L148.95 124.14L148.23 124.26C148.11 124.26 147.99 124.26 147.99 124.26L147.27 124.14L145.59 124.26C145.47 124.26 145.47 124.26 145.35 124.26L144.63 124.14L143.91 124.26C143.79 124.26 143.67 124.26 143.43 124.26L142.71 124.14L141.99 124.26C141.87 124.26 141.75 124.26 141.63 124.26L140.91 124.14L140.19 124.26H139.23L138.39 124.38C138.39 124.38 138.27 124.38 138.15 124.38H137.31L136.47 124.5C136.35 124.5 136.35 124.5 136.23 124.5H135.39H134.55C134.43 124.5 134.43 124.5 134.31 124.5L133.47 124.38H132.63H132.51H131.79L130.95 124.5C130.83 124.5 130.71 124.5 130.59 124.5L129.87 124.38L129.03 124.5L128.91 125.1V125.94C128.91 126.06 128.91 126.06 128.91 126.18L128.79 127.02C128.79 127.14 128.79 127.14 128.79 127.26L128.55 127.98V128.7V128.82L128.19 130.62V130.74L127.95 131.46V132.18C127.95 132.3 127.95 132.42 127.95 132.54L127.71 133.14V133.86C127.71 133.98 127.71 134.1 127.71 134.22L127.35 135.78V136.5C127.35 136.62 127.35 136.62 127.35 136.74L127.23 137.58V137.7L126.99 138.54L126.75 140.22L126.39 142.86C126.39 142.98 126.39 142.98 126.39 143.1L126.15 143.82V144.54V144.66L125.79 146.34V147.18L125.67 148.14C125.67 148.26 125.67 148.26 125.67 148.38L125.43 149.1L125.19 150.78C125.19 150.9 125.19 150.9 125.19 151.02L124.95 151.74L124.83 153.42C124.83 153.54 124.83 153.66 124.83 153.66L124.59 154.38V155.1C124.59 155.22 124.59 155.34 124.47 155.58L124.23 156.3L124.11 157.02V157.86C124.11 157.98 124.11 158.1 123.99 158.22L123.75 158.94V159.66C123.75 159.78 123.75 159.78 123.75 159.9L123.39 161.58L123.27 162.42V162.54L123.03 163.26V164.1C123.03 164.22 123.03 164.34 123.03 164.46L122.79 165.3L122.67 165.9V166.74C122.67 166.86 122.67 166.98 122.67 167.1L122.43 167.94L122.19 169.62L122.43 170.22Z" fill="#382727"/>
<path d="M198.03 100.38L198.75 100.98L199.47 101.58L200.19 102.18L200.79 102.78L201.39 103.5L202.11 104.22L202.59 104.94L202.95 105.78L203.43 106.62L203.67 107.46L204.03 108.3L204.27 109.26V110.1L204.63 111.06L204.51 112.02L204.63 112.86V113.82L204.87 114.78L204.75 115.74L204.99 116.58L204.87 117.54L204.99 118.5V119.46L205.11 120.42L204.87 121.14L204.39 121.86L203.67 122.34L202.83 122.1L201.99 121.74L201.03 121.38L200.43 120.78L199.59 120.3L198.99 119.58L198.27 118.98L197.79 118.26L197.43 117.42L197.07 116.58L196.59 115.74L196.35 114.9L196.23 113.94" fill="black"/>
<path d="M203.67 123.54C203.55 123.54 203.43 123.54 203.31 123.54L202.47 123.3L200.67 122.58C200.55 122.58 200.43 122.46 200.31 122.34L199.71 121.74L198.99 121.38C198.87 121.26 198.75 121.26 198.63 121.14L198.15 120.54L197.55 119.94C197.43 119.82 197.43 119.82 197.31 119.7L196.83 118.98C196.71 118.86 196.71 118.74 196.71 118.74L196.47 117.9L195.63 116.34C195.63 116.22 195.51 116.1 195.51 116.1L195.27 115.26C195.27 115.26 195.27 115.14 195.27 115.02L195.15 114.06L197.55 113.82L197.67 114.66L197.79 115.38L198.63 116.94V117.06L198.87 117.78L199.23 118.26L199.83 118.74L199.95 118.86L200.43 119.34L201.03 119.7C201.15 119.7 201.27 119.82 201.27 119.94L201.75 120.42L203.55 121.02L203.79 120.66L203.91 120.3L203.79 119.7V119.58V118.74L203.67 117.9C203.67 117.78 203.67 117.66 203.67 117.54L203.79 116.82L203.55 116.1C203.55 115.98 203.55 115.74 203.55 115.62L203.67 114.9L203.55 114.18C203.55 114.06 203.55 113.94 203.55 113.94V113.1L203.43 112.26C203.43 112.14 203.43 112.02 203.43 111.9L203.55 111.18L203.31 110.46C203.31 110.34 203.31 110.22 203.31 110.1V109.38L202.59 107.1L202.23 106.5C202.23 106.5 202.23 106.38 202.11 106.38L201.75 105.54L201.39 104.94L199.59 103.02L198.27 101.94C198.27 101.94 198.15 101.94 198.15 101.82L197.55 101.22L199.23 99.54L199.83 100.14L201.27 101.22C201.27 101.22 201.39 101.22 201.39 101.34L203.31 103.38C203.31 103.38 203.43 103.5 203.43 103.62L203.91 104.46L204.39 105.3L204.87 106.02C204.87 106.14 204.99 106.26 204.99 106.38L205.83 109.02C205.83 109.14 205.95 109.26 205.95 109.38V110.1L206.19 110.82C206.19 110.94 206.31 111.18 206.19 111.3L206.07 112.14L206.19 112.86V112.98V113.82L206.43 114.66C206.43 114.78 206.43 115.02 206.43 115.14L206.31 115.86L206.55 116.58C206.55 116.7 206.55 116.94 206.55 117.06L206.43 117.78L206.55 118.5V118.62V119.46L206.67 120.3C206.67 120.54 206.67 120.78 206.67 120.9L206.43 121.74C206.43 121.74 206.43 121.86 206.31 121.86L205.95 122.58C205.83 122.82 205.71 122.94 205.47 123.06L204.63 123.42C204.03 123.42 203.79 123.54 203.67 123.54Z" fill="#3C1C1C"/>
<path d="M121.23 170.1V169.26L121.11 168.3V167.34L121.23 166.5L121.11 165.54V164.58V163.74V162.78L121.23 161.82L121.11 160.98L121.23 160.02L121.11 159.18L121.23 158.22L121.11 157.26L121.23 156.42L121.11 155.46V154.5L121.23 153.66L121.11 152.7L121.23 151.74L121.11 150.9L121.23 149.94L120.99 149.1L121.23 148.14L121.11 147.18V146.34L121.23 145.38L121.11 144.42L121.23 143.58L120.99 142.62L121.23 141.66L121.11 140.82V139.86V138.9L121.23 137.94V137.1V136.14V135.18L121.11 134.34L121.23 133.38L121.11 132.54L121.35 131.58L121.47 130.74V129.78L121.59 128.94V127.98V127.02L121.71 126.18L122.07 125.34L122.19 124.38L122.31 123.54L122.43 122.58L122.67 121.74V120.78L122.91 119.94L123.39 119.1L123.51 118.26L123.87 117.3V116.46L124.23 115.62L124.59 114.78L124.83 113.82L125.19 113.1L125.43 112.14L125.67 111.3L126.15 110.46L126.27 109.62L126.75 108.78L126.87 107.82L127.23 106.98L127.59 106.14L127.83 105.3L128.31 104.46L128.55 103.62L128.79 102.78L129.15 101.94L129.39 100.98L129.63 100.14L130.11 99.3L130.23 98.46L130.59 97.62L130.95 96.78L131.43 95.94L131.55 95.1L132.03 94.26L132.27 93.3L132.51 92.46L132.75 91.62L133.23 90.78L133.47 89.94L133.83 89.1L134.07 88.26L134.43 87.42L134.79 86.58L135.03 85.62L135.15 84.78L135.63 83.94L135.99 83.1L136.23 82.26L136.47 81.3L136.71 80.46L137.19 79.62L137.31 78.66L137.67 77.82L138.15 77.1L138.39 76.14L138.75 75.3L138.87 74.46L139.35 73.62L140.07 72.9L140.79 72.3L141.63 71.94L142.59 71.82L143.55 71.94L144.39 72.3L145.11 72.9L145.83 73.5L146.19 74.34L146.31 75.3L146.55 76.14V77.1L146.67 77.94L146.79 78.78V79.74V80.58L146.91 81.54V82.38V83.34V84.18L147.15 85.02V85.98L146.91 86.82L147.15 87.78L146.91 88.62L147.03 89.58L146.91 90.42V91.38L146.79 92.22V93.18L146.55 94.02L146.43 94.98V95.82L146.19 96.66V97.62L145.95 98.46L145.71 99.3L145.47 100.26L145.23 101.1L145.11 101.94L144.75 102.78L144.39 103.62L144.27 104.58L143.79 105.3L143.55 106.26L143.07 106.98L142.59 107.82L143.43 108.3L144.15 108.78L144.75 109.5L145.35 110.22L146.07 110.82L146.55 111.54L147.03 112.26L147.51 112.98L148.11 113.7L148.59 114.54L149.07 115.26L149.31 116.1L149.67 116.94L150.03 117.78L150.27 118.62L150.63 119.46L150.99 120.3L151.23 121.14L151.47 121.98L151.71 122.94L152.07 123.78V124.62L152.31 125.58L152.43 126.42L152.79 127.26L152.67 128.22L152.79 129.06L153.03 130.02L153.15 130.86L153.27 131.7V132.66L153.15 133.62V134.46L153.27 135.42V136.26" fill="#383734"/>
<g style="mix-blend-mode:darken">
<path d="M195.39 124.74L194.43 124.86H193.59H192.63L191.79 124.98L190.83 124.86H189.99H189.03H188.19L187.23 124.74L186.39 124.86L185.43 124.74L184.59 124.98H183.63H182.79L181.83 124.86H180.99H180.03H179.19L178.23 124.98H177.27L176.43 124.86L175.47 124.98L174.63 124.86L173.67 124.98L172.83 124.86H171.87L171.03 124.98L170.07 124.86L169.23 124.74L168.27 124.98L167.43 124.86L166.47 124.74L165.63 124.86L164.67 124.98L163.71 124.74H162.87L161.91 124.98L161.07 124.86H160.11L159.27 124.98L158.31 124.86L157.47 124.98L156.51 124.86L155.67 124.98L154.71 124.86H153.75H152.91H151.95H151.11L150.15 124.74L149.31 124.98L148.35 124.86H147.39L146.55 124.74L145.59 124.98H144.75L143.79 124.62L142.83 124.38L142.23 123.66L141.87 122.7L141.75 121.86V120.9L141.51 120.06L141.63 119.1L141.75 118.26L141.51 117.3V116.34L141.63 115.5L141.75 114.54L141.63 113.7L141.75 112.74V111.9L141.51 110.94L141.75 109.98L141.63 109.14V108.18V107.34V106.38V105.54L141.75 104.58L141.63 103.62V102.78V101.82L141.75 100.98L141.51 100.02V99.18L141.63 98.22L141.51 97.26L141.63 96.42L141.75 95.46L141.51 94.62L141.63 93.66V92.7L141.75 91.86L141.51 90.9V90.06L141.63 89.1L141.51 88.26L141.63 87.3L141.75 86.34L141.63 85.5L141.75 84.54V83.7V82.74L141.63 81.9V80.94V79.98V79.14L141.51 78.18L141.75 77.34L141.63 76.38L141.51 75.54L141.75 74.58L141.63 73.62V72.78V71.82L141.51 70.98V70.02L141.63 69.18V68.22L141.51 67.38L141.63 66.42V65.46V64.62V63.66V62.82L141.75 61.86L141.63 60.9L141.75 60.06V59.1L141.63 58.26L141.51 57.3L141.63 56.34L141.75 55.5L141.63 54.54V53.7L141.75 52.74L141.51 51.78L141.75 50.94L141.63 49.98V49.14L141.75 48.18V47.22L141.63 46.38V45.42V44.58L141.75 43.62L141.51 42.66L141.63 41.82V40.86V40.02L141.75 39.06L141.63 38.1V37.26L141.75 36.3L141.63 35.34L141.51 34.5L141.63 33.54L141.75 32.7L141.63 31.74V30.78L141.75 29.94L141.51 28.98L141.75 28.02L142.11 27.06L142.95 26.58L143.79 25.98L144.75 25.86L145.59 25.98L146.55 25.86L147.39 25.98L148.35 25.86L149.19 25.98H150.15L150.99 25.86L151.95 26.1L152.79 25.98L153.75 25.86L154.59 25.98L155.55 25.86H156.39H157.35H158.19L159.15 25.98H159.99H160.95H161.79L162.75 25.86H163.59H164.55H165.39L166.35 25.98L167.19 26.1L168.15 25.86L168.99 25.98L169.95 25.86L170.91 25.98L171.75 25.86H172.71L173.55 25.98L174.51 25.86L175.35 25.98H176.31H177.15H178.11L178.95 25.74L179.91 25.86L180.75 25.98H181.71L182.67 25.86L183.51 25.98L184.47 25.86H185.31L186.27 25.98L187.11 25.86L188.07 25.98L189.03 25.86H189.87H190.83H191.67L192.63 25.98H193.47L194.43 25.86L195.39 25.98L196.23 26.1L197.07 26.58L197.79 27.18L198.27 28.02L198.51 28.98L198.39 29.82V30.78L198.51 31.74V32.58L198.39 33.54L198.27 34.38L198.39 35.34L198.27 36.18L198.51 37.14L198.39 37.98L198.27 38.94L198.39 39.9L198.51 40.74L198.39 41.7L198.51 42.54L198.27 43.5V44.46L198.51 45.3V46.26L198.39 47.1L198.51 48.06L198.39 48.9V49.86L198.51 50.82L198.27 51.66L198.51 52.62V53.46L198.39 54.42V55.26V56.22V57.18V58.02L198.27 58.98L198.39 59.82L198.27 60.78L198.51 61.74L198.27 62.58L198.39 63.54V64.38V65.34L198.51 66.18L198.27 67.14L198.39 68.1L198.27 68.94L198.39 69.9L198.51 70.74V71.7L198.39 72.54L198.27 73.5L198.39 74.46V75.3L198.51 76.26V77.1L198.39 78.06L198.51 78.9L198.39 79.86L198.51 80.7L198.39 81.66L198.27 82.62L198.39 83.46V84.42L198.51 85.26V86.22L198.27 87.18L198.51 88.02L198.39 88.98L198.27 89.82V90.78L198.51 91.62V92.58L198.39 93.54V94.38V95.34V96.18V97.14V98.1L198.27 98.94L198.51 99.9V100.74L198.27 101.7V102.66L198.51 103.5L198.39 104.46L198.27 105.3L198.51 106.26L198.39 107.22V108.06V109.02V109.86L198.51 110.82V111.78L198.27 112.62L198.39 113.58L198.27 114.54L198.51 115.38L198.27 116.34L198.39 117.18L198.51 118.14L198.39 119.1V119.94V120.9L198.27 121.86L198.15 122.7L197.79 123.66L197.07 124.26L196.23 124.74H195.39Z" fill="black"/>
</g>
<path d="M163.47 30.9H163.35L162.51 30.78H161.67L160.83 30.9L160.71 29.1L161.67 28.98H162.63H162.75L163.47 29.1L164.19 28.98C164.31 28.98 164.31 28.98 164.43 28.98L165.15 29.1L165.87 28.98C165.99 28.98 166.11 28.98 166.11 28.98L166.95 29.1H167.79H169.59L170.43 28.98C170.55 28.98 170.55 28.98 170.67 28.98L172.47 29.1L173.43 29.22H174.15L174.99 29.1C175.11 29.1 175.23 29.1 175.35 29.1L176.19 29.22H177.99H179.79V31.02H177.99H176.19H176.07L175.35 30.9L174.63 31.02H174.51H173.55H173.43L172.47 30.9L170.91 30.78L170.07 30.9C169.95 30.9 169.95 30.9 169.83 30.9H168.03H167.19C167.07 30.9 167.07 30.9 166.95 30.9L166.23 30.78L165.39 30.9C165.27 30.9 165.15 30.9 165.15 30.9L164.43 30.78L163.71 30.9C163.47 30.9 163.47 30.9 163.47 30.9Z" fill="black"/>
<path d="M172.35 119.94L172.23 120.78L171.63 121.62L170.91 121.98L169.95 122.1H169.11L168.39 121.5L167.91 120.78L167.67 119.94L167.91 119.1L168.27 118.26L169.11 117.78L169.95 117.66L170.91 117.9L171.63 118.26L172.23 118.98L172.35 119.94Z" fill="#D9D9D7"/>
<path d="M194.19 33.54L194.07 34.5L193.95 35.46L194.07 36.3L194.19 37.26L194.07 38.1L194.19 39.06L194.07 40.02V40.86L194.19 41.82L194.07 42.66L193.95 43.62V44.46V45.42V46.38V47.22L194.19 48.18L194.07 49.02V49.98L193.95 50.94L194.07 51.78V52.74V53.58L194.19 54.54L193.95 55.5V56.34L194.07 57.3L194.19 58.14L194.07 59.1L193.95 59.94L194.07 60.9V61.86L194.19 62.7L193.95 63.66L194.19 64.5L194.07 65.46L193.95 66.42L194.19 67.26L194.07 68.22V69.06L193.95 70.02L194.07 70.86V71.82L194.19 72.78V73.62L194.07 74.58L193.95 75.42L194.07 76.38V77.22L193.95 78.18L194.07 79.14V79.98V80.94V81.78L193.95 82.74V83.7V84.54L194.07 85.5V86.34L193.95 87.3V88.26L194.07 89.1L194.19 90.06L193.95 90.9L194.19 91.86V92.82V93.66V94.62L194.07 95.58L193.95 96.42L194.07 97.38L193.95 98.22L194.07 99.18V100.14L194.19 100.98L194.07 101.94L194.19 102.78L194.07 103.74L193.95 104.7V105.54L194.07 106.5V107.46L193.95 108.3L194.07 109.26V110.22L193.95 111.06L194.07 112.02V112.86L194.19 113.82L194.07 114.78H193.11L192.27 114.66L191.31 114.78L190.47 114.9L189.51 114.78L188.67 114.66L187.83 114.78H186.87L186.03 114.66L185.07 114.78H184.23H183.27H182.43H181.47H180.63H179.67L178.71 114.9L177.87 114.78L176.91 114.66L176.07 114.78H175.11H174.27L173.31 114.9L172.47 114.78H171.51H170.67H169.71H168.87L167.91 114.66L167.07 114.9L166.11 114.66L165.27 114.78H164.31L163.47 114.9L162.51 114.66L161.67 114.9H160.71L159.87 114.66L158.91 114.78L158.07 114.66L157.11 114.78H156.15L155.31 114.9L154.35 114.78H153.51L152.55 114.66H151.71L150.75 114.78H149.91L148.95 114.66H147.99H147.15L146.19 114.78L146.31 113.82V112.98L146.19 112.02L146.07 111.18L146.31 110.22L146.07 109.26L146.31 108.42L146.19 107.46V106.62L146.31 105.66L146.07 104.7L146.19 103.86L146.07 102.9L146.19 102.06L146.31 101.1L146.19 100.26L146.07 99.3L146.19 98.34V97.5L146.31 96.54V95.7L146.19 94.74L146.31 93.78L146.19 92.94V91.98V91.14L146.31 90.18V89.22L146.07 88.38L146.19 87.42V86.58V85.62L146.07 84.78L146.19 83.82L146.31 82.86L146.19 82.02V81.06L146.31 80.22L146.07 79.26L146.19 78.42V77.46V76.5V75.66V74.7L146.07 73.86L146.31 72.9L146.07 72.06V71.1L146.31 70.14L146.19 69.3V68.34L146.07 67.38L146.19 66.54V65.58V64.74V63.78V62.94V61.98L146.31 61.02V60.18L146.07 59.22V58.26L146.19 57.42V56.46L146.31 55.62L146.07 54.66L146.19 53.7V52.86V51.9L146.31 51.06V50.1L146.19 49.14L146.31 48.3L146.19 47.34V46.5V45.54L146.31 44.58L146.07 43.74L146.19 42.78V41.82L146.31 40.98L146.19 40.02L146.31 39.06L146.07 38.22V37.26L146.31 36.42V35.46V34.5L146.19 33.54L147.15 33.42L147.99 33.54H148.95H149.79H150.75H151.59L152.55 33.42L153.39 33.66H154.35L155.19 33.54H156.03H156.99H157.95H158.79L159.75 33.66H160.59H161.55H162.39L163.35 33.42L164.19 33.66L165.15 33.54L165.99 33.66L166.95 33.54H167.79L168.75 33.66H169.59H170.55H171.39L172.35 33.54H173.19L174.15 33.66H174.99L175.95 33.54H176.79H177.75L178.59 33.66H179.55H180.39H181.35H182.31L183.15 33.54L184.11 33.66L184.95 33.54L185.91 33.66H186.75L187.71 33.54L188.55 33.66H189.51H190.35L191.31 33.54H192.27L193.11 33.66L194.19 33.54Z" fill="#DDEDFA"/>
<path d="M189.15 79.98L188.31 80.1L187.35 79.98L186.39 80.22L185.55 79.98L184.59 80.1L183.75 80.22L182.79 80.1H181.95L180.99 79.98L180.03 80.1L179.19 80.22L178.23 80.1L177.39 79.98H176.43H175.47H174.63H173.67L172.83 80.1L171.87 80.22L171.03 80.1L170.07 79.98H169.11L168.27 80.1L167.31 79.98L166.47 80.1L165.51 79.98H164.55H163.71L162.75 80.1L161.91 79.98L160.95 80.1L159.99 79.98H159.15L158.19 80.1H157.35L156.39 79.98H155.43H154.59H153.63L152.67 80.1L151.83 79.98H150.87V79.14V78.18V77.34L150.99 76.38L150.87 75.54L150.99 74.58V73.62L150.87 72.78V71.82L150.99 70.86V70.02V69.06L150.87 68.22V67.26V66.3V65.46V64.5V63.54L150.99 62.7L150.87 61.74L150.99 60.78L150.87 59.94V58.98V58.14L150.75 57.18L150.87 56.22L150.75 55.38L150.87 54.42V53.46L150.75 52.62L150.87 51.66L150.75 50.7L150.99 49.74L150.87 48.78H151.83L152.67 48.9H153.63L154.47 48.78H155.43L156.27 49.02L157.23 48.9L158.19 48.78L159.03 48.9L159.99 48.78L160.83 48.9H161.79L162.75 49.02L163.59 48.9H164.55H165.39H166.35L167.19 48.78L168.15 49.02L169.11 48.78L169.95 48.9H170.91L171.75 49.02L172.71 48.78L173.67 48.9L174.51 48.78L175.47 48.9L176.31 48.78L177.27 48.9H178.23L179.07 48.78L180.03 48.9H180.87H181.83H182.79H183.63L184.59 48.78L185.55 49.02L186.39 48.78L187.35 48.9L188.31 49.02L189.15 48.9L189.27 49.74V50.7V51.66L189.15 52.5V53.46L189.27 54.42V55.26L189.15 56.22L189.27 57.06V58.02V58.98V59.82V60.78L189.15 61.74L189.03 62.58V63.54L189.15 64.38V65.34L189.27 66.3L189.03 67.14L189.15 68.1L189.27 69.06L189.15 69.9L189.27 70.86L189.03 71.82L189.15 72.66L189.27 73.62L189.15 74.58L189.27 75.42V76.38V77.34V78.18L189.15 79.14V79.98Z" fill="white"/>
<path d="M179.19 81.06L178.23 80.94L177.27 80.82H175.47H174.51L171.87 81.06H171.75L170.79 80.94L169.11 80.82L168.27 80.94H168.15H167.19L166.35 81.06C166.23 81.06 166.23 81.06 166.11 81.06L165.27 80.94H164.43H163.47L162.63 81.06C162.51 81.06 162.51 81.06 162.39 81.06L161.55 80.94L160.71 81.06C160.59 81.06 160.59 81.06 160.47 81.06L158.79 80.94L156.99 81.06C156.87 81.06 156.87 81.06 156.75 81.06L155.91 80.94H155.07H154.11L152.31 81.06H152.19L151.35 80.94H150.51C150.03 80.94 149.67 80.58 149.55 80.1L149.43 77.46L149.55 76.5V75.66L149.67 73.74L149.55 72.06C149.55 71.94 149.55 71.94 149.55 71.82L149.67 70.86V69.18L149.55 68.34C149.55 68.22 149.55 68.22 149.55 68.1V67.14V65.34L149.67 64.38L149.55 63.54C149.55 63.42 149.55 63.42 149.55 63.3L149.67 62.46V61.62V61.5L149.79 60.66L149.67 59.82V59.7V58.74V57.78L149.55 56.94C149.55 56.82 149.55 56.82 149.55 56.7L149.67 55.86L149.55 55.02C149.55 55.02 149.55 54.9 149.55 54.78L149.67 53.94L149.55 52.14V51.18V50.34C149.55 50.22 149.55 50.22 149.55 50.1L149.67 49.38L149.55 48.54C149.55 48.3 149.55 48.06 149.79 47.82C150.03 47.58 150.15 47.46 150.39 47.46H151.35H151.47L153.15 47.58L153.99 47.46H154.95C155.07 47.46 155.07 47.46 155.19 47.46L156.03 47.58L156.75 47.46L157.59 47.34C157.71 47.34 157.83 47.34 157.95 47.34L158.67 47.46L159.39 47.34C159.51 47.34 159.63 47.34 159.63 47.34L160.59 47.46L162.27 47.58L163.11 47.46H164.07L165.03 47.58H165.87L166.71 47.46C166.83 47.46 166.95 47.46 167.07 47.46L167.79 47.58L168.51 47.46C168.63 47.46 168.63 47.46 168.75 47.46H169.71H170.55H170.67L171.39 47.58L172.11 47.34C172.23 47.34 172.35 47.34 172.47 47.34L173.31 47.46H174.15L175.11 47.58H175.95L177.87 47.7L178.71 47.58C178.83 47.58 178.83 47.58 178.95 47.58L179.91 47.7H180.75L184.35 47.58C184.47 47.58 184.47 47.58 184.59 47.58L185.31 47.7L186.03 47.58C186.15 47.58 186.27 47.58 186.39 47.58L188.07 47.82L188.91 47.7C189.39 47.7 189.87 48.06 189.87 48.54L189.99 49.5V50.46V51.42V51.54L189.87 52.38V53.22L189.99 54.06C189.99 54.18 189.99 54.18 189.99 54.3V55.26L189.87 56.1L189.99 56.82V56.94V57.9V58.86V59.7V60.66L189.87 61.62V63.3L189.99 64.14C189.99 64.26 189.99 64.26 189.99 64.38L189.87 65.22L189.99 66.06C189.99 66.18 189.99 66.3 189.99 66.42L189.75 67.26V68.1L189.87 68.94V69.06V70.02V70.86C189.87 70.98 189.87 70.98 189.87 71.1L189.75 71.82L189.99 73.5C189.99 73.62 189.99 73.62 189.99 73.74L189.87 74.46L189.99 75.18V75.3V77.1V77.94V78.06L189.87 79.02V79.74C189.87 80.22 189.51 80.58 189.03 80.58H188.19H188.07L187.35 80.46L186.63 80.58C186.51 80.58 186.39 80.58 186.27 80.58L185.55 80.46L183.87 80.7C183.75 80.7 183.75 80.7 183.63 80.7L182.79 80.58H181.95H180.99L179.19 81.06ZM177.39 79.02H177.51L178.47 79.14H179.19L180.87 79.02H180.99H181.95H182.79H182.91L183.75 79.14L185.43 78.9C185.55 78.9 185.67 78.9 185.79 78.9L186.51 79.02L187.23 78.9C187.35 78.9 187.47 78.9 187.47 78.9L188.31 79.02L188.43 78.06V77.22V75.42L188.31 74.58C188.31 74.46 188.31 74.34 188.31 74.22L188.43 73.38L188.19 71.7C188.19 71.58 188.19 71.46 188.19 71.46L188.31 70.62V69.78V68.82L188.19 67.98V67.02C188.19 66.9 188.19 66.9 188.19 66.78L188.31 66.06L188.19 65.34C188.19 65.22 188.19 65.22 188.19 65.1L188.31 64.26L188.19 63.42V63.3V61.38L188.31 60.42V59.58V58.74V57.78V56.94L188.19 56.1C188.19 55.98 188.19 55.86 188.19 55.74L188.31 54.78V54.06L188.19 53.22V52.14C188.19 52.02 188.19 52.02 188.19 51.9L188.31 51.06V50.22V49.38C188.19 49.38 188.19 49.38 188.07 49.38L186.39 49.14L185.67 49.26C185.55 49.26 185.43 49.26 185.31 49.26L184.47 49.14H183.63L180.87 49.26H179.91L179.07 49.14L178.23 49.26C178.11 49.26 178.11 49.26 177.99 49.26L176.19 49.14L175.35 49.26H175.23L174.27 49.14H173.43H173.31L172.59 49.02L171.87 49.26C171.75 49.26 171.63 49.26 171.51 49.26L170.67 49.14H169.83H168.99L168.15 49.26C168.03 49.26 167.91 49.26 167.79 49.26L167.07 49.14L166.35 49.26H165.39H165.27L164.31 49.14H163.47L162.63 49.26H162.51L159.87 49.02L159.15 49.14C159.03 49.14 158.91 49.14 158.79 49.14L158.07 49.02L157.35 49.14L156.39 49.26C156.27 49.26 156.27 49.26 156.15 49.26L155.31 49.14H154.47L153.63 49.26H153.51L151.83 49.14C151.83 49.26 151.83 49.38 151.83 49.5L151.71 50.34V51.18V52.14L151.83 53.94V54.06L151.71 54.9L151.83 55.74V55.86L151.71 56.7L151.83 57.54V58.62V59.46L151.95 60.3C151.95 60.42 151.95 60.42 151.95 60.54L151.83 61.38V62.22V62.34L151.71 63.18L151.83 64.02V64.14L151.71 65.1V66.78V67.62L151.83 68.46C151.83 68.58 151.83 68.58 151.83 68.7V70.5L151.71 71.46L151.83 73.14L151.71 75.06V75.9V76.02L151.59 76.98V78.66H151.71L152.55 78.78L154.35 78.66H155.31L156.15 78.54C156.27 78.54 156.27 78.54 156.39 78.54L157.23 78.66L158.91 78.54H159.03L160.83 78.66L161.67 78.54H161.79L162.63 78.66L163.47 78.54H163.59H164.55H165.39C165.51 78.54 165.51 78.54 165.63 78.54L166.47 78.66H167.31H168.27L169.11 78.54H169.23L171.99 78.78H172.83L173.67 78.66L174.63 78.54H175.71L177.39 79.02Z" fill="#201F1A"/>
<path d="M188.43 79.26H187.47H186.63L185.79 79.38L184.83 79.26H183.99L183.03 79.38L182.19 79.26H181.23H180.39L179.43 79.38H178.59H177.63L176.79 79.26H175.83H174.99L174.03 79.14L173.19 79.26L172.23 79.38H171.39L170.43 79.26H169.59L168.63 79.14L167.79 79.26H166.83H165.99L165.15 79.14L164.19 79.26H163.35L162.39 79.38L161.55 79.26L160.59 79.38L159.75 79.26L158.79 79.14L157.83 79.26L156.99 79.38L156.03 79.14L155.19 79.26H154.23H153.39L152.43 79.38L151.59 79.26V78.3V77.34V76.38V75.54V74.58H152.43H153.39H154.23H155.19L156.03 74.46L156.99 74.58H157.83L158.67 74.7L159.63 74.46H160.47H161.43H162.27L163.23 74.58L164.07 74.46L165.03 74.58H165.87H166.83L167.67 74.46H168.63H169.47H170.43H171.27H172.23L173.07 74.58L174.03 74.46H174.87H175.83H176.67L177.63 74.58L178.47 74.46H179.43H180.27L181.23 74.58L182.07 74.46H183.03L183.87 74.7L184.83 74.58L185.67 74.46L186.63 74.58L187.47 74.46L188.43 74.58V75.42L188.31 76.38L188.43 77.34V78.3V79.26Z" fill="#00FD38"/>
<path d="M167.43 66.18L166.47 66.06H165.63H165.51L164.67 65.94H163.83L162.99 65.82L162.15 65.94H160.23H160.11L159.27 65.82L157.71 65.94L157.47 64.14L159.27 63.9C159.39 63.9 159.39 63.9 159.51 63.9L160.35 64.02H162.03L162.87 63.9C162.99 63.9 162.99 63.9 163.11 63.9L163.95 64.02H164.79L165.75 64.14H166.59H166.71L167.55 64.26L169.23 64.02C169.35 64.02 169.47 64.02 169.59 64.02L170.43 64.26H171.15L171.99 64.14H172.11H172.95L173.91 64.26L173.67 66.06L172.83 65.94H172.11L171.27 66.06H171.15H170.31C170.19 66.06 170.19 66.06 170.07 66.06L169.35 65.94L167.43 66.18C167.55 66.18 167.55 66.18 167.43 66.18Z" fill="#201F1A"/>
<path d="M162.99 72.9H162.87L162.15 72.78L161.43 72.9C161.31 72.9 161.31 72.9 161.19 72.9L159.51 72.78L158.67 72.9H157.71V71.1L159.39 70.98L161.19 71.1L162.03 70.98C162.15 70.98 162.27 70.98 162.27 70.98L162.99 71.1L163.71 70.98C163.83 70.98 163.83 70.98 163.95 70.98L164.79 71.1L165.63 70.98H166.59H167.55V72.78H166.71L165.03 72.9H164.91L164.07 72.78L163.23 72.9C163.11 72.78 163.11 72.9 162.99 72.9Z" fill="#201F1A"/>
<path d="M173.67 69.54L171.03 69.3H170.19L169.35 69.42C169.23 69.42 169.23 69.42 169.11 69.42L168.27 69.3L166.59 69.42H165.63L164.79 69.54C164.67 69.54 164.55 69.54 164.55 69.54L163.71 69.42L162.03 69.54C161.91 69.54 161.91 69.54 161.79 69.54L161.07 69.42L160.35 69.54C160.23 69.54 160.11 69.54 159.99 69.54L159.39 69.3H158.55L157.71 69.42L157.59 67.62L158.43 67.5H159.39H159.51L160.23 67.62L160.95 67.5C161.07 67.5 161.19 67.5 161.31 67.5L162.03 67.62L163.71 67.5C163.83 67.5 163.83 67.5 163.95 67.5L164.67 67.62L165.39 67.5H165.51H166.35L168.03 67.38H168.15L168.99 67.5L169.83 67.38H170.79H171.75L173.55 67.62L173.67 69.54Z" fill="#201F1A"/>
<path d="M182.43 66.18L181.59 66.06H180.75C180.63 66.06 180.63 66.06 180.51 66.06L179.79 65.94H178.23L177.51 66.06C177.39 66.06 177.27 66.06 177.15 66.06L176.31 65.94L176.67 64.14L177.39 64.26L178.11 64.14H180.03C180.03 64.14 180.15 64.14 180.27 64.14L180.99 64.26H181.71H181.83L182.67 64.38L182.43 66.18Z" fill="#201F1A"/>
<path d="M176.55 72.78L176.31 70.98L177.99 70.86H178.95H179.07L179.91 70.98H180.63L181.47 70.86H181.59H182.43L182.31 72.66H181.47L180.63 72.78H180.51H179.67H179.55L178.83 72.66L177.27 72.78H176.55Z" fill="#201F1A"/>
<path d="M180.75 69.54H180.63L179.79 69.42H178.23L177.39 69.54C177.27 69.54 177.27 69.54 177.15 69.54L176.31 69.42L176.55 67.62L177.27 67.74L177.99 67.62H178.11L179.79 67.74L180.63 67.86L181.35 67.74L182.31 67.62L182.43 69.42L181.59 69.54L180.75 69.66C180.87 69.54 180.87 69.54 180.75 69.54Z" fill="#201F1A"/>
<path d="M182.55 57.06H181.59L180.75 57.18L179.79 57.06L178.83 57.18L177.99 56.94L177.03 57.06L176.07 57.18H175.23L174.27 56.94L173.31 57.06L172.47 56.94L171.51 57.06L170.67 57.18H169.71L168.75 56.94L167.91 57.18L166.95 57.06H165.99H165.15L164.19 56.94L163.23 57.06H162.39H161.43L160.47 57.18L159.63 57.06L158.67 57.18H157.83V58.02L157.71 58.98L157.59 60.06L157.71 61.02V61.98H158.67H159.51H160.47L161.43 61.86L162.27 62.1L163.23 61.98L164.19 62.1L165.03 61.98H165.99H166.95L167.79 62.1L168.75 61.98L169.59 61.86L170.55 62.1L171.51 61.98H172.35L173.31 61.86L174.27 61.98H175.11L176.07 62.1L177.03 61.98L177.87 62.1L178.83 61.98L179.79 61.86L180.63 62.1H181.59L182.55 61.98V61.02V60.06V58.98V58.02V57.06Z" fill="#ABABAB"/>
<path d="M182.67 53.82L182.79 54.66L183.51 55.14L184.23 55.38L184.95 55.26L185.67 54.78L185.79 53.82L185.55 53.1L185.07 52.38L184.23 52.26L183.39 52.5L182.91 53.1L182.67 53.82Z" fill="#00643C"/>
<path d="M159.63 54.9C159.51 54.9 159.51 54.9 159.39 54.9L158.67 54.78L157.95 54.9C157.83 54.9 157.71 54.9 157.59 54.9L156.75 54.78H155.91H154.95V52.98H155.91H156.75C156.87 52.98 156.87 52.98 156.99 52.98L157.71 53.1L158.43 52.98C158.55 52.98 158.67 52.98 158.79 52.98L159.51 53.1L160.23 52.98C160.35 52.98 160.35 52.98 160.47 52.98H161.43H162.27L163.23 53.1L164.07 52.98C164.19 52.98 164.19 52.98 164.31 52.98L165.03 53.1L165.75 52.86C165.87 52.86 165.87 52.86 165.99 52.86H166.95V54.66H166.11L165.39 54.9C165.27 54.9 165.15 54.9 165.03 54.9L164.19 54.78L163.35 54.9C163.23 54.9 163.23 54.9 163.11 54.9L162.15 54.78H161.31H160.35L159.51 54.9C159.75 54.9 159.75 54.9 159.63 54.9Z" fill="#201F1A"/>
<path d="M121.11 170.1V169.26V168.3L121.23 167.34V166.5L121.11 165.54L121.23 164.58L121.11 163.74L121.23 162.78V161.82L121.11 160.98V160.02V159.18L121.23 158.22V157.26L121.11 156.42V155.46L121.23 154.5V153.66V152.7V151.74V150.9L121.11 149.94L121.23 149.1V148.14L121.11 147.18V146.34V145.38V144.42V143.58V142.62L121.23 141.66L121.11 140.82L120.99 139.86L121.23 138.9V137.94V137.1V136.14L121.11 135.18V134.34V133.38V132.54L121.35 131.58L121.23 130.62V129.78L121.59 128.94V127.98L121.71 127.02V126.18L121.95 125.22L122.19 124.38L122.31 123.54L122.43 122.58L122.55 121.74L122.79 120.78L123.03 119.94L123.15 119.1L123.39 118.14L123.75 117.3L123.99 116.46L124.23 115.62L124.59 114.78L124.71 113.82L125.07 112.98L125.55 112.14L125.79 111.3L126.15 110.46L126.39 109.62L126.63 108.66L126.99 107.94L127.23 106.98L127.59 106.14L127.95 105.3L128.19 104.46L128.55 103.62L128.91 102.78L129.15 101.94L129.39 100.98L129.87 100.26L130.11 99.42L130.35 98.46L130.71 97.62L130.95 96.78L131.31 95.94L131.67 95.1L131.91 94.14L132.15 93.3L132.63 92.46L132.87 91.62L133.11 90.78L133.47 89.94L133.59 88.98L134.19 88.26L134.43 87.42L134.55 86.46L134.91 85.62L135.27 84.78L135.51 83.94L135.75 82.98L136.23 82.26L136.59 81.42L136.83 80.46L137.07 79.62L137.43 78.78L137.67 77.82L138.15 77.1L138.39 76.14L138.63 75.3L138.99 74.46L139.47 73.62L139.95 72.9L140.79 72.3L141.63 71.94L142.59 71.82L143.55 71.94L144.39 72.42L145.11 72.9L145.83 73.5L146.19 74.34L146.55 75.3L146.43 76.14L146.55 77.1L146.67 77.94L146.79 78.78L146.67 79.74L147.03 80.58L146.91 81.54V82.38V83.34L147.03 84.18L147.15 85.02L147.03 85.98V86.82L147.15 87.78L147.03 88.62L146.91 89.58V90.42V91.38L146.79 92.22L146.67 93.18V94.02L146.55 94.98L146.31 95.82L146.19 96.66L146.07 97.62V98.46L145.71 99.42L145.59 100.26L145.23 101.1L145.11 101.94L144.87 102.9L144.51 103.74L144.15 104.58L143.79 105.3L143.55 106.26L143.07 106.98L142.71 107.82L143.31 108.42L144.03 108.9L144.75 109.5L145.47 110.1L146.07 110.82L146.67 111.42L147.03 112.26L147.51 112.98L147.99 113.82L148.47 114.54L148.83 115.38L149.31 116.1L149.67 116.94L150.15 117.78L150.39 118.62L150.75 119.46L150.99 120.3L151.35 121.14L151.71 121.98L151.83 122.82L151.95 123.78L152.19 124.62L152.43 125.46L152.55 126.42L152.79 127.26V128.22L152.91 129.06V130.02V130.86L153.15 131.7L153.03 132.66L153.15 133.62L153.27 134.46L153.15 135.42V136.26" fill="#482C1F"/>
<path d="M122.31 170.22L119.91 170.1L120.03 169.14V168.3V166.5L119.91 165.66C119.91 165.54 119.91 165.42 119.91 165.3L120.03 164.58L119.91 163.86C119.91 163.74 119.91 163.74 119.91 163.62L120.03 161.94L119.91 161.22C119.91 161.1 119.91 161.1 119.91 160.98V159.18C119.91 159.06 119.91 159.06 119.91 158.94L120.03 158.1V157.38L119.91 156.54C119.91 156.42 119.91 156.42 119.91 156.3V155.34L120.03 154.5L119.91 153.78V153.66V152.7V151.74V150.9L119.79 150.06C119.79 149.94 119.79 149.82 119.79 149.58L119.91 148.74V148.02L119.79 147.18C119.79 147.06 119.79 147.06 119.79 146.94V145.14L119.67 144.3V142.38C119.67 142.26 119.67 142.26 119.67 142.14L119.79 141.3L119.67 139.62C119.67 139.5 119.67 139.38 119.67 139.26L119.79 138.42V137.58V136.74V136.62L119.91 135.78L119.79 134.94V134.82V133.02V132.9V131.94C119.79 131.82 119.79 131.82 119.79 131.7L119.91 130.98L119.79 130.26V130.14V129.18C119.79 129.06 119.79 128.94 119.91 128.82L120.15 128.1L120.27 125.58V125.46L120.51 124.62L120.75 123.78L120.87 122.94V122.1L120.99 121.14C120.99 121.02 120.99 121.02 120.99 120.9L121.47 119.34L121.59 118.5V118.38L121.83 117.54V117.42L122.19 116.7L122.43 115.86L122.79 114.9L123.15 114.06L123.27 113.22C123.27 113.1 123.27 113.1 123.39 112.98L123.75 112.14V112.02L124.11 111.3L124.35 110.58L124.95 108.9L125.07 108.06C125.07 107.94 125.07 107.82 125.19 107.82L125.55 107.1L126.15 105.42C126.15 105.42 126.15 105.3 126.27 105.3L126.63 104.58L126.75 103.86C126.75 103.74 126.87 103.62 126.87 103.5L127.23 102.78L127.47 102.06L127.71 101.22L127.83 100.38C127.83 100.26 127.95 100.14 127.95 100.02L128.31 99.3L128.55 98.7L128.67 97.86C128.67 97.74 128.67 97.74 128.79 97.62L130.11 94.38L130.35 93.54L130.71 92.58C130.71 92.58 130.71 92.46 130.83 92.46L131.19 91.74L131.91 89.34L132.03 88.5C132.03 88.38 132.15 88.26 132.15 88.14L132.63 87.54L132.87 86.94L132.99 86.1C132.99 85.98 132.99 85.98 132.99 85.86L133.71 84.18L134.19 82.5C134.19 82.38 134.31 82.38 134.31 82.26L134.67 81.54L134.91 80.82L135.27 79.14C135.27 79.02 135.27 79.02 135.39 78.9L135.75 78.06L135.99 77.22C135.99 77.1 135.99 77.1 136.11 76.98L136.47 76.26L136.71 75.54L136.95 74.7C136.95 74.7 136.95 74.58 137.07 74.58L137.43 73.74V73.62L138.39 71.94C138.51 71.82 138.63 71.7 138.63 71.58L139.35 70.98C139.47 70.86 139.59 70.86 139.59 70.86L140.43 70.5C140.55 70.5 140.67 70.38 140.79 70.38L141.75 70.26H141.87H142.83C143.19 70.26 143.43 70.38 143.67 70.62L144.99 71.34C145.11 71.34 145.23 71.46 145.23 71.58L145.83 72.3C145.95 72.42 145.95 72.42 146.07 72.54L146.55 73.38C146.55 73.38 146.55 73.5 146.67 73.5L147.03 74.34C147.03 74.46 147.15 74.7 147.03 74.82L146.91 75.54L147.15 77.22V78.18V78.9L147.39 79.62C147.39 79.74 147.51 79.98 147.39 80.1L147.27 80.94V81.78L147.51 84.42C147.51 84.54 147.51 84.54 147.51 84.66L147.39 85.5L147.51 87.06C147.51 87.18 147.51 87.3 147.51 87.3L147.39 88.14L147.27 88.98V89.7V89.82L147.15 91.62C147.15 91.74 147.15 91.74 147.15 91.86L147.03 92.58V93.3C147.03 93.42 147.03 93.42 147.03 93.54L146.91 94.38V94.5L146.67 95.34L146.55 96.06V96.9L146.43 97.86C146.43 97.98 146.43 98.1 146.31 98.22L146.07 98.94L145.95 99.66C145.95 99.78 145.95 99.9 145.83 99.9L145.59 100.62L145.23 102.3L144.87 103.26L144.51 104.22C144.51 104.22 144.51 104.34 144.39 104.34L144.03 104.94L143.79 105.66C143.79 105.78 143.79 105.78 143.67 105.9L143.31 106.74L143.91 107.1L144.03 107.22L145.35 108.42L146.07 109.14L146.67 109.86C146.67 109.86 146.79 109.98 146.79 110.1L147.15 110.82L148.11 112.38L149.43 114.66C149.55 114.78 149.55 114.9 149.55 115.02L149.79 115.74L150.15 116.34C150.15 116.46 150.27 116.46 150.27 116.58L150.87 118.26V118.38L151.11 119.22L151.71 120.9V121.02L151.95 121.86V121.98L152.07 122.82L152.19 123.54L152.43 124.38C152.43 124.5 152.43 124.5 152.43 124.62L152.55 125.46L152.79 126.3C152.79 126.42 152.79 126.42 152.79 126.54V127.38L152.91 128.1C152.91 128.22 152.91 128.34 152.91 128.34V129.3V130.02L153.15 130.74C153.15 130.86 153.15 131.1 153.15 131.22L153.03 131.94L153.27 133.62C153.27 133.74 153.27 133.86 153.27 133.98L153.15 134.82V135.66L150.75 135.54V134.58V134.46L150.87 133.74L150.63 132.06C150.63 131.94 150.63 131.82 150.63 131.7L150.75 130.98L150.63 130.26C150.63 130.14 150.63 130.02 150.63 130.02V129.18V128.34L150.51 127.62C150.51 127.5 150.51 127.5 150.51 127.38V126.66L150.39 125.94V125.82L150.27 125.1L150.03 124.38V124.26L149.79 123.42V123.3L149.67 122.46L149.55 121.74L148.95 120.18V120.06L148.71 119.22L148.11 117.66L147.75 116.94C147.75 116.82 147.63 116.7 147.63 116.7L147.39 115.98L147.03 115.38C147.03 115.38 147.03 115.26 146.91 115.26L146.07 113.7L145.11 112.26C145.11 112.26 145.11 112.14 144.99 112.14L144.63 111.42L144.15 110.82L143.55 110.22L142.35 109.14L141.63 108.66C141.51 108.66 141.51 108.54 141.39 108.54L140.79 107.94C140.43 107.58 140.31 107.1 140.55 106.62L141.27 105.06L141.51 104.34C141.51 104.22 141.63 104.1 141.63 104.1L141.99 103.38L142.35 102.66L142.83 101.1L142.95 100.26C142.95 100.14 142.95 100.14 142.95 100.02L143.19 99.3L143.31 98.58C143.31 98.46 143.31 98.46 143.43 98.34L143.67 97.62L143.79 96.06C143.79 95.94 143.79 95.94 143.79 95.82L143.91 94.98L144.15 94.02L144.27 93.3V92.46C144.27 92.34 144.27 92.22 144.27 92.1L144.51 91.26L144.63 89.7L144.51 88.86C144.51 88.74 144.51 88.62 144.51 88.5L144.75 86.94L144.63 86.22V85.26C144.63 85.14 144.63 85.14 144.63 85.02L144.75 84.3V83.58L144.51 81.9V80.94C144.51 80.94 144.51 80.82 144.51 80.7L144.63 80.1L144.39 79.5C144.39 79.38 144.39 79.26 144.39 79.14V78.3V77.46L144.15 75.78C144.15 75.66 144.15 75.54 144.15 75.54V74.94L143.91 74.34L143.55 73.74L143.19 73.26L141.87 72.54H141.39L140.67 72.66L140.07 72.9L139.59 73.26L138.75 74.58L138.39 75.3L138.15 76.14V76.26L137.79 77.1C137.79 77.1 137.79 77.22 137.67 77.22L137.31 77.94L137.07 78.66V78.78L136.71 79.5L136.23 81.18L135.87 82.14C135.87 82.26 135.87 82.26 135.75 82.38L135.39 83.1L134.91 84.66V84.78L134.31 86.34L134.19 87.18C134.19 87.3 134.19 87.3 134.19 87.42L133.95 88.26C133.95 88.38 133.83 88.5 133.83 88.5L133.47 89.1L133.35 89.82V89.94L133.11 90.78L132.63 92.46C132.63 92.58 132.63 92.58 132.51 92.7L132.15 93.42L131.91 94.14L131.67 94.98V95.1L130.35 98.34L130.23 99.06C130.23 99.18 130.23 99.18 130.23 99.3L129.87 100.14C129.87 100.26 129.87 100.26 129.75 100.38L129.39 100.98L129.27 101.7L129.03 102.66V102.78L128.67 103.62V103.74L128.31 104.34L128.19 105.06C128.19 105.18 128.19 105.3 128.07 105.42L127.71 106.14L127.23 107.7V107.82L126.87 108.54L126.75 109.26V109.38L126.51 110.22L126.15 111.18L125.91 111.9C125.91 112.02 125.91 112.02 125.79 112.14L125.43 112.86L125.19 113.58L125.79 114.9C125.79 115.02 125.79 115.02 125.67 115.14L125.31 115.98L124.83 117.54V117.66L124.59 118.5L124.35 119.22L124.23 120.06V120.18L123.75 121.86L123.63 122.7V123.54L123.51 124.5V124.62L123.15 126.18L123.03 128.82C123.03 128.94 123.03 129.06 122.91 129.18L122.67 129.9V130.5L122.79 131.34C122.79 131.46 122.79 131.58 122.79 131.82L122.55 132.66V133.38V135.06L122.67 135.9C122.67 136.02 122.67 136.02 122.67 136.14L122.55 136.98V137.82V137.94V138.9V139.02L122.43 139.74L122.55 141.42C122.55 141.54 122.55 141.66 122.55 141.66L122.43 142.5L122.55 145.02V146.82L122.67 147.66C122.67 147.78 122.67 147.78 122.67 147.9V148.86C122.67 148.98 122.67 148.98 122.67 149.1L122.55 149.82L122.67 150.54C122.67 150.66 122.67 150.66 122.67 150.78V151.74V152.58V153.42L122.79 154.26C122.79 154.38 122.79 154.5 122.79 154.5L122.67 156.06L122.79 156.9V157.02V157.98C122.79 158.1 122.79 158.1 122.79 158.22L122.67 159.06V160.62L122.79 161.46C122.79 161.58 122.79 161.7 122.79 161.82L122.67 163.5L122.79 164.34C122.79 164.46 122.79 164.58 122.79 164.7L122.67 165.42L122.79 166.14V166.26V168.18V169.02L122.31 170.22Z" fill="black"/>
<path d="M165.15 167.1H164.31L163.35 167.22H162.39H161.55L160.59 166.98H159.75L158.79 167.1H157.95L156.99 166.98L156.15 167.22L155.19 167.1L154.35 166.98L153.39 167.1H152.55L151.59 166.98L150.75 167.22L149.79 166.98L148.95 167.1H147.99H147.03L146.19 167.22L145.23 167.1L144.39 166.98H143.43L142.59 167.1L141.63 166.98H140.79L139.83 167.1H138.99H138.03H137.07L136.23 166.98L135.27 167.1L134.43 166.98H133.47L132.63 167.1H131.67H130.83L129.87 167.22L128.91 166.98L128.07 167.1L127.11 166.98L126.27 167.1L125.31 167.22L124.47 166.98H123.51L122.55 167.1L121.71 166.98L120.75 167.1L119.91 166.98H118.95L117.99 167.1H117.15H116.19L115.23 166.98L115.35 167.94L115.11 168.9L114.99 169.74L115.11 170.7L114.99 171.66V172.5L114.63 173.46V174.3L114.75 175.26L114.51 176.1V177.06V177.9L114.27 178.86L114.39 179.7L114.27 180.66L114.15 181.62L114.03 182.46L113.91 183.42V184.26V185.22L113.79 186.18L113.67 187.02V187.98V188.82L113.55 189.78L113.31 190.62V191.58L113.43 192.54L113.07 193.38V194.34L112.95 195.18L113.07 196.14L112.95 196.98L112.71 197.94L112.83 198.9L112.59 199.74L112.71 200.7L112.59 201.54V202.5L112.35 203.46V204.3L112.23 205.26L112.11 206.1V207.06V208.02L111.87 208.86L111.99 209.82L111.75 210.66V211.62L111.63 212.58L111.51 213.42V214.38L111.39 215.22L111.51 216.18L111.27 217.14V217.98L111.15 219.06L112.11 218.94L112.95 218.82H113.91L114.75 219.06L115.71 218.82L116.55 219.06L117.51 218.82H118.47L119.31 218.94L120.27 219.06L121.11 218.94L122.07 219.06H122.91L123.87 218.94L124.71 218.82L125.67 218.94H126.51L127.47 219.06L128.31 218.82L129.27 219.06L130.11 218.94L131.07 219.06L131.91 218.82H132.87H133.71L134.67 219.06H135.51L136.47 218.94H137.43H138.27H139.23L140.07 218.82L141.03 218.94L141.87 219.06H142.83H143.67L144.63 218.94L145.47 219.06L146.43 218.94H147.39L148.23 218.82H149.19L150.03 219.06H150.99L151.83 218.94L152.79 219.06H153.63L154.59 218.94L155.43 218.82L156.39 218.94H157.35H158.19L159.15 218.82L159.99 218.94L160.95 219.06L161.79 218.82L162.75 218.94L163.71 218.82L164.55 218.94L165.51 218.82H166.35L167.31 218.94H168.27H169.11L169.23 217.98L168.99 217.14L168.87 216.18L168.99 215.34L168.87 214.38L168.63 213.54V212.58V211.74V210.78L168.51 209.94L168.27 208.98V208.14L168.15 207.18L168.03 206.22L168.15 205.38V204.42L167.91 203.58L167.79 202.62L167.91 201.66L167.79 200.82V199.86L167.55 199.02L167.67 198.06L167.55 197.22V196.26L167.31 195.3L167.19 194.46L167.31 193.5L167.07 192.66V191.7L166.95 190.86V189.9L166.71 188.94V188.1L166.59 187.14V186.3L166.47 185.34L166.59 184.38L166.35 183.54V182.58V181.74L166.23 180.78L166.11 179.82L165.99 178.98L166.11 178.02L165.87 177.18L165.99 176.22L165.75 175.38V174.42L165.63 173.46V172.62L165.39 171.66V170.7L165.27 169.86L165.39 168.9L165.27 167.94L165.15 167.1Z" fill="#3D4232" fill-opacity="0.54"/>
<path d="M114.63 182.7H115.47L116.43 182.58L117.27 182.82L118.11 182.58H119.07H119.91L120.87 182.7H121.71H122.67L123.51 182.58L124.47 182.7L125.31 182.58L126.27 182.7H127.11H128.07L128.91 182.46L129.87 182.58H130.71L131.67 182.7L132.51 182.82L133.47 182.58H134.31H135.27H136.11L136.95 182.7L137.91 182.58H138.75H139.71L140.67 182.7L141.51 182.58H142.47H143.31L144.27 182.7H145.11H146.07L146.91 182.58L147.87 182.7H148.71L149.67 182.58H150.51H151.47L152.31 182.7H153.27H154.11L155.07 182.82L155.91 182.58L156.87 182.7L157.71 182.46L158.67 182.7L159.51 182.58L160.47 182.7H161.31H162.27H163.11L164.07 182.58H165.03L165.87 182.7" fill="white"/>
<path d="M117.27 184.02L116.31 183.78L115.59 183.9H114.51L114.63 181.5H115.35L116.43 181.26L117.27 181.5L118.11 181.26L119.07 181.38L120.03 181.26L120.99 181.5H121.71H122.55L123.51 181.38L124.35 181.5L125.31 181.38L126.27 181.5H127.11H127.95L128.79 181.26L132.51 181.62L133.47 181.38H136.11L136.95 181.5L138.75 181.38H139.95L140.67 181.5L141.51 181.38H142.35L144.27 181.5H145.95L146.91 181.38L147.87 181.5H148.59L149.55 181.38H150.51H151.47L153.27 181.5H154.11H154.95L155.91 181.38L156.75 181.5L157.71 181.26L158.67 181.5L159.51 181.38L160.47 181.5H162.27H163.11L165.03 181.38L166.11 181.62L165.63 183.9L164.91 183.78L163.23 183.9H162.15H160.47L159.51 183.78L158.55 183.9L157.71 183.78L156.87 183.9L156.03 183.78L155.07 184.02L154.11 183.9H153.15L151.35 183.78H150.63H149.67L148.83 184.02L147.63 183.9L146.91 183.78L146.07 183.9H144.15L142.35 183.78H141.63L140.55 183.9L139.59 183.78H138.75L137.07 183.9L136.11 183.78H133.47L132.63 184.02L129.03 183.78L128.07 183.9H127.11H126.15L125.31 183.78L124.47 183.9L123.51 183.78L122.67 183.9H121.71L120.75 184.02L119.91 183.78L119.07 183.9L118.23 183.78L117.27 184.02Z" fill="#5D5FEF"/>
<path d="M157.95 196.86L156.63 196.62L155.55 196.26L154.59 195.3L153.99 194.34L153.63 193.26L153.51 192.42V191.1L154.11 190.14L154.59 188.94L156.87 187.86L157.95 187.74L160.11 188.34L161.79 189.9L162.27 191.1L162.39 192.3V193.62L161.07 195.42L160.23 196.38L159.03 196.62L157.95 196.86ZM157.35 194.34L157.83 194.46L159.03 194.1L159.27 193.74L159.99 192.66V192.18V191.58L159.87 191.22L159.03 190.38L157.95 190.02L157.59 190.14L156.51 190.62L156.27 191.22L156.03 191.7L156.15 192.78L156.39 193.38L156.75 193.86L157.11 194.22L157.35 194.34Z" fill="#EF5DA8"/>
<path d="M158.07 208.5L156.63 208.14L155.55 207.66L154.59 206.82L153.87 205.74L153.63 204.9L153.39 203.82L153.51 202.5L153.87 201.3L155.55 199.98L156.75 199.26L158.19 199.38L159.15 199.5L160.23 199.74L161.31 200.58L162.03 201.54L162.51 202.62L162.75 203.82L162.39 204.9L162.15 206.1L161.19 206.94L160.35 207.9L159.15 208.14L158.07 208.5ZM157.35 205.98L157.83 206.1L158.55 205.86L159.03 205.74L159.87 205.02L159.99 204.42L160.23 203.82L160.11 203.34L159.87 202.86L159.51 202.38L159.15 202.02L158.55 201.9L157.35 201.78L156.99 202.02L156.03 202.86L155.91 203.22V203.82L156.15 205.02L156.39 205.38L156.87 205.74L157.35 205.98Z" fill="#5D5FEF"/>
<path d="M207.15 212.46H207.99H208.95L209.91 212.34L210.75 212.46L211.71 212.34L212.55 212.46L213.51 212.58L214.47 212.46H215.31H216.27H217.11H218.07L219.03 212.34H219.87L220.83 212.46H221.79H222.63H223.59H224.55L225.39 212.58L226.35 212.34L227.31 212.46H228.15L229.11 212.34L230.07 212.58L230.91 212.46L231.75 212.22L232.71 212.34L233.67 212.22L234.51 211.98L235.35 211.74L236.19 211.38L237.15 211.26L237.99 211.02L238.71 210.54L239.67 210.3L240.39 209.82L241.23 209.46L241.95 208.98L242.79 208.5L243.51 208.02L244.23 207.54L244.95 207.06L245.67 206.46L246.39 205.98L247.11 205.26L247.71 204.66L248.19 203.94L248.91 203.34L249.39 202.5L249.87 201.78L250.47 201.06L251.07 200.34L251.43 199.62L251.91 198.78L252.27 198.06L252.63 197.22L253.11 196.38L253.35 195.54L253.71 194.7L253.95 193.86L254.19 192.9L254.31 192.06L254.43 191.22L254.67 190.26V189.42V188.46L254.91 187.62V186.66H254.79L254.91 185.82V184.86L254.67 184.02V183.06L254.55 182.22L254.31 181.38L254.07 180.42L253.83 179.58L253.71 178.74L253.23 177.9L253.11 177.06L252.63 176.22L252.39 175.38L251.79 174.66L251.55 173.82L251.07 172.98L250.59 172.26L249.99 171.54L249.27 170.94L248.79 170.22L248.19 169.5L247.59 168.9L246.99 168.18L246.27 167.58L245.55 167.1L245.07 166.38L244.35 165.78L243.51 165.3L242.79 164.82L242.07 164.34L241.23 163.86L240.39 163.5L239.55 163.26L238.83 162.78L237.99 162.42L237.03 162.18L236.19 161.94L235.35 161.7L234.51 161.46L233.55 161.34L232.71 161.22L231.87 160.98L230.91 160.86L230.07 160.98H229.11L228.15 160.86H227.31H226.35H225.51L224.55 160.98H223.59H222.75H221.79H220.83H219.99H219.03H218.19L217.23 161.1L216.27 160.98L215.43 161.1L214.47 160.98L213.51 161.1L212.67 160.86H211.71L210.75 160.98L209.91 160.86H208.95H207.99H207.15L206.19 160.98L205.35 161.1H204.39L203.55 161.22L202.59 161.46L201.75 161.58L200.91 161.7L199.95 161.94L199.11 162.18L198.27 162.42L197.43 162.78L196.71 163.26L195.75 163.5L195.03 163.86L194.31 164.46L193.47 164.82L192.63 165.3L191.91 165.78L191.19 166.38L190.59 166.98L189.75 167.46L189.15 168.18L188.55 168.78L187.95 169.5L187.23 170.1L186.87 170.94L186.39 171.66L185.79 172.38L185.31 173.1L184.83 173.82L184.35 174.54L183.99 175.38L183.63 176.22L183.15 177.06L182.91 177.9L182.55 178.74L182.43 179.58L181.95 180.42L181.83 181.26L181.71 182.22L181.59 183.06V184.02L181.35 184.86V185.82V186.66V187.62V188.46L181.59 189.42L181.47 190.26L181.71 191.22L181.83 192.06L182.07 192.9L182.31 193.86L182.67 194.58L182.91 195.54L183.15 196.38L183.63 197.22L184.11 197.94L184.47 198.78L184.71 199.62L185.19 200.34L185.67 201.18L186.27 201.9L186.87 202.5L187.35 203.22L188.07 203.94L188.67 204.54L189.15 205.26L189.87 205.86L190.59 206.34L191.19 207.06L191.91 207.66L192.75 208.02L193.35 208.62L194.31 208.98L195.03 209.46L195.87 209.82L196.59 210.18L197.43 210.54L198.27 210.9L199.11 211.14L200.07 211.38L200.79 211.86L201.75 211.98L202.59 212.1L203.55 212.22L204.39 212.34H205.35H206.19L207.15 212.46Z" fill="#E6E6E3"/>
<path d="M245.31 153.06H244.47H243.63L242.67 153.18L241.83 153.42L240.99 153.78L240.15 154.14L239.31 154.38L238.59 154.98L237.75 155.34L237.03 155.94L236.31 156.42L235.59 157.02L235.11 157.74L234.39 158.34L233.91 159.06L233.31 159.78L233.07 160.74L232.71 161.58L232.35 162.3L232.11 163.26L231.99 164.1L231.75 164.94L231.63 165.9V166.86L232.59 166.74H233.43H234.39L235.23 166.86L236.19 166.74H237.15L237.99 166.86L238.95 166.74L239.91 166.86L240.75 166.74L241.71 166.86H242.67L243.51 166.74H244.47H245.31V165.9L245.43 164.94L245.55 163.98V163.14L245.31 162.18L245.55 161.22L245.31 160.38V159.42L245.43 158.58L245.55 157.62L245.31 156.66L245.55 155.82L245.31 154.86L245.43 153.9L245.31 153.06Z" fill="#E6E6E3"/>
<path d="M245.07 194.1H246.03H246.87L247.71 194.22H248.55H249.51L250.35 193.98L251.19 194.22H252.15L252.99 194.1L253.83 194.22H254.67H255.63L256.47 193.98L257.31 193.74L258.03 193.38L258.63 192.66L259.11 191.94L259.47 191.22L259.59 190.26L259.47 189.42V188.46V187.5L259.35 186.54L259.47 185.58V184.74L259.35 183.78L259.11 182.94L258.63 182.34L258.03 181.74L257.31 181.14L256.47 180.9H255.63L254.79 180.78L253.83 180.9L252.99 180.78L252.15 181.02L251.19 180.9H250.35H249.51H248.67H247.71L246.87 180.78H246.03H245.07L244.35 181.02L243.39 181.14L242.79 181.74L242.07 182.22L241.59 182.94L241.35 183.78L241.23 184.74L241.35 185.58V186.54L241.47 187.5L241.23 188.46V189.3V190.26L241.47 191.1L241.71 191.94L242.19 192.66L242.79 193.26L243.51 193.74L244.23 193.98L245.07 194.1Z" fill="#E6E6E3"/>
<path d="M238.95 177.78L239.07 178.86L239.55 179.7L240.27 180.3L241.11 180.9L242.07 181.02L243.03 180.9L243.87 180.42L244.59 179.7L244.95 178.74L245.07 177.78V176.82L244.47 176.1L243.87 175.26L243.03 175.02L242.07 174.78H240.99L240.15 175.26L239.43 175.98L238.95 176.82V177.78Z" fill="#FFE710"/>
<path d="M242.07 181.98L240.75 181.74L239.79 181.02L238.83 180.06L238.23 179.1L238.11 177.9V176.7L238.83 175.5L239.67 174.66L240.75 173.94H242.07L244.35 174.54L245.91 176.58V178.02L245.67 179.1L245.31 180.18L244.35 181.26L243.27 181.86L242.07 181.98ZM241.35 180.06L241.95 180.18L242.67 180.06L243.27 179.7L243.75 179.22L243.99 178.5L244.11 177.66V177.06L243.27 175.98L241.83 175.62H241.23L240.63 175.98L240.03 176.46L239.67 177.06V177.78V178.5L240.03 179.1L240.63 179.7L241.35 180.06Z" fill="#4E7A47"/>
<path d="M229.95 218.7L230.91 218.82L231.75 218.7H232.59L233.55 218.82L234.39 218.7H235.35L236.19 218.46L237.03 217.86L237.63 217.26L238.11 216.42L238.47 215.58L238.59 214.74L238.47 213.78L238.59 212.94L238.47 211.98L238.59 211.14V210.18L238.35 209.34L238.11 208.38L237.63 207.66L236.91 207.18L236.19 206.46L235.35 206.22H234.39H233.55L232.71 206.1H231.75L230.91 205.98L229.95 206.1L229.11 206.34L228.15 206.46L227.43 206.94L226.71 207.66L226.35 208.5L225.87 209.34L225.99 210.18L225.87 211.14V211.98L225.75 212.94V213.78L225.99 214.74V215.58L226.35 216.42L226.71 217.26L227.43 217.98L228.27 218.34L229.11 218.58L229.95 218.7Z" fill="#C4C433"/>
<path d="M202.47 218.7L203.31 218.82L204.15 218.94L205.11 218.82L205.95 218.7H206.91L207.75 218.58L208.71 218.34L209.43 217.86L210.03 217.14L210.63 216.54L210.99 215.58L211.11 214.74L210.99 213.78L210.87 212.94L210.99 211.98V211.14V210.18L210.87 209.34L210.51 208.5L210.03 207.66L209.43 206.94L208.59 206.58L207.87 206.22H206.91L205.95 206.1L205.11 206.22L204.27 206.1H203.31H202.47L201.51 206.22L200.67 206.46L199.83 207.06L199.23 207.66L198.87 208.5L198.51 209.34L198.27 210.18L198.39 211.14L198.51 211.98V212.94L198.27 213.78V214.74L198.39 215.58L198.75 216.42L199.35 217.14L199.95 217.86L200.67 218.46L201.51 218.7H202.47Z" fill="#FFFF05"/>
<path d="M229.83 157.14L229.95 157.98L229.59 158.82V159.78L229.35 160.62L228.99 161.46L228.75 162.3L228.27 163.14L227.67 163.86L227.31 164.7L226.71 165.3L225.99 165.9L225.27 166.5L224.67 167.22L223.95 167.7L223.11 168.06L222.39 168.54L221.43 168.78L220.59 168.9L219.75 169.38H218.79L217.95 169.5H216.99L216.15 169.62L215.19 169.5L214.35 169.26L213.39 169.14L212.55 168.78L211.83 168.42L210.99 168.06L210.15 167.58L209.43 166.98L208.71 166.5L207.99 166.02L207.27 165.42L206.79 164.58L206.19 163.86L205.71 163.14L205.47 162.3L204.99 161.58L204.63 160.62V159.78L204.39 158.94L204.15 157.98V157.14V156.18L204.27 155.22L204.39 154.38L204.63 153.54L204.87 152.58L205.35 151.86L205.71 151.02L206.31 150.3L206.79 149.58L207.39 148.86L208.11 148.26L208.71 147.66L209.43 147.18L210.15 146.58L210.99 146.1L211.71 145.62L212.55 145.38L213.51 145.26L214.35 144.9L215.19 144.78H216.15L216.99 144.54L217.95 144.78H218.79L219.75 144.9L220.59 145.26L221.43 145.5L222.27 145.74L223.11 146.1L223.95 146.58L224.67 147.06L225.39 147.54L225.99 148.26L226.71 148.86L227.31 149.46L227.67 150.3L228.27 151.02L228.63 151.86L228.99 152.7L229.35 153.54L229.71 154.38V155.34V156.18L229.83 157.14Z" fill="#FFCD2C"/>
<path d="M217.95 148.74H218.43L219.03 148.98C219.27 149.1 219.39 149.1 219.63 149.1H220.23L220.59 149.22L221.19 149.7L221.31 149.82L222.03 150.18L222.63 150.66C222.63 150.66 222.75 150.66 222.75 150.78L223.23 151.14L223.59 151.62L224.07 152.34C224.19 152.46 224.19 152.58 224.31 152.58L224.79 153.06L225.03 153.42L225.27 154.14L225.51 154.98V155.1L225.75 155.7V156.3C225.75 156.3 225.75 156.3 225.75 156.42V157.26V157.98L225.63 158.7L225.39 159.3C225.39 159.42 225.39 159.42 225.39 159.54V160.02L225.15 160.5C225.15 160.5 225.15 160.62 225.03 160.62L224.67 161.34L224.31 161.94L223.83 162.54L223.23 163.14L223.11 163.26L222.75 163.62L222.27 163.86C222.15 163.98 222.03 163.98 221.91 164.1L221.31 164.58L220.83 164.82L220.23 165.06L219.51 165.18L218.67 165.3L217.95 165.42H217.11C217.11 165.42 217.11 165.42 216.99 165.42H216.27H215.79L215.19 165.18C215.07 165.06 214.83 165.06 214.59 165.06H214.11L213.75 164.82C213.63 164.7 213.39 164.7 213.27 164.58L212.79 164.46L212.43 164.1C212.31 163.98 212.31 163.98 212.19 163.98L211.47 163.5L210.87 163.14L210.51 162.66L210.03 161.94C209.91 161.82 209.91 161.7 209.79 161.7L209.43 161.34L209.19 160.86L208.95 160.02V159.9L208.59 159.18L208.47 158.7V158.1V157.98V157.14C208.47 157.02 208.47 157.02 208.47 156.9L208.35 156.3L208.47 155.82L208.71 154.98C208.71 154.86 208.71 154.86 208.71 154.74L208.83 154.14L209.07 153.66C209.07 153.54 209.19 153.54 209.19 153.42L209.43 152.82L209.79 152.34C209.79 152.34 209.79 152.34 209.91 152.22L210.27 151.62L210.75 151.26L211.47 150.78C211.47 150.78 211.59 150.78 211.59 150.66L212.07 150.18L212.67 149.82C212.67 149.82 212.79 149.82 212.79 149.7L213.39 149.34L213.99 149.22C214.11 149.22 214.23 149.1 214.35 149.1L214.83 148.86H215.31C215.43 148.86 215.55 148.86 215.67 148.86L216.27 148.74H216.87H216.99C217.11 148.74 217.11 148.74 217.23 148.74H217.95ZM217.95 146.94L216.99 147.06L216.03 146.94L215.19 147.18H214.23L213.39 147.54L212.55 147.78L211.83 148.26L210.99 148.62L210.27 149.22L209.55 149.7L208.83 150.3L208.35 151.02L207.75 151.74L207.39 152.58L206.91 153.42L206.79 154.38L206.55 155.22L206.31 156.06L206.43 157.02V157.86V158.82L206.67 159.66L207.03 160.5L207.27 161.34L207.63 162.18L208.23 162.78L208.71 163.5L209.31 164.22L210.03 164.7L210.75 165.18L211.47 165.78L212.31 166.02L213.03 166.5L213.99 166.62L214.83 166.98L215.79 167.1L216.75 166.98H217.71L218.55 166.86L219.39 166.62L220.23 166.38L221.07 166.02L221.91 165.54L222.63 164.94L223.47 164.58L224.07 163.86L224.67 163.26L225.27 162.54L225.75 161.82L226.11 160.98L226.59 160.26L226.71 159.3L226.95 158.46L227.07 157.62V156.78V155.94V154.98L226.71 154.14L226.47 153.3L226.23 152.46L225.87 151.62L225.15 151.02L224.67 150.3L224.07 149.58L223.35 149.1L222.63 148.62L221.79 148.14L221.07 147.66L220.23 147.3H219.27L218.43 146.94H217.95Z" fill="white"/>
<path d="M216.75 161.7L215.91 161.46L215.07 161.22L214.35 160.86L213.75 160.26L213.51 159.42L213.39 158.7L213.99 158.58H214.71L214.95 159.3L215.31 159.9L215.91 160.5L216.63 160.62L216.75 159.78L216.63 158.94V158.1V157.26L216.75 157.14L215.91 157.02L215.07 156.66L214.35 156.18L213.99 155.34L213.75 154.5V153.54L214.35 152.82L215.07 152.34L215.91 151.86H216.87L216.75 150.9H217.59V151.98L218.43 152.1L219.27 152.58L219.87 153.3L220.11 154.14L220.35 155.1L219.63 154.98H218.91L218.55 154.26L218.07 153.54L217.35 153.3L217.23 154.26V155.22L217.35 156.18L218.31 156.42L219.15 156.9L219.99 157.38L220.47 158.22V159.18V160.14L219.75 160.74L219.15 161.34L218.31 161.7H217.35L217.47 162.9H216.63L216.75 161.7ZM216.75 155.94L216.87 154.98V154.02L216.75 153.06L216.03 153.3L215.31 153.66L214.95 154.38L215.31 155.1L215.91 155.58L216.75 155.94ZM219.27 159.18L219.15 158.34L218.43 157.86L217.59 157.62L217.71 158.7L217.59 159.78V160.86L218.55 160.62L219.27 160.14V159.18Z" fill="#2E2A2A"/>
<path d="M181.35 187.5H180.39L179.43 187.74L178.59 188.22L177.75 188.7L177.15 189.42L176.55 190.14L176.43 190.98L176.31 191.82L176.67 192.66L177.15 193.26L177.99 193.5L178.83 193.26L179.19 192.54L179.43 191.7L179.31 190.74L179.19 189.9L178.83 189.18L178.23 188.46L177.51 187.98L176.79 187.38L175.95 187.14L175.11 186.9L174.27 186.54" fill="white"/>
<path d="M177.87 194.46L176.55 193.98L175.71 192.9L175.23 191.82L175.59 189.66L176.67 188.46L176.31 188.22L174.75 187.74L173.91 187.38L174.63 185.7L175.35 186.06L177.15 186.54L178.11 187.26L178.95 186.9L180.15 186.42H181.23V188.22H180.39L179.43 188.58L179.91 189.42L180.15 191.58L179.79 192.78L179.19 193.98L177.87 194.46ZM177.75 192.54L177.99 192.66H178.23L178.35 192.3L178.47 191.7L178.35 190.38L178.11 189.9L177.39 190.5L177.27 191.7L177.51 192.18L177.75 192.54Z" fill="#ABABAB"/>
<path d="M229.35 166.74L228.51 166.86H227.55H226.71L225.75 166.74L224.79 166.86L223.95 166.74L222.99 166.86H222.03H221.19H220.23L219.39 166.74H218.43H217.47H216.63H215.67L214.83 166.86L213.87 166.74L212.91 166.86H212.07L211.11 166.74L210.15 166.86L209.31 166.74L208.35 166.86L207.39 166.74H206.55L205.59 166.86L204.63 166.62" fill="white"/>
<path d="M205.47 167.82L204.39 167.58L204.87 165.78L205.59 166.02L207.51 165.78L208.35 165.9H209.31H210.15L211.11 165.78L212.19 165.9L212.91 166.02L213.87 165.9H214.83L216.51 165.78H217.59H219.39L220.35 165.9L221.19 166.02L222.03 165.9H222.99L223.95 165.78L224.91 165.9L225.75 165.78L226.71 166.02L227.55 165.9L228.39 166.02L229.23 165.78L229.59 167.58L228.51 167.82L227.55 167.7L226.59 167.82L225.75 167.7L224.79 167.82L223.95 167.58L223.11 167.7H222.03H221.19H220.11L219.27 167.58H217.47H216.63L214.83 167.7H213.87L213.03 167.82L211.95 167.7L211.11 167.58L210.27 167.82L209.31 167.7H208.35L207.39 167.58L205.47 167.82Z" fill="#ABABAB"/>
<path d="M2.67004 218.7L3.63004 218.82H4.47004H5.43004L6.27004 218.7H7.23004L8.07004 218.94L9.03004 218.82H9.87004H10.83L11.79 218.7L12.63 218.82L13.5901 218.7H14.4301L15.3901 218.94L16.2301 218.82L17.1901 218.7L18.0301 218.82L18.9901 218.94L19.8301 218.7L20.7901 218.94L21.6301 218.7L22.5901 218.82H23.5501H24.3901L25.3501 218.7L26.1901 218.82H27.1501L27.9901 218.7L28.9501 218.94H29.7901L30.7501 218.82H31.5901H32.5501H33.3901H34.3501L35.3101 218.7L36.1501 218.94L37.1101 218.7L37.9501 218.94L38.9101 218.7L39.7501 218.94L40.7101 218.7L41.5501 218.82H42.5101H43.3501H44.3101L45.2701 218.94L46.1101 218.82H47.0701L47.9101 218.7L48.8701 218.94H49.7101L50.6701 218.7L51.5101 218.94H52.4701L53.4301 218.82H54.2701H55.2301L56.0701 218.7L57.0301 218.82L57.8701 218.7L58.8301 218.94L59.6701 218.82L60.6301 218.7L61.5901 218.94L62.4301 218.7L63.3901 218.82L64.2301 218.7L65.1901 218.82L66.0301 218.94H66.9901H67.8301L68.7901 218.82L69.6301 218.94L70.5901 218.7L71.5501 218.94L72.3901 218.82H73.3501L74.1901 218.94L75.1501 218.82L75.9901 218.94L76.9501 218.82L77.7901 218.7L78.7501 218.94H79.5901L80.5501 218.7L81.5101 218.94L82.3501 218.7L83.3101 218.82L84.1501 218.7L85.1101 218.94L85.9501 218.82L86.9101 218.94L87.7501 218.82H88.7101L89.5501 218.7L90.5101 218.82H91.4701H92.3101L93.2701 218.7H94.1101L95.0701 218.82L95.9101 218.94H96.8701L97.7101 218.82H98.6701H99.6301H100.47H101.43L102.27 218.7H103.23H104.07L105.03 218.94L105.87 218.7H106.83L107.67 218.82L108.63 218.94H109.59H110.43L111.39 218.82L112.23 218.94H113.19L114.03 218.82H114.99L115.83 218.7L116.79 218.82L117.63 218.94L118.59 218.82L119.43 218.94L120.39 218.7L121.23 218.82L122.19 218.7L123.03 218.94L123.99 218.82L124.83 218.94L125.79 218.82H126.63H127.59H128.43L129.39 218.7L130.23 218.94L131.19 218.7L132.03 218.82L132.99 218.7H133.83H134.79L135.63 218.82H136.59L137.55 218.7L138.39 218.82L139.35 218.94L140.19 218.7L141.15 218.82L141.99 218.94L142.95 218.7L143.79 218.82H144.75L145.59 218.7L146.55 218.94L147.39 218.7L148.35 218.82H149.19L150.15 218.7L151.11 218.82L151.95 218.94H152.91L153.75 218.82L154.71 218.94L155.55 218.82H156.51H157.35H158.31L159.27 218.7L160.11 218.94L161.07 218.82H161.91H162.87L163.71 218.7L164.67 218.82H165.63L166.47 218.7L167.43 218.94L168.27 218.7L169.23 218.94L170.07 218.82L171.03 218.7L171.87 218.82H172.83H173.67L174.63 218.94L175.59 218.7L176.43 218.94L177.39 218.82H178.23L179.19 218.7H180.03L180.99 218.94L181.83 218.7L182.79 218.82L183.63 218.94L184.59 218.82H185.55L186.39 218.7L187.35 218.94L188.19 218.82L189.15 218.7L189.99 218.82H190.95L191.91 218.7L192.75 218.94L193.71 218.7H194.55L195.51 218.82H196.35L197.31 218.94L198.27 218.82L199.11 218.7H200.07L200.91 218.82L201.87 218.7H202.71L203.67 218.82L204.63 218.94H205.47L206.43 218.7L207.27 218.94H208.23H209.07L210.03 218.7H210.87L211.83 218.94L212.79 218.7L213.63 218.94L214.59 218.7H215.43H216.39L217.23 218.82H218.19H219.15L219.99 218.94L220.95 218.82H221.79L222.75 218.94L223.71 218.7L224.55 218.94L225.51 218.82L226.35 218.94H227.31L228.15 218.82L229.11 218.94L230.07 218.7L230.91 218.82H231.87L232.71 218.94L233.67 218.82L234.51 218.7H235.47L236.43 218.94L237.27 218.7L238.23 218.94L239.07 218.7H240.03L240.99 218.82L241.83 218.94L242.79 218.82L243.63 218.94H244.59L245.43 218.82L246.39 218.7L247.35 218.82H248.19H249.15L249.99 218.7L250.95 218.82H251.79L252.75 218.94L253.71 218.7H254.55H255.51L256.35 218.94L257.31 218.82H258.15H259.11H259.95H260.91L261.87 218.7H262.71L263.67 218.82L264.51 218.94L265.47 218.82L266.43 218.7L267.27 218.94L268.23 218.82H269.07L270.03 218.7H270.99L271.83 218.94H272.79L273.63 218.82L274.59 218.94H275.55L276.39 218.82L277.35 218.7L278.19 218.82H279.15H280.11L280.95 218.7L281.91 218.82L282.75 218.94L283.71 218.7L284.67 218.82L285.51 218.7L286.47 218.82L287.31 218.7H288.27H289.23L290.07 218.82H291.03L291.99 218.94L292.83 218.7H293.79L294.63 218.94L295.59 218.82L296.55 218.7L297.39 218.82L298.35 218.94L299.31 218.82" fill="white"/>
<path d="M236.43 220.38L235.35 220.14H234.63L232.71 220.38L231.75 220.26H230.79L229.95 220.14L229.11 220.38L228.15 220.26L227.31 220.38L225.51 220.26L224.43 220.38L223.59 220.14L222.75 220.26L221.79 220.14L219.99 220.26L219.15 220.14H218.31H217.11L216.27 220.02H214.71L213.63 220.26L212.79 220.02L211.83 220.26L210.75 220.02H210.15L209.07 220.26H208.11H206.91L206.31 220.14L205.59 220.26L203.55 220.14L202.71 220.02L200.91 220.14L199.23 220.02L198.27 220.14H197.31L194.55 220.02H193.83L192.75 220.14L191.79 220.02L189.99 220.14L189.15 220.02L188.31 220.14H187.23L186.27 219.9H184.71L183.75 220.02L181.95 219.78L180.99 220.02L179.91 219.9H179.07L176.31 220.02L175.47 219.9L174.63 220.02L173.67 219.9H172.83H171.63L170.91 219.78L169.11 220.02L168.27 219.9L167.31 220.02L166.35 219.78L165.51 219.9H164.55L163.71 219.78L162.87 219.9H161.91H160.95L159.99 220.02L159.03 219.9L157.35 220.02H156.51L154.59 220.14L153.75 220.02L152.91 220.14L150.99 220.02L150.15 219.9L149.31 220.02L147.51 219.9L146.55 220.14L145.59 219.9L144.75 220.02L142.95 219.9L141.99 220.02L140.19 219.78L139.23 220.02L137.43 219.9L136.59 220.02H135.39L134.55 219.9H133.71H132.87L132.03 220.02H131.19L130.23 220.26L129.27 220.02L127.59 220.14H126.63H124.83L123.99 220.02L123.03 220.14L122.19 220.02L121.35 220.14L120.51 220.02L119.67 220.26L118.59 220.14H117.63L115.83 220.02H114.99H114.15L113.19 220.14H111.99L111.27 220.02L110.43 220.14H108.51L106.71 220.02H105.99L104.91 220.14L103.83 219.9H102.99L101.19 220.02L100.23 219.9H97.5901L96.6301 220.02L93.0301 219.78L92.1901 219.9H91.1101H90.1501L89.3101 219.78L88.4701 219.9L87.5101 219.78L86.6701 219.9L85.7101 219.78L84.6301 219.9L83.7901 219.66L82.9501 219.78L82.1101 219.66L81.1501 219.9L80.1901 219.66L79.4701 219.78H78.2701L77.4301 219.66H76.7101L75.7501 219.78L74.7901 219.66L73.8301 219.78L72.8701 219.66H72.0301L71.0701 219.78L70.2301 219.54L69.3901 219.78L68.4301 219.66L67.5901 219.78L64.7101 219.66L63.8701 219.54H63.0301H62.1901L61.1101 219.66L60.1501 219.54L59.3101 219.66H58.2301L57.3901 219.42L56.5501 219.54H55.5901H53.9101H53.0701L52.1101 219.66H50.9101L50.1901 219.54L49.3501 219.66H48.2701L47.4301 219.42L44.7901 219.66L42.9901 219.54H40.4701L39.5101 219.78L38.5501 219.54L37.5901 219.66L36.7501 219.54L35.9101 219.78L34.9501 219.54L28.5901 219.78L27.7501 219.54L27.0301 219.66H25.1101L22.3501 219.78L21.5101 219.66L20.5501 219.9L19.5901 219.66L18.7501 219.9L16.8301 219.78L14.9101 220.02L13.9501 219.78L12.2701 219.9L11.7901 220.14L10.1101 220.26H9.15009L8.07009 220.38L6.99009 220.02H6.27009L4.47009 220.14L2.55009 220.02C1.83008 219.9 1.23008 219.3 1.35008 218.58C1.47008 217.86 2.07008 217.26 2.79009 217.38L4.47009 217.5L6.27009 217.38L7.59009 217.5L8.31009 217.62L9.03009 217.5H9.99009L11.7901 217.38L12.7501 217.5L14.6701 217.38L15.5101 217.62L17.3101 217.5L18.9901 217.62L20.0701 217.38L21.0301 217.62L21.8701 217.38L22.8301 217.5L23.5501 217.38H25.4701H27.2701L28.3501 217.26L29.3101 217.5L35.5501 217.26L36.3901 217.38L37.3501 217.14L38.3101 217.38L39.2701 217.26L40.1101 217.38L40.9501 217.14L45.6301 217.38L48.3901 217.14L49.3501 217.38H49.9501L51.0301 217.14L52.1101 217.38H52.8301L53.6701 217.26H54.6301H56.4301H57.3901L58.4701 217.14L59.4301 217.38H60.0301L61.1101 217.26L61.9501 217.38L62.7901 217.26H63.8701H64.8301L66.7501 217.38H68.3101L69.2701 217.26L70.1101 217.38L71.0701 217.14L72.0301 217.38L72.7501 217.26H73.8301L74.6701 217.38L75.5101 217.26H76.3501L77.3101 217.14H78.2701L79.2301 217.26H79.8301L80.9101 217.02L81.7501 217.26L82.5901 217.02L83.5501 217.14L84.5101 217.02L85.4701 217.26L86.3101 217.14L87.1501 217.26L88.1101 217.14L89.0701 217.26L90.0301 217.14L90.9901 217.26H91.8301H92.6701L93.6301 217.14L97.2301 217.38L98.1901 217.26H100.95L101.79 217.38L103.59 217.26H104.79L105.51 217.38L106.35 217.26H107.31L109.11 217.38H110.79L111.87 217.26L112.83 217.38H113.55L114.51 217.26H115.59H116.43L118.23 217.38H119.19H119.91L120.87 217.14L121.83 217.26L122.79 217.02L123.75 217.26L124.59 217.14L125.55 217.26H127.35H128.19L129.03 217.14L130.23 217.02L131.07 217.14L131.91 217.02H132.87L133.71 216.9H134.67H135.75L136.59 217.02H137.31L138.27 216.9H139.23L140.07 217.02L141.03 216.78L142.83 217.02L143.67 216.9L145.47 217.02L146.43 216.9L147.27 217.14L148.11 217.02L149.91 217.14L150.87 217.02L152.79 217.26H153.51L154.47 217.14L155.43 217.26L157.23 217.14H158.19L160.11 217.02L160.95 217.14L161.79 217.02L162.75 217.14H163.47L164.43 217.02L165.39 217.14H166.11L167.19 217.02L168.03 217.26L168.87 217.14L169.83 217.26L171.63 217.02L172.59 217.14H173.43H174.39L175.23 217.26L176.19 217.14L177.15 217.38L179.67 217.26H180.87L181.47 217.38L182.31 217.14L184.11 217.38L184.95 217.26H185.91H186.87L187.83 217.5H188.43L189.51 217.38L190.47 217.5L192.39 217.38L193.23 217.5L194.07 217.38H195.03L197.79 217.5H198.51L199.47 217.38L201.39 217.5L203.31 217.38L205.23 217.62H205.83L206.91 217.38L207.99 217.62H208.71H209.43L210.51 217.38H211.59L212.31 217.5L213.27 217.26L214.23 217.5L215.07 217.38H216.99L217.95 217.5H218.79H219.75L220.71 217.62L222.51 217.5L223.35 217.62L224.31 217.38L225.27 217.62L226.11 217.5L227.91 217.62L228.87 217.5L229.71 217.62L230.67 217.38L231.75 217.5H232.71L233.55 217.62L235.35 217.38L236.67 217.5L237.27 217.62L238.11 217.38L239.07 217.62L239.91 217.5L241.95 217.62L242.79 217.74H243.63L244.59 217.86L246.27 217.74L247.23 217.62L248.19 217.74H249.75L250.71 217.62L251.67 217.74H252.51L253.35 217.86L254.31 217.74H255.27L256.35 217.86L257.07 217.98L258.75 217.86H259.71H260.67L261.51 217.98L262.35 217.86H263.43L264.39 217.98H265.23H266.07L267.15 217.86L268.11 217.98L268.95 217.86H269.91L270.87 217.74L272.07 217.86L272.91 217.98H273.63L274.59 217.86L275.55 217.98H276.27L277.11 217.86H278.31L279.27 217.98H280.11H280.95L281.91 217.86L282.99 217.98H283.59L284.55 217.74L285.51 217.86L286.35 217.74L287.31 217.86L289.11 217.74L290.91 217.86H291.87L292.59 217.98L293.43 217.86H294.75L295.47 217.98H296.19L297.15 217.86L299.19 218.1H300.03C300.75 218.1 301.35 218.7 301.35 219.42C301.35 220.14 300.75 220.74 300.03 220.74H298.95L297.27 220.5L296.31 220.62H295.23L294.27 220.5H293.67L292.59 220.74L291.51 220.5H290.67L288.87 220.38L287.07 220.5H286.23L285.27 220.62L284.43 220.5L283.59 220.62H282.51L281.67 220.5L280.83 220.62L279.87 220.5L278.91 220.62L277.95 220.5H277.11L276.15 220.62H275.07L274.23 220.5L273.39 220.62L272.19 220.5L271.35 220.38H270.63L269.79 220.5H268.83L267.75 220.62L266.79 220.5L265.95 220.62H264.99H263.91L262.95 220.5H262.35L261.39 220.62L260.43 220.5H259.59H258.75L257.91 220.62H256.83L255.87 220.5H255.15H254.43L253.47 220.74L252.51 220.62H251.55L250.71 220.5L249.87 220.62H247.71L246.99 220.5L246.27 220.62L244.23 220.74L243.39 220.62H242.43L239.91 220.38L238.95 220.62L238.11 220.38H236.43Z" fill="#ABABAB"/>
</g>
</g>
<defs>
<clipPath id="clip0_647_109">
<rect width="300" height="240" fill="white" transform="translate(0.990051 -7.5)"/>
</clipPath>
</defs>
</svg>
