<svg width="301" height="225" viewBox="0 0 301 225" fill="none" xmlns="http://www.w3.org/2000/svg">
<g clip-path="url(#clip0_647_36)">
<rect x="0.330017" width="300" height="225" rx="8" fill="white"/>
<g clip-path="url(#clip1_647_36)">
<g clip-path="url(#clip2_647_36)">
<path d="M83.4899 223.098H82.6499H81.6899L80.8499 222.976L79.8899 223.219L79.0499 223.098L78.0899 223.219L77.2499 222.976L76.2899 223.219L75.4499 222.976H74.4899H73.5299H72.6899L71.7299 223.219H70.8899H69.9299H69.0899L68.1299 223.098L67.2899 223.219H66.3299L65.3699 222.976H64.5299L63.5699 223.098H62.7299H61.7699H60.9299L59.9699 222.976L59.1299 223.219L58.1699 223.098L57.2099 222.976L56.3699 223.098H55.4099L54.5699 223.219L53.6099 222.976L52.7699 223.098H51.8099L50.8499 222.976H50.0099L49.0499 223.098L48.2099 223.219L47.2499 223.098H46.4099H45.4499H44.4899H43.6499H42.6899H41.8499H40.8899H39.9299H38.9699V222.124L39.0899 221.273L38.9699 220.301V219.449V218.476L39.0899 217.503L38.9699 216.651L39.0899 215.679V214.706L38.9699 213.733L39.9299 213.854H40.8899H41.7299H42.6899L43.5299 213.733H44.4899L45.3299 213.854L46.2899 213.733H47.1299L48.0899 213.611L49.0499 213.733L49.8899 213.854H50.8499H51.6899L52.6499 213.733H53.4899L54.4499 213.854H55.2899L56.2499 213.733H57.0899L58.0499 213.854L59.0099 213.976L59.8499 213.854L60.8099 213.733L61.6499 213.854H62.6099H63.4499H64.4099L65.3699 213.976L66.2099 213.733H67.1699H68.0099H68.9699L69.8099 213.854H70.7699L71.6099 213.733H72.5699L73.5299 213.854L74.3699 213.733L75.3299 213.854L76.1699 213.733L77.1299 213.976H78.0899L78.9299 213.854H79.8899L80.7299 213.733L81.6899 213.854L82.6499 213.733L83.4899 213.854L83.6099 214.706L83.4899 215.679V216.53L83.6099 217.503L83.3699 218.476L83.4899 219.327V220.301V221.273V222.124V223.098Z" fill="#FFCD2C"/>
<path d="M87.5699 213.733L86.6099 213.854L85.7699 213.733H84.8099H83.9699L83.0099 213.854H82.1699H81.2099H80.3699H79.4099H78.4499H77.6099L76.6499 213.733L75.8099 213.854H74.8499H74.0099L73.0499 213.611L72.2099 213.854H71.2499L70.4099 213.733L69.4499 213.854L68.4899 213.733L67.6499 213.854L66.6899 213.733H65.8499L64.8899 213.854H64.0499H63.0899H62.1299L61.2899 213.733H60.3299H59.4899L58.5299 213.854L57.6899 213.733L56.7299 213.976L55.8899 213.854H54.9299L53.9699 213.733L53.1299 213.854L52.1699 213.611L51.3299 213.854H50.3699L49.4099 213.733L48.5699 213.854L47.6099 213.733L46.7699 213.854H45.8099L44.8499 213.976L44.0099 213.733H43.1699L43.0499 212.881V211.908L43.1699 211.057L43.0499 210.084V209.111L42.9299 208.259V207.286L43.1699 206.314L43.0499 205.462V204.489H44.0099H44.8499H45.8099L46.6499 204.368L47.6099 204.489H48.4499L49.4099 204.368L50.2499 204.611L51.2099 204.489L52.0499 204.368L53.0099 204.611H53.9699L54.8099 204.489H55.7699L56.6099 204.368L57.5699 204.611L58.4099 204.489L59.3699 204.368L60.2099 204.611L61.1699 204.368L62.1299 204.489H62.9699H63.9299L64.7699 204.368L65.7299 204.489H66.5699H67.5299L68.4899 204.611H69.3299H70.2899L71.1299 204.368L72.0899 204.611L72.9299 204.368H73.8899L74.7299 204.489L75.6899 204.611L76.6499 204.489H77.4899H78.4499H79.2899L80.2499 204.611L81.0899 204.489L82.0499 204.611H83.0099L83.8499 204.489H84.8099L85.6499 204.368L86.6099 204.611L87.5699 204.368L87.6899 205.462L87.4499 206.314L87.5699 207.286L87.6899 208.259L87.4499 209.111V210.084L87.6899 210.936L87.4499 211.908L87.5699 212.881V213.733Z" fill="#FFCD2C"/>
<path d="M92.2499 204.489L91.41 204.368H90.57H89.61L88.77 204.611L87.81 204.489L86.85 204.368L86.01 204.489H85.05L84.21 204.368L83.25 204.611L82.41 204.489L81.45 204.368H80.61H79.65L78.81 204.489H77.85H76.89L76.05 204.368H75.09L74.25 204.489H73.29L72.45 204.611L71.49 204.489L70.65 204.611H69.69L68.73 204.368H67.89H66.93H66.09L65.13 204.489L64.29 204.611H63.33L62.37 204.368L61.53 204.611L60.57 204.368L59.73 204.611L58.77 204.489L57.93 204.368L56.97 204.489H56.01L55.17 204.368L54.21 204.489H53.37H52.41H51.57L50.61 204.368H49.65L48.81 204.611L47.85 204.489L47.97 203.516L47.85 202.666L47.97 201.692V200.719V199.868L47.73 198.895L47.85 197.922L47.97 197.071L47.85 196.098V195.246H48.69H49.65H50.49L51.45 195.124L52.41 195.246L53.25 195.003L54.21 195.246H55.05H56.01H56.85L57.81 195.124H58.65L59.61 195.246H60.45L61.41 195.124L62.37 195.246L63.21 195.124L64.17 195.246L65.01 195.003L65.97 195.124H66.81H67.77L68.61 195.246H69.57H70.53H71.37H72.33L73.17 195.124L74.13 195.246L74.97 195.003L75.93 195.246H76.89H77.73H78.69L79.53 195.124H80.49H81.33L82.29 195.246H83.13H84.09L85.05 195.124H85.89H86.85H87.69H88.65H89.61H90.45H91.41L92.2499 195.246V196.098V197.071L92.4904 197.922L92.3697 198.895V199.868V200.719V201.692V202.666L92.2499 203.516V204.489Z" fill="#FFCD2C"/>
<path d="M103.53 157.666L103.41 158.638V159.489L103.289 160.463L103.17 161.314L102.93 162.287L102.57 163.138L102.45 163.989L102.089 164.841L101.73 165.692L101.37 166.544L101.01 167.395L100.65 168.246L100.289 169.098L99.8102 169.827L99.2102 170.557L98.73 171.287L97.8895 171.895L97.4102 172.624L96.8102 173.233L96.0895 173.841L95.3697 174.449L94.6498 174.936L94.0498 175.666L93.0895 176.03L92.3696 176.395L91.5298 176.881L90.8098 177.368L89.9698 177.733L89.1298 178.219L88.2898 178.463L87.4498 178.706L86.4898 178.827L85.6498 179.192H84.8098L83.8498 179.436L83.0098 179.557H82.0498H81.2098L80.2498 179.436H79.4098L78.4498 179.314L77.6098 179.192L76.6498 179.071L75.8098 178.949L74.9698 178.706L74.0098 178.463L73.1698 178.219L72.3298 177.733L71.4898 177.489L70.7698 177.003L69.9298 176.638L69.2098 176.03L68.3698 175.544L67.5298 175.179L67.0498 174.327L66.2098 173.841L65.6098 173.233L64.8898 172.624L64.2898 172.016L63.6898 171.287L63.0898 170.557L62.7298 169.706L62.1298 168.976L61.7698 168.124L61.2898 167.395L60.9298 166.544L60.4498 165.814L60.2098 164.841L59.8498 164.111L59.6098 163.138L59.3698 162.287L59.2498 161.314L59.0098 160.463V159.489L58.8898 158.638L59.0098 157.666L58.8898 156.814V155.841L59.2498 154.989L59.3698 154.016V153.166L59.6098 152.192L59.9698 151.463L60.0898 150.489L60.4498 149.638L60.8098 148.787L61.2898 148.057L61.6498 147.206L62.2498 146.476L62.6098 145.503L63.0898 144.895L63.8098 144.166L64.1698 143.436L64.8898 142.706L65.6098 142.219L66.3298 141.611L66.9298 141.003L67.6498 140.395L68.3698 139.909L69.0898 139.301L69.9298 138.936L70.7698 138.449L71.4898 138.084L72.3298 137.719L73.1698 137.233L74.0098 136.868H74.9698L75.8098 136.503L76.6498 136.259H77.6098L78.4498 136.138L79.4098 135.895L80.2498 136.016L81.2098 135.773L82.0498 136.016H83.0098L83.8498 135.895L84.8098 136.138L85.6498 136.259L86.6098 136.503L87.4498 136.746L88.2898 136.989L89.1298 137.354L89.9698 137.598L90.8098 138.084L91.5298 138.571L92.4895 138.814L93.2102 139.301L93.93 139.787L94.7696 140.395L95.4895 140.881L96.2102 141.489L96.6895 142.219L97.4102 142.827L97.8895 143.557L98.6102 144.166L99.2102 144.895L99.5697 145.746L100.17 146.476L100.65 147.206L101.13 147.936L101.489 148.787L101.85 149.638L102.33 150.489L102.45 151.341L102.81 152.192V153.166L103.05 154.016L103.289 154.989V155.841L103.53 156.814V157.666Z" fill="#FFCD2C"/>
<path d="M81.53 190.666L81.4102 191.638V192.489L81.2895 193.462L81.1697 194.314L80.93 195.287L80.5696 196.138L80.4498 196.989L80.0895 197.841L79.73 198.692L79.3697 199.544L79.0102 200.394L78.6498 201.246L78.2895 202.098L77.8102 202.827L77.2102 203.557L76.73 204.287L75.8895 204.894L75.4102 205.624L74.8102 206.233L74.0895 206.841L73.3697 207.449L72.6498 207.936L72.0498 208.666L71.0895 209.03L70.3696 209.394L69.5298 209.881L68.8098 210.368L67.9698 210.733L67.1298 211.219L66.2898 211.462L65.4498 211.706L64.4898 211.827L63.6498 212.192H62.8098L61.8498 212.436L61.0098 212.557H60.0498H59.2098L58.2498 212.436H57.4098L56.4498 212.314L55.6098 212.192L54.6498 212.071L53.8098 211.949L52.9698 211.706L52.0098 211.462L51.1698 211.219L50.3298 210.733L49.4898 210.489L48.7698 210.003L47.9298 209.638L47.2098 209.03L46.3698 208.544L45.5298 208.179L45.0498 207.327L44.2098 206.841L43.6098 206.233L42.8898 205.624L42.2898 205.016L41.6898 204.287L41.0898 203.557L40.7298 202.706L40.1298 201.976L39.7698 201.124L39.2898 200.394L38.9298 199.544L38.4498 198.814L38.2098 197.841L37.8498 197.111L37.6098 196.138L37.3698 195.287L37.2498 194.314L37.0098 193.462V192.489L36.8898 191.638L37.0098 190.666L36.8898 189.814V188.841L37.2498 187.989L37.3698 187.016V186.166L37.6098 185.192L37.9698 184.462L38.0898 183.489L38.4498 182.638L38.8098 181.787L39.2898 181.057L39.6498 180.206L40.2498 179.476L40.6098 178.503L41.0898 177.894L41.8098 177.166L42.1698 176.436L42.8898 175.706L43.6098 175.219L44.3298 174.611L44.9298 174.003L45.6498 173.394L46.3698 172.909L47.0898 172.301L47.9298 171.936L48.7698 171.449L49.4898 171.084L50.3298 170.719L51.1698 170.233L52.0098 169.868H52.9698L53.8098 169.503L54.6498 169.259H55.6098L56.4498 169.138L57.4098 168.894L58.2498 169.016L59.2098 168.773L60.0498 169.016H61.0098L61.8498 168.894L62.8098 169.138L63.6498 169.259L64.6098 169.503L65.4498 169.746L66.2898 169.989L67.1298 170.354L67.9698 170.598L68.8098 171.084L69.5298 171.571L70.4895 171.814L71.2102 172.301L71.93 172.787L72.7696 173.394L73.4895 173.881L74.2102 174.489L74.6895 175.219L75.4102 175.827L75.8895 176.557L76.6102 177.166L77.2102 177.894L77.5697 178.746L78.1696 179.476L78.6498 180.206L79.13 180.936L79.4895 181.787L79.8498 182.638L80.33 183.489L80.4498 184.341L80.8102 185.192V186.166L81.0498 187.016L81.2895 187.989V188.841L81.53 189.814V190.666Z" fill="#FFCD2C"/>
<path d="M82.1698 142.219H82.6498L83.3698 142.341L84.2098 142.584H84.3298L85.1698 142.706L85.8898 142.949L86.6098 143.192L87.2098 143.436L87.8098 143.801C87.9298 143.922 88.1698 144.044 88.4098 144.044L88.8898 144.166L89.3698 144.408C89.4898 144.408 89.4898 144.53 89.6098 144.53L90.0898 144.773L90.4498 145.138C90.5698 145.259 90.6898 145.381 90.8098 145.381L91.4098 145.746L91.7698 146.111L92.2498 146.719L92.3697 146.841L92.9697 147.571C93.0895 147.692 93.2102 147.814 93.2102 147.814L93.6895 148.179L93.93 148.666L94.2895 149.273L94.6498 150.003L95.0102 150.854C95.13 150.976 95.13 151.098 95.2498 151.219L95.6102 151.584L95.73 152.071C95.73 152.192 95.8498 152.314 95.8498 152.436L96.33 152.922V153.408V153.53L96.4498 154.381C96.4498 154.624 96.5697 154.746 96.5697 154.989L96.8102 155.598L96.93 156.084V156.814V157.666V158.394L96.8102 159.124C96.8102 159.246 96.8102 159.246 96.8102 159.368V160.341V160.827L96.5697 161.314C96.5697 161.314 96.5697 161.314 96.5697 161.436L96.33 162.286C96.33 162.408 96.2102 162.53 96.2102 162.651L96.0895 163.138L95.8498 163.503C95.8498 163.503 95.73 163.624 95.73 163.746L95.3697 164.598L94.8895 165.449L94.53 166.179L94.1697 166.786L93.8102 167.273L93.33 167.759C93.33 167.759 93.33 167.759 93.2102 167.881L92.6102 168.489L92.13 168.976L91.5298 169.341L91.4098 169.462L90.6898 170.071L90.0898 170.436L89.4898 170.801C89.3698 170.801 89.3698 170.922 89.2498 170.922L88.6498 171.287L88.0498 171.651C87.9298 171.651 87.8098 171.773 87.6898 171.773L87.3298 172.016L86.9698 172.138C86.8498 172.138 86.7298 172.138 86.6098 172.259L85.7698 172.503L84.9298 172.746C84.8098 172.746 84.6898 172.868 84.4498 172.868L84.2098 172.989H83.9698H83.8498C83.7298 172.989 83.6098 172.989 83.4898 172.989L82.6498 173.111H82.5298L81.8098 173.233H81.0898H80.2498H79.7698L79.1698 172.989C79.0498 172.989 78.9298 172.868 78.8098 172.868L77.8498 172.746L77.0098 172.624L76.2898 172.503L75.6898 172.259L74.9698 171.894H74.8498L74.1298 171.53L73.5298 171.287L72.9298 170.922L72.2098 170.436L71.6098 170.071L71.1298 169.706L70.5298 169.098C70.4098 168.976 70.4098 168.976 70.2898 168.854L69.8098 168.489L69.4498 168.003L69.3298 167.881L68.7298 167.151L68.3698 166.786L68.1298 166.301C68.0098 166.057 67.8898 165.814 67.6498 165.571L67.4098 165.327L67.2898 164.962C67.2898 164.841 67.1698 164.598 67.0498 164.476L66.6898 163.868L66.4498 163.259C66.4498 163.138 66.3298 163.016 66.2098 162.895L65.9698 162.53V162.166C65.9698 161.801 65.8498 161.557 65.7298 161.192L65.6098 160.949V160.584C65.6098 160.341 65.6098 160.219 65.6098 159.976L65.4898 159.246V158.516C65.4898 158.394 65.4898 158.394 65.4898 158.273L65.3698 157.786L65.4898 157.301C65.4898 157.057 65.4898 156.814 65.4898 156.571L65.3698 155.841V155.476L65.6098 154.989C65.6098 154.868 65.7298 154.746 65.7298 154.624L65.9698 153.651L66.0898 153.166L66.3298 152.801C66.4498 152.557 66.5698 152.314 66.5698 152.071L66.6898 151.584L66.9298 151.098C67.0498 150.976 67.0498 150.854 67.1698 150.611L67.4098 150.003L67.6498 149.638L68.1298 149.151C68.2498 149.03 68.3698 148.908 68.3698 148.786L68.8498 148.057L68.9698 147.936L69.3298 147.327L69.6898 146.962L70.1698 146.598L70.7698 146.233C70.8898 146.233 71.0098 146.111 71.0098 145.989L71.6098 145.503L72.2098 145.138L72.9298 144.651L73.6498 144.166L74.3698 143.801L74.8498 143.557L75.4498 143.436C75.5698 143.436 75.8098 143.314 75.9298 143.314L76.6498 142.949L77.3698 142.706H77.4898L78.0898 142.462H78.6898C78.8098 142.462 78.9298 142.462 78.9298 142.462L79.5298 142.341H80.1298H81.0898H81.2098C81.3298 142.341 81.4498 142.341 81.5698 142.341L82.1698 142.219ZM82.0498 139.786L81.0898 139.908H80.1298H79.1698L78.3298 140.151L77.3698 140.273L76.5298 140.638L75.6898 140.881L74.8498 141.246L73.8898 141.368L73.0498 141.733L72.2098 142.219L71.4898 142.706L70.7698 143.192L70.0498 143.679L69.3298 144.287L68.6098 144.773L67.8898 145.381L67.2898 146.111L66.8098 146.962L66.3298 147.692L65.7298 148.301L65.2498 149.03L64.8898 149.881L64.4098 150.611L64.1698 151.462L63.6898 152.314L63.5698 153.287L63.4498 154.138L63.0898 154.989V155.962L63.2098 156.936L63.0898 157.908L63.2098 158.881V159.854L63.4498 160.706V161.679L63.8098 162.53L63.9298 163.503L64.4098 164.354L64.7698 165.206L65.2498 165.936L65.4898 166.786L66.0898 167.516L66.4498 168.368L67.0498 169.098L67.6498 169.827L68.2498 170.557L68.9698 171.166L69.5698 171.773L70.2898 172.381L71.1298 172.868L71.8498 173.354L72.5698 173.841L73.4098 174.206L74.2498 174.571L75.0898 174.936L75.9298 175.179L76.7698 175.422L77.6098 175.544L78.4498 175.666L79.2898 175.908H80.2498H81.2098H82.1698L83.0098 175.666L83.8498 175.544L84.8098 175.666L85.6498 175.301L86.4898 175.057L87.3298 174.814L88.2898 174.692L89.0098 174.206L89.8498 173.841L90.5698 173.354L91.4098 172.868L92.13 172.259L92.8498 171.651L93.5697 171.166L94.2895 170.557L94.8895 169.949L95.6102 169.341L96.2102 168.611L96.6895 167.759L97.0498 166.908L97.4102 166.057L97.7697 165.206L98.2498 164.476L98.3697 163.503L98.6102 162.651L98.9697 161.801V160.827V159.854L99.0895 159.003V158.03V157.057V156.084L98.9697 155.111L98.6102 154.259L98.4895 153.408L98.3697 152.436L98.0102 151.584L97.7697 150.733L97.1697 150.003L96.8102 149.151L96.4498 148.301L95.9697 147.571L95.4895 146.841L94.7697 146.233L94.1697 145.503L93.5697 144.773L92.8498 144.166L92.0102 143.679L91.2898 143.071L90.4498 142.706L89.7298 142.219L88.8898 141.976L88.0498 141.489L87.2098 141.246L86.3698 141.003L85.5298 140.759L84.6898 140.638L83.8498 140.394L83.0098 140.273L82.0498 139.786Z" fill="white"/>
<path d="M80.6098 165.936H79.6497L78.8099 165.692L77.9697 165.327L77.2497 164.719L76.4098 164.233L75.8098 163.624L75.3298 162.895L74.9698 162.044L74.8497 161.192L74.7299 160.219H75.4497H76.2897L77.1298 159.976L77.3697 160.949L77.6098 161.922L78.0898 162.773L78.9298 163.259L79.7697 163.624L80.7298 163.868L80.6098 162.895V161.922L80.7298 160.949L80.6098 159.976V159.003V158.03V158.151L79.7697 157.666L78.9298 157.422L78.0898 157.057L77.1298 156.571L76.2897 156.084L75.8098 155.233L75.3298 154.381L75.2098 153.408V152.557L75.5698 151.706L76.0497 150.976L76.5298 150.246L77.1298 149.638L77.9697 149.273L78.8099 149.03L79.6497 148.908L80.6098 148.787V147.936V147.084H81.3298H82.0497V148.057L81.9298 148.908L82.8899 149.03L83.7298 149.395L84.5697 149.638L85.2898 150.124L85.7697 150.976L86.4898 151.584L86.6099 152.436L86.9697 153.287L87.0898 154.259L86.2498 154.016L85.4098 154.138H84.5697L84.4497 153.287L83.9697 152.436L83.3697 151.827L82.7697 151.219L81.9298 150.976L82.0497 151.827L81.8098 152.679L82.0497 153.53L81.9298 154.381V155.233V156.084L82.8899 156.206L83.7298 156.571L84.5697 156.936L85.5298 157.179L86.2498 157.787L86.9697 158.395L87.3298 159.246L87.5697 160.098V161.071L87.4497 161.922L87.3298 162.773L86.9697 163.624L86.2498 164.233L85.5298 164.719L84.8098 165.206L83.9697 165.449L83.1298 165.814H82.2898L82.1698 166.787L82.2898 167.881L81.5697 167.759L80.8497 167.881L80.7298 166.787L80.6098 165.936ZM80.6098 155.719L80.4898 154.746V153.773V152.801L80.6098 151.827L80.4898 150.854L79.5298 151.098L78.5697 151.463L77.8497 152.192L77.4898 153.166L77.7298 154.259L78.5697 154.989L79.5298 155.476L80.6098 155.719ZM85.0497 161.314L84.8098 160.463L84.3298 159.733L83.6098 159.124L82.8899 158.638L82.0497 158.516V159.368V160.219V161.071L81.9298 161.922V162.773L82.0497 163.746H83.0098L83.8497 163.259L84.5697 162.773L85.1697 162.044L85.0497 161.314Z" fill="white"/>
<path d="M192.45 175.301L192.689 176.151L192.45 177.124L192.57 177.976V178.949L192.689 179.922L192.57 180.773L192.45 181.746V182.719V183.571L192.689 184.544L192.57 185.516L192.689 186.368L192.45 187.341V188.314L192.57 189.166L192.45 190.138L192.57 190.989L192.689 191.963V192.936L192.45 193.787L192.57 194.759L192.45 195.733L192.57 196.584V197.557L192.689 198.53V199.381L192.45 200.354L192.57 201.327L192.45 202.179L192.689 203.151V204.124L192.57 204.976L192.689 205.949L192.45 206.922L192.689 207.773V208.746L192.57 209.719L192.689 210.571L192.57 211.544L192.689 212.516V213.489L192.57 214.341V215.314V216.287L192.45 217.138L192.57 218.111V219.084L192.689 219.936V220.908L192.57 221.881L192.689 222.733H193.53L194.37 222.854L195.33 222.976L196.289 222.733L197.13 222.854H198.089H198.93L199.889 222.733L200.85 222.854L201.81 222.976L202.65 222.854H203.61H204.57L205.41 222.976L206.37 222.854L207.33 222.733L208.17 222.854L209.13 222.976L210.089 222.854L210.93 222.733H211.889L212.85 222.854L213.689 222.733H214.65L215.61 222.976L216.45 222.854H217.41L218.37 222.733H219.33L220.17 222.854H221.13L222.089 222.733H222.93H223.889H224.85H225.689L226.65 222.854L227.61 222.733L228.45 222.854H229.41L230.37 222.733L231.33 222.854L232.17 222.733H233.13L234.089 222.854H235.05H235.889H236.85H237.81H238.77L238.65 221.881V220.908L238.77 220.057L238.65 219.084L238.77 218.233L238.65 217.259V216.287V215.436V214.463V213.489L238.77 212.638V211.666L238.65 210.692L238.77 209.841L238.65 208.868V207.895L238.77 207.044V206.071V205.219L238.65 204.246L238.77 203.273V202.422L238.65 201.449L238.77 200.476V199.624V198.651V197.679V196.706L238.65 195.854L238.77 194.881V193.908L238.65 193.057L238.77 192.084V191.111V190.259L238.65 189.286V188.314V187.463L238.77 186.489V185.516V184.666L238.889 183.692L238.77 182.719V181.868L238.889 180.895L238.77 179.922V179.071L238.65 178.098L238.77 177.124V176.151V175.301L238.53 174.327L238.77 173.354L238.65 172.381L238.41 171.53L238.17 170.679L237.93 169.706L237.57 168.854L237.33 168.003L236.97 167.151L236.37 166.301L235.889 165.571L235.289 164.963L234.689 164.233L233.97 163.624L233.13 163.138L232.41 162.53L231.57 162.166L230.73 161.801L229.889 161.436L229.05 161.071H228.089L227.25 160.827V159.976V159.124L227.37 158.273L227.13 157.301L227.37 156.449L227.25 155.598V154.746L227.13 153.895L226.289 153.773L225.45 153.895L224.489 153.773H223.53H222.57L221.73 153.895L220.77 153.651L219.81 153.895H218.97L218.01 153.773H217.05L216.089 153.895L215.25 153.651L214.289 153.895L213.33 153.773L212.489 153.895H211.53L210.57 153.773H209.61L208.77 153.895H207.81H206.85L205.889 153.773H205.05L204.089 153.651L203.01 153.773L203.13 154.746V155.598V156.449L203.01 157.301L203.13 158.151V159.124L203.25 159.976L203.13 160.827L202.289 161.071L201.33 161.192L200.37 161.436L199.65 161.922L198.81 162.408L197.97 162.773L197.13 163.259L196.53 163.989L195.81 164.598L195.21 165.327L194.73 166.179L194.25 166.908L194.01 167.881L193.53 168.733L193.41 169.706L193.05 170.557L192.93 171.53L192.81 172.381L192.57 173.354L192.45 174.327V175.301Z" fill="#1C1C10"/>
<path d="M198.81 153.895L199.77 153.773L200.73 153.895L201.689 153.773H202.53L203.489 153.651L204.45 153.895H205.41L206.25 153.773L207.21 153.895L208.17 153.651L209.13 153.773H209.97H210.93H211.889H212.73H213.689L214.65 153.895L215.61 153.773L216.45 153.895L217.41 153.651H218.37L219.33 153.895L220.17 153.651L221.13 153.773L222.089 153.895H222.93L223.889 153.651H224.85L225.81 153.895L226.77 153.773H227.61H228.57H229.53H230.489L231.45 153.895L231.33 152.922V151.949L231.45 151.098V150.246L231.33 149.273V148.422L231.45 147.449L231.21 146.598L231.45 145.624L231.33 144.773L231.45 143.801L231.33 142.949L230.489 143.071H229.53L228.57 142.827L227.73 142.949L226.77 142.827L225.81 142.949L224.85 142.827H224.01L223.05 142.949H222.089H221.25H220.289L219.33 142.827H218.37L217.53 142.949L216.57 142.827L215.61 142.949H214.65L213.81 142.827L212.85 142.949H211.889L211.05 142.827L210.089 142.949H209.13L208.17 143.071L207.33 142.949L206.37 142.827L205.41 143.071L204.45 142.827L203.61 143.071L202.65 142.827L201.689 142.949H200.73H199.77H198.93L198.81 143.801L198.93 144.773V145.624V146.598L198.81 147.449L199.05 148.301L198.81 149.273L198.93 150.124V151.098L198.81 151.949L198.93 152.922L198.81 153.895Z" fill="white"/>
<mask id="path-11-inside-1_647_36" fill="white">
<path d="M232.889 155.233L230.37 154.989H228.57H227.61L225.689 155.111L224.73 154.989H224.01L222.93 155.233H221.85L220.77 155.111H220.17L219.21 155.354L218.13 155.111H217.41L216.45 155.233L215.489 155.111L214.53 155.233L213.45 155.111H212.73L211.77 155.233H210.81L209.85 155.354L208.05 155.233L207.089 155.354H206.13L205.17 155.476L204.089 155.354L203.13 155.233L200.37 155.354L199.41 155.233L197.01 155.476L197.37 153.166L197.25 152.314L197.489 150.489L197.37 149.516L197.61 148.666L197.37 147.814L197.489 146.841V146.111V145.259L197.37 144.287L197.73 142.341L200.489 142.219H201.45L202.53 142.098L203.37 142.341L204.33 142.098L205.289 142.341L206.13 142.219L208.05 142.341L208.889 142.219H209.73L210.689 142.098L211.77 142.219H212.489L213.45 142.098H215.37L216.33 141.976L217.289 142.098L219.21 141.976L221.13 142.098H221.97L222.81 142.219L223.65 142.098H224.85L225.689 142.219L226.65 142.098L227.61 142.219L228.57 142.098L229.53 142.341H230.37L232.41 142.098L232.53 144.287V145.259V146.233L232.41 147.084L232.65 147.936L232.41 149.759L232.53 150.733V151.827L232.289 152.801V153.409L232.889 155.233ZM203.61 152.436L204.689 152.557H205.41L206.37 152.436H207.33L208.289 152.314H209.37L210.33 152.436L211.289 152.314H212.25L213.21 152.192H214.17L215.01 152.314L215.97 152.192L216.93 152.314L217.77 152.192H218.97L219.689 152.314L220.53 152.192L221.61 152.314L222.57 152.436H223.289L224.25 152.192H225.45L226.289 152.314L228.089 152.192H229.05H230.489V151.341L230.61 150.611V150.003L230.37 149.03L230.489 147.206L230.25 146.233L230.37 145.259V144.409V143.922H229.53L228.689 143.801L227.85 143.922L226.889 143.801L225.93 143.922L224.97 143.801H224.13L223.17 143.922L222.21 143.801H221.37L219.45 143.679L217.65 143.801L216.689 143.679L215.85 143.801H213.93L212.97 143.922H211.77L211.05 143.801L210.21 143.922H209.25L208.289 144.044L206.489 143.922L205.41 144.044L204.57 143.801L203.61 144.044L202.65 143.801L201.81 143.922H200.73H200.01L200.13 144.409V145.381V146.354L200.01 147.206L200.25 148.179L200.01 149.151L200.13 150.003L199.889 151.827L200.01 152.436H200.61H203.61Z"/>
</mask>
<path d="M232.889 155.233L230.37 154.989H228.57H227.61L225.689 155.111L224.73 154.989H224.01L222.93 155.233H221.85L220.77 155.111H220.17L219.21 155.354L218.13 155.111H217.41L216.45 155.233L215.489 155.111L214.53 155.233L213.45 155.111H212.73L211.77 155.233H210.81L209.85 155.354L208.05 155.233L207.089 155.354H206.13L205.17 155.476L204.089 155.354L203.13 155.233L200.37 155.354L199.41 155.233L197.01 155.476L197.37 153.166L197.25 152.314L197.489 150.489L197.37 149.516L197.61 148.666L197.37 147.814L197.489 146.841V146.111V145.259L197.37 144.287L197.73 142.341L200.489 142.219H201.45L202.53 142.098L203.37 142.341L204.33 142.098L205.289 142.341L206.13 142.219L208.05 142.341L208.889 142.219H209.73L210.689 142.098L211.77 142.219H212.489L213.45 142.098H215.37L216.33 141.976L217.289 142.098L219.21 141.976L221.13 142.098H221.97L222.81 142.219L223.65 142.098H224.85L225.689 142.219L226.65 142.098L227.61 142.219L228.57 142.098L229.53 142.341H230.37L232.41 142.098L232.53 144.287V145.259V146.233L232.41 147.084L232.65 147.936L232.41 149.759L232.53 150.733V151.827L232.289 152.801V153.409L232.889 155.233ZM203.61 152.436L204.689 152.557H205.41L206.37 152.436H207.33L208.289 152.314H209.37L210.33 152.436L211.289 152.314H212.25L213.21 152.192H214.17L215.01 152.314L215.97 152.192L216.93 152.314L217.77 152.192H218.97L219.689 152.314L220.53 152.192L221.61 152.314L222.57 152.436H223.289L224.25 152.192H225.45L226.289 152.314L228.089 152.192H229.05H230.489V151.341L230.61 150.611V150.003L230.37 149.03L230.489 147.206L230.25 146.233L230.37 145.259V144.409V143.922H229.53L228.689 143.801L227.85 143.922L226.889 143.801L225.93 143.922L224.97 143.801H224.13L223.17 143.922L222.21 143.801H221.37L219.45 143.679L217.65 143.801L216.689 143.679L215.85 143.801H213.93L212.97 143.922H211.77L211.05 143.801L210.21 143.922H209.25L208.289 144.044L206.489 143.922L205.41 144.044L204.57 143.801L203.61 144.044L202.65 143.801L201.81 143.922H200.73H200.01L200.13 144.409V145.381V146.354L200.01 147.206L200.25 148.179L200.01 149.151L200.13 150.003L199.889 151.827L200.01 152.436H200.61H203.61Z" fill="#32B526" stroke="#AF2222" stroke-width="2" mask="url(#path-11-inside-1_647_36)"/>
<path d="M193.53 210.814L192.33 210.571L192.81 208.259L193.53 208.381L194.25 208.138L196.29 208.259H197.13H198.21H198.93L199.89 208.381L201.57 208.259H202.65H203.49L206.13 208.381L207.09 208.138L208.05 208.259L209.01 208.138L209.85 208.381L210.69 208.259H212.61L213.57 208.138L214.53 208.381L215.37 208.259L217.05 208.381L218.01 208.138L219.57 208.259L219.69 207.651L219.57 206.801L219.69 204.854L219.57 203.881L219.69 203.03L219.57 202.179L219.69 200.233L219.57 199.259L219.69 198.287V196.463V195.489V192.814L219.57 190.989L219.69 189.895V189.044L219.57 187.219L219.81 185.395L219.69 184.422L219.81 183.571L219.57 182.841L218.13 182.963L217.17 182.841L216.21 182.963L215.25 182.719H214.65L213.57 182.963H212.61L211.77 182.841L210.93 182.963L209.85 182.841H209.01L208.05 182.963L207.21 182.841L206.37 182.963L204.45 182.841H203.61H202.65H201.81L200.01 182.719L198.93 182.841L198.09 182.719L197.13 182.963L196.17 182.719L195.33 182.841H194.49L192.69 182.963L192.45 180.53L194.37 180.409H195.33L196.29 180.287L197.13 180.409L198.09 180.287L199.05 180.409L199.89 180.287L201.81 180.409H202.65H203.61H204.45L206.25 180.53L207.21 180.287L208.17 180.53L208.89 180.409H209.97L210.81 180.53L211.77 180.287L212.73 180.53H213.45L214.53 180.287H215.49L216.45 180.53L217.17 180.409L218.13 180.53L219.93 180.287L222.21 180.409L221.97 182.476L222.21 183.449L222.09 184.422L222.21 185.395L221.97 187.219L222.09 190.016L221.97 190.989L222.09 193.787V195.611V196.584V198.408L221.97 199.381L222.09 200.111L221.97 202.057L222.21 203.03L221.97 204.003L222.09 204.854L221.97 206.679L222.21 207.651L221.97 208.624L222.21 210.814H219.93L218.13 210.571L217.29 210.814L215.37 210.692L214.41 210.814L213.45 210.692H212.61H210.81L209.85 210.814L208.89 210.692L208.05 210.814L207.21 210.692L206.37 210.814L203.49 210.692H202.65H201.69L199.89 210.814L197.13 210.692H196.29H194.49L193.53 210.814Z" fill="white"/>
<path d="M261.57 222.854L260.61 222.733L259.65 222.854H258.69H257.85H256.89H255.93L255.09 222.733H254.13H253.17L252.33 222.854H251.37H250.41H249.57L248.61 222.733H247.65L246.81 222.976L245.85 222.733L244.89 222.854L244.05 222.733L243.09 222.854H242.13H241.29H240.33L239.37 222.733L238.41 222.854H237.57L236.61 222.733L235.65 222.976L234.81 222.854L233.85 222.733H232.89L231.93 222.854L231.09 222.733L230.01 222.854V221.881L230.13 221.03L230.01 220.057L230.25 219.084L230.01 218.233L230.13 217.259V216.408L230.01 215.436L230.13 214.462V213.611V212.638L230.25 211.786L230.13 210.814V209.962V208.989V208.016L230.01 207.166L230.13 206.192V205.341L230.01 204.368V203.395L230.13 202.544L230.25 201.571L230.13 200.719L230.25 199.746L230.01 198.773L230.13 197.922L230.25 196.949L230.13 196.098L230.01 195.124V194.151V193.301L230.25 192.327V191.354L230.01 190.503V189.53L230.13 188.557L230.01 187.706L230.13 186.733H231.09H231.93L232.89 186.854L233.85 186.611H234.69L235.65 186.733H236.61H237.45H238.41H239.37L240.21 186.854L241.17 186.733L242.13 186.854L242.97 186.611L243.93 186.854L244.89 186.733L245.73 186.854L246.69 186.733L247.65 186.611L248.49 186.854L249.45 186.733L250.41 186.854L251.25 186.733H252.21L253.17 186.611L254.13 186.854H254.97L255.93 186.733H256.89L257.73 186.611H258.69L259.65 186.733H260.61H261.45L261.57 187.706V188.557L261.45 189.53L261.57 190.381L261.45 191.354L261.57 192.327V193.179L261.45 194.151L261.57 195.003V195.976L261.45 196.949V197.801L261.57 198.773V199.624L261.45 200.598V201.571L261.57 202.422L261.45 203.395V204.246L261.57 205.219L261.33 206.192L261.57 207.044V208.016L261.33 208.868L261.45 209.841L261.57 210.692V211.666L261.45 212.638L261.57 213.489L261.45 214.462V215.436V216.286L261.57 217.259V218.111V219.084L261.45 220.057L261.57 220.908L261.45 221.881L261.57 222.854Z" fill="#ABABAB"/>
<path d="M263.97 186.733L263.01 186.854L262.17 186.611L261.21 186.733H260.37H259.41H258.57H257.61L256.77 186.611L255.81 186.854L254.97 186.733H254.01L253.05 186.611L252.21 186.854H251.25H250.41H249.45L248.61 186.733L247.65 186.611L246.69 186.854L245.85 186.733H244.89H244.05L243.09 186.854H242.25L241.29 186.733L240.45 186.854L239.49 186.733H238.53H237.69H236.73L235.89 186.611L234.93 186.733L234.09 186.854H233.13L232.17 186.733L231.33 186.854H230.37L229.53 186.611L228.57 186.854H227.61L227.73 185.881L227.61 184.908V183.936V183.084V182.111V181.138V180.286V179.314L227.49 178.341L227.61 177.489V176.516V175.544V174.571L228.57 174.692L229.41 174.814L230.37 174.692H231.21H232.17H233.13L233.97 174.571L234.93 174.692H235.77H236.73H237.57H238.53L239.37 174.571L240.33 174.692H241.29L242.13 174.571L243.09 174.692H243.93H244.89L245.73 174.571H246.69L247.53 174.692L248.49 174.571L249.45 174.692H250.29L251.25 174.571L252.09 174.814L253.05 174.692H253.89H254.85H255.69L256.65 174.571L257.61 174.692H258.45L259.41 174.571H260.25L261.21 174.814L262.17 174.571L263.01 174.692L264.09 174.571L263.85 175.544L263.97 176.516L264.09 177.489L263.85 178.341L264.09 179.314L263.97 180.166L264.09 181.138L263.85 182.111V182.963L263.97 183.936L263.85 184.908V185.759L263.97 186.733Z" fill="white"/>
<path d="M246.81 188.071L245.61 187.949H244.05L243.09 188.071H242.13L241.17 187.949H240.33L238.41 187.827H237.57L235.65 187.706L232.89 187.827L232.05 187.706L230.13 187.827L229.29 187.584L228.45 187.706H226.05L226.53 185.395L226.41 183.571V182.719L226.29 181.746V180.773V179.801L226.17 177.976L226.29 175.179L226.17 172.989L228.57 173.111L229.29 173.233L230.13 173.111L231.09 173.233H232.77L233.73 173.111L235.53 173.233H236.37H238.17L239.13 173.111L240.09 173.233L241.89 173.111L242.85 173.233L245.49 173.111L247.29 173.233L248.25 173.111L249.21 173.233L251.01 173.111L251.85 173.354L252.57 173.233H253.65H254.61H255.45L256.41 173.111L258.21 173.354L259.17 173.233H260.25L260.97 173.354L261.81 173.111L262.77 173.233L265.17 173.111L264.81 175.422L264.93 176.273V177.368L264.81 178.219L264.93 179.071L264.81 180.044L264.93 181.016L264.81 182.111V182.719L264.93 183.692L264.69 184.787V185.638L264.93 187.584L262.65 187.949L261.69 187.706L260.85 187.827H259.89L258.21 187.949H257.01L256.29 187.827L255.45 187.949L252.69 187.706L251.85 187.949H249.93H248.97L247.29 187.706L246.81 188.071ZM241.29 185.516L242.25 185.638H242.97L243.93 185.516L245.85 185.638L246.57 185.759L247.53 185.516L249.45 185.759H250.29H251.97L252.93 185.516L254.01 185.638L255.57 185.759L256.53 185.516L257.61 185.638H258.45L260.25 185.516H261.09L262.17 185.395L262.65 185.516V184.787L262.77 183.936L262.65 183.084L262.77 181.989L262.89 181.138L262.77 180.287L262.89 179.436L262.77 178.462L262.89 177.489V176.759L262.77 176.03H262.29L261.33 176.273L260.25 176.151H259.53L258.57 176.273L256.77 176.03L256.05 176.151H254.97L254.01 176.03H253.17L252.21 176.151L251.25 175.908L249.45 176.03L248.61 175.908L247.77 176.03L245.97 175.908L243.21 176.03L242.25 175.908L240.45 176.03L239.61 175.908L238.77 176.03L236.85 175.908H236.01L234.21 175.787L233.49 175.908L231.45 176.03L230.61 175.908L229.65 176.03L229.05 175.908L228.93 178.341V179.192V180.166V181.138V181.989L229.05 182.962V183.936L229.17 185.516L229.77 185.395L230.73 185.638L232.41 185.516L233.37 185.638H234.21L235.05 185.516H236.01H237.93H238.89L240.69 185.638L241.29 185.516Z" fill="#704545"/>
<path d="M255.69 213.489L254.97 213.976L254.49 214.706L253.89 215.192L253.29 215.922L252.69 216.408L252.21 217.138L251.37 217.503L250.65 217.989L249.69 217.746L248.85 217.624L248.25 217.016L248.13 217.138L247.77 216.286L247.41 215.557L247.29 214.706L247.77 213.854L248.13 213.124L248.73 212.395L249.45 212.03L249.93 211.301L250.65 210.692L251.13 210.084L251.73 209.476L252.45 209.111L253.29 208.746L254.13 208.624L255.09 208.868L255.69 209.476L255.57 209.598L256.17 210.206L256.41 211.057L256.29 211.908L256.17 212.759L255.69 213.489Z" fill="#B89D11"/>
<path d="M257.01 196.827L256.41 197.436L255.81 198.044L255.21 198.651L254.61 199.138L254.01 199.868L253.41 200.476L252.81 201.084L251.97 201.206H251.13L250.29 200.963L249.45 200.598L249.57 200.354L249.09 199.746L248.73 198.895V198.044L248.97 197.192L249.45 196.463L250.17 195.976L250.77 195.368L251.37 194.759L251.85 194.03L252.45 193.422L253.17 192.936L253.77 192.327L254.61 192.084H255.57L256.41 192.327L257.13 192.814L257.49 193.665L257.85 194.395L257.73 195.246L257.49 196.098L257.01 196.827Z" fill="#C54A4A"/>
<path d="M243.09 213.489L242.49 214.098L241.89 214.706L241.29 215.314L240.69 215.922L240.09 216.408L239.49 217.138L238.77 217.624L237.93 217.989L237.09 217.868L236.25 217.503L235.53 217.138V217.016L235.05 216.408L234.81 215.557V214.706L234.93 213.733L235.53 213.124L236.13 212.516L236.73 211.908L237.33 211.422L237.93 210.692L238.41 209.963L239.13 209.476L239.85 208.989L240.57 208.624L241.53 208.746L242.37 208.989L242.97 209.476H243.09L243.69 210.206L243.93 211.057L243.81 211.908L243.57 212.759L243.09 213.489Z" fill="#862C2C"/>
<path d="M239.37 199.989V200.841L239.25 201.692V202.544V203.395L239.37 204.246V205.098L239.13 205.949L238.77 206.801L238.17 207.408L237.45 207.895L236.49 208.016L235.65 207.773L234.93 207.408L234.21 206.801L233.97 205.949L233.85 205.098L233.73 204.246L233.85 203.395L233.73 202.544L233.61 201.692L233.85 200.841V199.989V199.138L234.33 198.408L234.93 197.801L235.65 197.436L236.49 197.071L237.33 197.436L238.17 197.679L238.65 198.408L239.13 199.138L239.37 199.989Z" fill="#2ED520"/>
<path d="M245.73 200.963L246.33 201.571L246.93 202.301L247.53 202.786L248.01 203.516L248.61 204.124L249.33 204.611L249.81 205.463L250.17 206.192V207.165L249.69 207.895L249.33 208.746L248.61 209.233L247.77 209.354L246.93 209.476L246.09 209.111L245.37 208.624L244.77 208.016L244.17 207.53L243.57 206.801L243.09 206.192L242.37 205.584L241.77 204.976L241.29 204.246L241.05 203.516V202.665L241.17 201.692L241.77 201.084H241.89L242.49 200.598L243.33 200.233H244.17L245.01 200.598L245.73 200.963Z" fill="white"/>
<path d="M2.00989 222.733L2.96989 222.854L3.80989 222.733L4.76989 222.854H5.72989L6.56989 222.733L7.52989 222.976L8.36989 222.854H9.32989H10.2899H11.1299L12.0899 222.733L12.9299 222.854H13.8899L14.8499 222.733H15.6899L16.6499 222.854L17.4899 222.733L18.4499 222.854L19.4099 222.733L20.2499 222.976L21.2099 222.733H22.0499L23.0099 222.854L23.9699 222.733L24.8099 222.854L25.7699 222.733L26.7299 222.854L27.5699 222.976L28.5299 222.733L29.3699 222.976H30.3299L31.2899 222.733L32.1299 222.976L33.0899 222.733H33.9299H34.8899H35.8499L36.6899 222.854H37.6499L38.6099 222.976L39.4499 222.854L40.4099 222.733H41.2499H42.2099H43.1699L44.0099 222.854L44.9699 222.976L45.9299 222.733L46.7699 222.854L47.7299 222.733L48.5699 222.854L49.5299 222.733H50.4899L51.3299 222.854L52.2899 222.733L53.2499 222.854H54.0899H55.0499H55.8899L56.8499 222.733H57.8099L58.6499 222.854H59.6099L60.4499 222.733L61.4099 222.854L62.3699 222.733H63.2099L64.1699 222.854L65.1299 222.733L65.9699 222.854L66.9299 222.733H67.7699L68.7299 222.854L69.6899 222.733L70.5299 222.854H71.4899L72.3299 222.733L73.2899 222.854H74.2499H75.0899H76.0499H77.0099L77.8499 222.733L78.8099 222.854H79.6499L80.6099 222.733H81.5699H82.4099L83.3699 222.854H84.2099L85.1699 222.976L86.1299 222.733L86.9699 222.854H87.9299H88.8899L89.7299 222.733H90.6899H91.5299L92.4895 222.854H93.4498L94.2895 222.733H95.2498L96.2102 222.854L97.0498 222.733L98.0102 222.854H98.8498L99.8102 222.733L100.77 222.854L101.61 222.733H102.57L103.53 222.854H104.37H105.33H106.17H107.13H108.089L108.93 222.733L109.889 222.976L110.73 222.733L111.689 222.976L112.53 222.854H113.489L114.45 222.733H115.289L116.25 222.976L117.089 222.854H118.05H119.01L119.85 222.733H120.81L121.65 222.854L122.61 222.976L123.57 222.854H124.41L125.37 222.733H126.21L127.17 222.854L128.01 222.733L128.97 222.854L129.93 222.733H130.77L131.73 222.854L132.57 222.733L133.53 222.854L134.489 222.733H135.33L136.289 222.854L137.13 222.733H138.089L138.93 222.854H139.889L140.85 222.733H141.689L142.65 222.854H143.489L144.45 222.733L145.41 222.854H146.25L147.21 222.733L148.17 222.976L149.01 222.733H149.97L150.81 222.976L151.77 222.854L152.73 222.733H153.57L154.53 222.854L155.489 222.733L156.33 222.854H157.289H158.25L159.089 222.733H160.05H160.889L161.85 222.854L162.81 222.733L163.65 222.854L164.61 222.733L165.57 222.854H166.41L167.37 222.733L168.21 222.854H169.17H170.13L170.97 222.976L171.93 222.854H172.77H173.73H174.689H175.53H176.489L177.45 222.733H178.289L179.25 222.976L180.089 222.733L181.05 222.854L182.01 222.733L182.85 222.854H183.81L184.65 222.733L185.61 222.976L186.57 222.733L187.41 222.976L188.37 222.854H189.33H190.17L191.13 222.733L192.089 222.976L192.93 222.854H193.889L194.85 222.733L195.689 222.854L196.65 222.733L197.489 222.854L198.45 222.733L199.41 222.854L200.25 222.976L201.21 222.733L202.17 222.854L203.01 222.733L203.97 222.854L204.93 222.733L205.77 222.854L206.73 222.733L207.57 222.854L208.53 222.976L209.489 222.854H210.33L211.289 222.733L212.25 222.854L213.089 222.733L214.05 222.854L215.01 222.976L215.85 222.854H216.81H217.65L218.61 222.733H219.57L220.41 222.976L221.37 222.854H222.33H223.17H224.13L225.089 222.733H225.93L226.889 222.976L227.85 222.854L228.689 222.976L229.65 222.733H230.61L231.45 222.854L232.41 222.733L233.25 222.854L234.21 222.733H235.17L236.01 222.854L236.97 222.733L237.93 222.854L238.77 222.733H239.73L240.689 222.854L241.53 222.733L242.489 222.854H243.45L244.289 222.733L245.25 222.854L246.21 222.733H247.05L248.01 222.854L248.97 222.733H249.81L250.77 222.854L251.61 222.976L252.57 222.733L253.53 222.854H254.37H255.33L256.289 222.733L257.13 222.854L258.089 222.976L258.93 222.854H259.889H260.85L261.689 222.976L262.65 222.854L263.61 222.733L264.45 222.854L265.41 222.976L266.37 222.854L267.21 222.733H268.17L269.13 222.854L269.97 222.733H270.93L271.889 222.976L272.73 222.854H273.689L274.65 222.733H275.489L276.45 222.854H277.41L278.25 222.733H279.21H280.17H281.13H281.97L282.93 222.854L283.77 222.733L284.73 222.854H285.689L286.65 222.733L287.489 222.854L288.45 222.733H289.41L290.25 222.854H291.21H292.17H293.01H293.97L294.93 222.976L295.889 222.733H296.73L297.689 222.854L298.65 222.733" fill="white"/>
<path d="M185.61 224.192L184.65 223.949L183.81 224.071L181.89 223.949L181.05 224.071H180.21L179.25 224.192L178.17 224.071H177.45L176.49 224.192H174.57L173.61 224.314L172.65 224.192L170.85 224.314L169.05 224.192H168.21L167.37 224.071L166.53 224.192H165.33L164.49 224.071L163.53 224.192L162.57 224.071L161.61 224.192L160.65 223.949L158.97 224.071L158.01 224.192H156.93H155.97L155.13 224.071L154.29 224.314L152.49 224.071L151.53 224.192H150.45L149.49 223.949H148.89L147.93 224.192L146.85 224.071H145.05H144.09L142.29 224.192L141.33 224.071H140.61L139.65 224.314H138.69L137.73 224.192H137.13L136.17 224.436L135.09 224.192H134.37L133.41 224.314L132.45 224.192L131.49 224.314L130.41 224.192H129.69L128.73 224.314H127.77L126.81 224.436L125.13 224.314L124.17 224.436H123.21L122.25 224.557L121.17 224.436L120.21 224.314L117.57 224.436L116.73 224.314L115.77 224.436L114.81 224.192L113.13 224.314H112.17L111.21 224.436L110.37 224.314L109.53 224.436L108.57 224.314L107.73 224.436L105.81 224.314H104.97H104.01H103.05L101.37 224.192L100.41 224.436L99.4499 224.314H98.73H97.7697L96.93 224.192L95.9697 224.314L95.0102 224.192H94.2904L93.2102 224.314H92.13L91.2899 224.071H90.5699H89.6099L87.6899 224.192H86.7299L85.8899 224.071L85.0499 224.314L84.0899 224.192L83.1299 224.314L81.3299 224.071L79.6499 224.192H78.6899L77.7299 224.071L74.9699 224.192H73.0499L72.2099 224.071L70.4099 224.192L69.5699 224.071H68.7299L66.9299 223.949L65.9699 224.192L65.0099 224.071L64.1699 224.192L62.4899 224.071L61.5299 224.314L60.5699 224.192L59.7299 224.314L56.9699 224.071L56.1299 224.314L54.2099 224.192H53.2499L52.4099 224.071L51.5699 224.192L49.7699 224.071L48.8099 224.192L47.8499 224.071L47.0099 224.192L46.1699 224.071L45.3299 224.314L42.4499 224.071H41.6099H40.7699L38.8499 224.192L36.0899 223.949H35.2499H33.5699L32.4899 224.192L31.5299 223.949L30.5699 224.192H29.4899L28.6499 224.071L27.8099 224.192L26.7299 224.071L25.8899 223.949L25.0499 224.071L24.2099 223.949L23.2499 224.071L22.2899 223.949H21.5699L20.4899 224.192L19.5299 223.949L18.6899 224.071L17.8499 223.949L16.8899 224.192L15.8099 224.071H15.0899L14.1299 224.192L12.3299 223.949L11.6099 224.071H10.5299L9.56994 223.949H8.72994L7.76994 224.071L6.80994 223.827L5.00994 223.949H3.92994L2.96994 224.071L1.88994 223.949C1.28994 223.949 0.68994 223.341 0.80994 222.611C0.80994 222.003 1.40994 221.395 2.12994 221.516L2.84994 221.638L3.80994 221.516L4.76994 221.638L6.56994 221.516L7.40994 221.759L8.12994 221.638H9.20994H10.1699H11.0099L11.9699 221.516L13.7699 221.759L14.7299 221.638H15.8099L16.5299 221.759L17.3699 221.516L18.3299 221.638L19.2899 221.516L20.1299 221.759L20.9699 221.638H21.9299L22.7699 221.759L23.6099 221.638L24.5699 221.759L25.5299 221.638L26.6099 221.759H27.2099L28.1699 221.638L29.1299 221.881H29.8499L30.9299 221.638L31.8899 221.881L32.7299 221.759H34.7699H35.7299L36.6899 221.881H37.5299L38.4899 222.003L40.2899 221.881H41.2499H42.0899L44.7299 222.003L45.6899 221.759L46.6499 221.881L47.6099 221.759L48.5699 221.881L49.4099 221.759L51.3299 221.881L52.2899 221.759L53.2499 221.881H54.0899H55.8899L56.8499 221.638L59.6099 221.881L60.5699 221.759L61.4099 221.881L62.2499 221.638L64.1699 221.759L65.1299 221.638L65.9699 221.759L66.8099 221.638L68.7299 221.759L69.6899 221.638L70.6499 221.759L72.4499 221.638L73.4099 221.759H76.0499L77.8499 221.638L78.8099 221.759H79.6499L81.4499 221.638L83.2499 221.881L84.2099 221.759L85.0499 221.881L86.0099 221.638L87.0899 221.759H87.8099L89.6099 221.638H90.5699L91.5299 221.516L92.4904 221.759H93.2102L94.1697 221.638H95.2499L96.0904 221.759L96.93 221.638L98.0102 221.759L99.8102 221.638L100.65 221.759L101.49 221.516L103.41 221.638H104.25H105.21H106.05L107.85 221.759L108.81 221.638L109.65 221.759L110.61 221.516L111.57 221.759L112.41 221.638H113.37L115.29 221.516L116.13 221.759L116.97 221.638L117.93 221.759L120.69 221.638L121.77 221.759H122.37L123.33 221.638H124.29L125.13 221.516L127.05 221.638L127.89 221.516H128.85L129.81 221.395H130.77L131.61 221.516L132.45 221.395L133.29 221.516L134.13 221.395H135.33L136.05 221.516L136.89 221.395L137.97 221.516L138.93 221.638H139.65L140.61 221.395H141.81L142.65 221.516L144.33 221.395H145.29H147.09L147.93 221.516L148.77 221.273H150.09L150.81 221.395H151.53L152.49 221.151L154.29 221.273L155.25 221.03L156.33 221.151H157.17H158.13L159.81 221.03H160.89L161.73 221.151L162.57 221.03L163.53 221.151L164.49 221.03L165.45 221.151H166.29L167.25 221.03L168.21 221.151H169.05L170.97 221.273L172.77 221.151L173.73 221.273L174.57 221.151H176.37L177.33 221.03H178.53L179.25 221.151L180.09 221.03H181.05L182.01 220.908L183.69 221.03L184.77 220.908L185.61 221.151L186.57 220.908L187.53 221.151L188.37 221.03H189.33L191.25 220.908L192.09 221.151L192.93 221.03H193.89H194.85L195.69 221.151L196.65 220.908L197.61 221.151L198.45 221.03L200.25 221.273L201.21 221.151L202.05 221.273L203.01 221.03L203.97 221.273L204.81 221.151H205.77L206.73 221.03L208.53 221.273H210.21L211.17 221.151L212.13 221.273L213.09 221.151L214.17 221.395H214.89L215.85 221.273H216.81L219.69 221.03L220.65 221.273H221.37H222.33L223.29 221.151H224.13L225.09 221.03H226.29L227.01 221.151H227.85L228.69 221.273L229.53 221.03L231.45 221.151L232.41 221.03L233.25 221.151L234.09 221.03H235.29L236.01 221.151L236.97 221.03L237.93 221.151L238.89 221.03L240.81 221.151H241.65L243.33 221.273L244.29 221.151L245.25 221.273L246.09 221.151H247.29L248.13 221.273L248.97 221.151H249.93L251.73 221.395L252.69 221.273L253.65 221.395L254.49 221.273H255.33L256.29 221.151L257.25 221.273H258.09L259.89 221.151L261.81 221.273L263.61 221.03L265.53 221.151L268.29 221.03L269.13 221.151L269.97 221.03H271.29L272.01 221.151H272.73H273.69L274.65 221.03H275.73L276.57 221.151L279.21 221.03H280.17H281.13L282.93 221.151L283.89 221.03L285.69 221.151L286.65 221.03L287.61 221.151L289.53 221.03L290.49 221.151L292.17 221.03L294.93 221.151L296.01 220.908H297.09L297.93 221.151L298.65 221.03C299.25 220.908 299.97 221.273 300.09 222.003C300.21 222.611 299.85 223.341 299.13 223.463L297.93 223.706L296.85 223.463H296.25L295.29 223.706L292.41 223.584L290.49 223.706L289.53 223.584L287.73 223.706L286.89 223.584L286.05 223.706L284.13 223.584L283.29 223.706L281.37 223.584H280.53H279.57L276.81 223.706L275.85 223.584H275.01L274.05 223.706H273.09L272.13 223.827L271.17 223.584H270.45L269.49 223.827L268.41 223.706H267.69L266.85 223.827H265.77L263.97 223.706L262.17 223.827L260.25 223.706L258.57 223.827H257.37L256.65 223.706L255.81 223.827H254.85L253.89 223.949L253.05 223.827L252.09 223.949L250.17 223.706H249.45L248.37 223.827L247.41 223.706H246.57L245.61 223.827L244.65 223.706L243.81 223.827H242.85L241.89 223.706H241.05H239.25L238.29 223.827L237.45 223.706L236.61 223.827L235.53 223.706H234.81L233.85 223.827L232.89 223.706L232.05 223.827L230.37 223.706L229.41 223.949L228.45 223.827L227.49 223.949L226.53 223.706H225.81L224.85 223.827H223.89L222.93 223.949H221.97L221.01 224.071L220.05 223.827L217.41 223.949H216.45L215.49 224.071L214.29 223.949L213.57 223.827L212.73 223.949L211.77 223.827L210.81 223.949H208.89L207.09 223.706L206.25 223.827H205.29L204.33 223.949L203.49 223.827L202.65 224.071L201.69 223.949L200.85 224.071L199.05 223.827L198.09 223.949L197.25 223.706L196.41 223.949L195.45 223.827H194.61H193.65L192.57 223.949L191.61 223.706L189.93 223.827H188.97L187.89 223.949L187.05 223.706L185.61 224.192Z" fill="#ABABAB"/>
<path d="M177.81 205.584L176.85 205.463L175.89 205.584L175.05 205.341L174.09 205.584L173.25 205.341L172.29 205.463L171.33 205.341L170.49 205.463L169.53 205.341L168.69 205.463L167.73 205.341L166.89 205.584H165.93H164.97L164.13 205.341L163.17 205.463H162.33H161.37L160.53 205.341L159.57 205.463H158.61L157.77 205.341L156.81 205.463H155.97L155.01 205.584L154.17 205.341H153.21L152.25 205.463H151.41H150.45L149.61 205.341L148.65 205.463H147.69H146.85L145.89 205.341H145.05H144.09L143.13 205.463L142.29 205.584H141.33L140.37 205.341L139.53 205.584L138.57 205.341L137.73 205.463H136.77L135.81 205.341L134.97 205.463L134.01 205.341L133.17 205.463H132.21L131.25 205.341L130.41 205.463H129.45H128.61L127.65 205.341H126.69H125.85H124.89L123.93 205.463H123.09L122.13 205.341L121.17 205.463L120.33 205.341L119.37 205.463L118.53 205.341L117.57 205.463H116.61H115.65L114.81 205.219L113.85 204.976L113.01 204.368L112.53 203.516L112.17 202.666L112.05 201.692L111.93 200.719V199.746V198.895L112.05 197.922V197.071V196.098V195.124L111.93 194.273L112.05 193.301V192.327L111.93 191.476V190.503L112.05 189.53V188.679L111.93 187.706L112.05 186.854L111.81 185.881L112.05 184.908L111.93 184.057V183.084L112.05 182.111L111.93 181.259L112.05 180.287L111.93 179.436L111.81 178.463L111.93 177.489L112.05 176.638V175.666V174.814V173.841V172.868L111.93 172.016L111.81 171.044L111.93 170.071L112.05 169.219V168.246L111.93 167.273L112.05 166.422L111.93 165.449L112.05 164.476V163.624V162.651L111.93 161.801L112.05 160.827L111.93 159.854L112.05 159.003V158.03L111.93 157.057V156.206L112.05 155.233V154.259V153.408V152.436L111.93 151.584L112.05 150.611V149.638V148.787V147.814L111.93 146.841L112.05 145.989V145.016V144.044V143.192V142.219L111.93 141.368L112.05 140.395V139.422V138.571L111.93 137.598V136.624V135.773V134.801L112.05 133.827L111.93 132.976L112.05 132.003L111.93 131.151L112.05 130.179L111.93 129.206V128.354V127.381L111.81 126.53L111.93 125.557V124.584L112.05 123.733L111.93 122.759V121.787V120.936V119.962L112.05 118.989L111.93 118.138L111.81 117.166L111.93 116.192L112.05 115.341L111.93 114.368V113.395L112.05 112.544V111.571L111.81 110.598L112.05 109.746L111.81 108.773L111.93 107.801L112.05 106.949V105.976L111.93 105.003V104.151L112.05 103.179V102.206L111.93 101.354L112.05 100.381L111.93 99.4079V98.5573V97.5841L112.05 96.611L111.81 95.7595L111.93 94.7872V93.814L112.05 92.9625L111.93 91.9893V91.0162L112.05 90.1656L111.93 89.1924L112.05 88.2192V87.246V86.3945L112.17 85.4223L112.53 84.4489L113.01 83.5976L113.85 83.1111L114.69 82.6246H115.65H116.61H117.57L118.41 82.5029H119.37H120.21L121.17 82.6246H122.13L122.97 82.5029H123.93L124.77 82.6246L125.73 82.5029H126.57H127.53H128.49H129.33L130.29 82.6246H131.13L132.09 82.7462L132.93 82.6246H133.89L134.85 82.5029L135.69 82.6246H136.65L137.49 82.5029L138.45 82.6246L139.29 82.5029L140.25 82.7462L141.21 82.5029H142.05L143.01 82.6246L143.97 82.5029H144.81H145.77H146.61L147.57 82.6246H148.41L149.37 82.5029L150.33 82.6246L151.17 82.7462L152.13 82.6246H153.09L153.93 82.5029L154.89 82.6246H155.73H156.69H157.65L158.49 82.5029H159.45H160.29L161.25 82.7462L162.21 82.6246L163.05 82.5029L164.01 82.6246H164.85H165.81H166.77H167.61H168.57H169.53H170.37H171.33L172.29 82.5029L173.13 82.6246H174.09H174.93H175.89H176.85L177.81 82.5029L178.65 82.7462L179.61 82.9894L180.45 83.5976L181.05 84.4489L181.41 85.4223L181.53 86.3945V87.246V88.2192V89.0707L181.65 90.0439L181.41 91.0162L181.65 91.8677L181.41 92.8409L181.65 93.814L181.41 94.6656V95.6378L181.53 96.611V97.4625L181.41 98.4357L181.53 99.2872V100.259L181.41 101.233L181.53 102.084V103.057L181.41 104.03V104.881L181.53 105.854L181.41 106.706V107.679L181.65 108.651L181.53 109.503L181.65 110.476L181.53 111.449V112.301V113.273L181.41 114.124L181.53 115.098L181.41 116.071L181.53 116.922L181.41 117.895L181.53 118.868L181.41 119.719L181.53 120.692L181.41 121.666L181.53 122.516V123.489L181.41 124.341L181.65 125.314L181.53 126.287L181.41 127.138V128.111V129.084L181.53 129.936L181.41 130.908V131.881L181.53 132.733V133.706V134.557L181.41 135.53L181.53 136.503L181.41 137.354V138.327L181.53 139.301L181.41 140.151V141.124V142.098V142.949L181.53 143.922V144.895L181.41 145.746L181.53 146.719V147.571L181.41 148.544V149.516L181.53 150.368V151.341V152.314V153.166V154.138L181.41 154.989L181.65 155.963L181.53 156.936L181.41 157.787V158.759L181.53 159.733L181.65 160.584L181.53 161.557V162.408V163.381L181.41 164.354V165.206V166.179V167.151V168.003L181.53 168.976V169.949L181.41 170.801L181.53 171.773L181.65 172.746L181.41 173.598L181.53 174.571V175.544L181.41 176.395V177.368L181.53 178.341V179.192V180.166V181.138V181.989V182.963L181.65 183.936L181.53 184.787V185.759V186.733V187.584V188.557L181.41 189.53L181.53 190.381L181.41 191.354V192.327V193.179L181.53 194.151L181.41 195.124V195.976L181.53 196.949L181.41 197.922V198.773L181.53 199.746L181.41 200.719L181.53 201.692L181.41 202.666L180.93 203.516L180.33 204.246L179.61 204.976L178.77 205.341L177.81 205.584Z" fill="#201F1B"/>
<path d="M135.33 87.4893L136.289 87.611H137.25H138.089L139.05 87.3677L140.01 87.4893L140.97 87.3677H141.81H142.77L143.73 87.4893L144.689 87.3677H145.53L146.489 87.611L147.45 87.3677H148.289L149.25 87.611L150.21 87.3677L151.17 87.4893L152.13 87.3677L152.97 87.611H153.93L154.889 87.4893H155.85L156.689 87.611L157.65 87.4893L158.61 87.3677" fill="#5D5FEF"/>
<path d="M137.25 88.4625H135.33V86.6378H137.25H138.089L138.93 86.5162C139.05 86.5162 139.17 86.5162 139.17 86.5162L140.01 86.6378L140.85 86.5162H142.889H143.01L143.73 86.6378L144.45 86.5162H144.57H145.53H145.65L146.37 86.6378L147.089 86.5162H147.21H148.17C148.17 86.5162 148.289 86.5162 148.41 86.5162L149.13 86.6378L149.85 86.5162H149.97H150.81L151.65 86.3945C151.77 86.3945 151.889 86.3945 152.01 86.3945L152.85 86.6378L155.489 86.5162H155.61L156.45 86.6378L157.289 86.5162L158.25 86.3945L158.37 88.2192L157.41 88.3409L156.57 88.4625C156.45 88.4625 156.45 88.4625 156.33 88.4625L155.489 88.3409L152.73 88.4625C152.61 88.4625 152.61 88.4625 152.489 88.4625L151.65 88.3409L150.93 88.4625H150.81H149.97L149.13 88.5842C149.01 88.5842 148.889 88.5842 148.77 88.5842L147.93 88.4625H147.21L146.37 88.5842C146.25 88.5842 146.13 88.5842 146.01 88.5842L145.17 88.4625H144.45L143.61 88.5842C143.489 88.5842 143.37 88.5842 143.25 88.5842L142.41 88.4625H141.57H140.73L139.889 88.5842C139.77 88.5842 139.65 88.5842 139.65 88.5842L138.81 88.4625H138.33H138.21H137.25Z" fill="white"/>
<path d="M149.61 199.259L149.49 200.111L149.01 200.963L148.41 201.571L147.57 201.936L146.73 202.179L145.77 202.057L145.05 201.692L144.45 200.963L144.09 200.111L143.73 199.259L144.09 198.408L144.33 197.557L145.05 196.949L145.77 196.463L146.73 196.341L147.57 196.584L148.41 196.827L149.01 197.557L149.37 198.408L149.61 199.259Z" fill="#D9D9D7"/>
<path d="M176.25 92.111L176.01 92.9625V93.9357L176.13 94.9088L176.25 95.7594L176.13 96.7326L176.25 97.5841L176.13 98.5573V99.5305V100.381L176.25 101.354V102.206L176.13 103.179V104.03L176.25 105.003V105.976L176.13 106.827L176.25 107.801L176.13 108.651V109.624V110.598V111.449L176.25 112.422V113.273L176.13 114.246V115.219V116.071V117.044V117.894V118.868L176.01 119.719V120.692L176.13 121.666L176.25 122.516V123.489L176.13 124.341V125.314L176.25 126.287V127.138L176.01 128.111V128.962L176.25 129.936L176.01 130.909L176.13 131.759L176.25 132.733L176.13 133.584L176.25 134.557V135.53V136.381L176.13 137.354V138.206V139.179L176.25 140.03V141.003V141.976L176.13 142.827V143.801L176.25 144.651L176.13 145.624L176.25 146.598L176.13 147.449V148.422L176.25 149.273V150.246V151.098L176.13 152.071V153.044V153.894V154.868L176.25 155.719V156.692L176.13 157.666V158.516L176.01 159.489V160.341L176.13 161.314L176.25 162.287L176.01 163.138V164.111L176.25 164.962L176.13 165.936V166.909V167.759L176.01 168.733L176.25 169.706V170.557L176.13 171.53L176.01 172.381L176.13 173.354L176.25 174.327V175.179V176.152L176.13 177.003V177.976V178.949V179.801V180.773L176.01 181.746L176.13 182.598L176.25 183.571L176.13 184.422L176.25 185.394L176.13 186.368L176.25 187.219L176.13 188.192L176.25 189.166V190.016L176.01 190.989L176.25 191.962L176.13 192.936L175.29 192.814H174.33H173.37L172.53 192.936H171.57H170.73H169.77L168.81 192.814H167.97H167.01H166.17L165.21 192.936H164.25H163.41L162.45 192.814H161.61H160.65H159.81L158.85 192.936H157.89L157.05 192.814H156.09L155.13 192.936L154.29 192.814H153.33L152.49 192.936L151.53 192.814L150.57 192.936H149.73H148.77L147.93 192.814L146.97 192.936H146.01H145.17L144.21 192.814H143.25L142.41 193.057L141.45 192.814H140.49L139.65 192.936H138.69H137.85L136.89 192.814H135.93H135.09L134.13 192.936H133.17H132.33H131.37L130.41 192.814L129.57 192.936H128.61L127.77 192.814H126.81L125.85 192.936H125.01L124.05 192.814H123.09H122.25L121.29 192.936L120.33 192.814L119.37 192.936H118.53L117.57 192.814L117.45 191.962V190.989L117.57 190.138L117.69 189.166L117.45 188.314V187.341L117.69 186.368V185.516L117.45 184.544V183.692L117.57 182.719L117.45 181.868L117.57 180.895L117.45 179.922L117.57 179.071V178.098V177.246L117.45 176.273V175.422L117.57 174.449V173.476L117.69 172.624L117.45 171.651L117.57 170.679L117.45 169.827L117.69 168.854V168.003L117.45 167.03V166.179L117.57 165.206L117.45 164.233L117.57 163.381V162.409L117.69 161.557V160.584L117.57 159.611L117.45 158.759V157.787L117.57 156.936L117.45 155.962L117.57 154.989L117.69 154.138L117.57 153.166V152.314L117.69 151.341V150.368L117.57 149.516V148.544V147.692V146.719V145.868L117.45 144.895V143.922V143.071V142.098V141.246V140.273L117.69 139.301L117.45 138.449V137.476V136.624V135.652L117.57 134.801L117.69 133.827L117.57 132.854V132.003L117.69 131.03L117.57 130.179V129.206L117.69 128.233V127.381L117.57 126.409L117.45 125.557L117.69 124.584V123.611L117.57 122.759L117.69 121.787L117.45 120.936L117.57 119.962L117.45 118.989L117.57 118.138V117.166L117.45 116.192L117.57 115.341V114.368L117.45 113.516L117.57 112.544V111.571V110.719L117.69 109.746V108.773V107.922L117.45 106.949L117.69 106.098L117.57 105.124V104.151L117.69 103.301V102.327V101.476L117.45 100.503L117.57 99.5305L117.69 98.679V97.7058L117.45 96.7326L117.57 95.8811V94.9088V93.9357L117.69 93.0841L117.57 92.111H118.53H119.37L120.33 91.9893L121.17 92.111H122.13H123.09L123.93 91.9893H124.89H125.73L126.69 92.2326L127.65 92.111L128.49 92.2326L129.45 91.9893L130.29 92.111L131.25 91.9893L132.21 92.111H133.05H134.01H134.85L135.81 92.2326H136.77L137.61 91.9893L138.57 92.111H139.41H140.37H141.33H142.17H143.13L144.09 91.9893L144.93 92.2326L145.89 91.9893H146.73L147.69 92.2326L148.65 91.9893L149.49 92.111H150.45H151.41L152.25 91.9893L153.21 92.111H154.17L155.01 92.2326L155.97 92.111L156.81 91.9893L157.77 92.2326H158.73L159.57 92.111L160.53 91.9893L161.49 92.111H162.33L163.29 92.2326H164.25H165.09H166.05L166.89 91.9893H167.85H168.81L169.65 92.111H170.61H171.57L172.41 91.9893L173.37 92.111H174.33H175.29H176.25Z" fill="white"/>
<path d="M171.33 143.114H170.49H169.53L168.57 142.87H167.85L166.77 143.114L164.97 142.992L164.13 143.114H163.05L161.25 142.992L160.29 143.114L158.49 142.992L157.53 143.114L154.77 142.992L153.81 143.114L152.85 142.992H152.01H151.05L150.21 143.114H149.25H148.29L147.33 142.992L146.49 143.114L143.73 142.992L142.77 143.114L141.93 142.992L140.97 143.114L140.01 142.992L139.05 143.114L138.09 142.992H137.25L136.41 143.114H135.33L134.49 142.992L133.53 143.114L132.69 142.87L131.73 143.114L130.77 142.992L128.97 143.114L128.01 142.992H127.17L126.21 143.114H125.25L124.41 142.992L123.45 143.114L122.37 142.992L122.73 141.168L123.45 141.29L124.41 141.168L125.37 141.29H126.09L127.05 141.168H128.13L128.97 141.29L130.77 141.047L131.73 141.29L132.69 141.047L133.53 141.29L134.49 141.168L135.45 141.29L138.21 141.168L139.05 141.29L140.01 141.168L140.97 141.29L141.81 141.168L142.77 141.29L143.61 141.168L146.37 141.29L147.45 141.047L148.41 141.29H149.13H150.09L151.05 141.168H152.13H152.85L153.81 141.29L154.77 141.168L157.53 141.29L158.49 141.047L160.29 141.29L161.13 141.168L163.17 141.29H164.01L164.85 141.047L165.93 141.168L166.77 141.29L167.73 141.168L168.69 141.047L169.65 141.29H170.49H171.45L171.33 143.114Z" fill="#5D5FEF"/>
<path d="M166.89 133.496L166.05 133.253L165.33 132.888L164.73 132.402L164.25 131.672L164.01 130.82L165.21 130.698L165.45 131.672L166.05 132.28L166.77 132.402L166.89 131.55V130.577L166.77 129.604V129.483L165.93 129.24L165.09 128.875L164.37 128.266L164.01 127.415L164.37 126.563L164.73 125.712L165.69 125.347L166.53 125.225V124.375L167.25 124.496L167.37 125.225L168.21 125.59L169.05 126.077L169.77 126.807L169.89 127.78L168.69 127.902L168.45 126.807L167.49 126.32L167.61 127.172L167.49 128.023V128.875L168.57 129.24L169.53 129.604L170.01 130.455L170.25 131.428L169.89 132.28L169.29 133.01L168.45 133.496L167.49 133.618L167.37 134.59H166.77L166.89 133.496ZM166.89 128.631L167.01 127.415V126.198L165.93 126.442L165.45 127.293L165.93 128.145L166.89 128.631ZM169.05 131.307L168.57 130.212L167.37 129.847V130.698V131.55V132.402L168.33 132.037L169.05 131.307Z" fill="#5D5FEF"/>
<path d="M137.371 127.293H138.21L139.171 127.415L140.01 127.293L140.971 127.415H141.81L142.771 127.537L143.61 127.415L144.571 127.293H145.41L146.371 127.415L147.21 127.293H148.171L149.01 127.415H149.971L150.81 127.537L151.771 127.415H152.61H153.571H154.41L155.371 127.537L156.21 127.415H157.171H158.01H158.971" fill="white"/>
<path d="M150.81 128.388L149.85 128.266H149.01L148.05 128.145H146.371L144.571 128.023L142.89 128.145C142.771 128.145 142.771 128.145 142.65 128.145L141.69 128.023H140.85L139.89 127.902L139.05 128.023H138.93L137.971 127.902H137.13V126.077H138.09L138.93 126.198L139.771 126.077H139.89L140.73 126.198H141.571L142.41 126.32L143.25 126.198L144.21 126.077L146.13 126.198H147.93L148.89 126.32H149.73L150.571 126.442L151.41 126.32H152.371L155.13 126.442L155.971 126.32H156.93H157.771L158.85 126.442L158.73 128.266L157.771 128.145H156.93H155.971L155.13 128.266L152.25 128.145H151.41L150.81 128.388Z" fill="#5D5FEF"/>
<path d="M137.371 131.307L138.21 131.185L139.171 131.307H140.01L140.971 131.185L141.81 131.307H142.771L143.61 131.185L144.571 131.307L145.41 131.185H146.371H147.21L148.171 131.428L149.13 131.307L149.971 131.185H150.93L151.771 131.428" fill="white"/>
<path d="M148.171 133.195H148.05L147.21 133.073H146.371H145.41L144.571 133.195C144.45 133.195 144.45 133.195 144.33 133.195L143.61 133.073L142.89 133.195C142.771 133.195 142.771 133.195 142.65 133.195L140.971 133.073L139.171 133.195C139.05 133.195 139.05 133.195 138.93 133.195L138.09 133.073L137.25 133.195L137.13 131.37L138.09 131.248C138.21 131.248 138.21 131.248 138.33 131.248L139.171 131.37L140.85 131.248H140.971L142.65 131.37L143.371 131.248C143.49 131.248 143.61 131.248 143.73 131.248L144.571 131.37L145.41 131.248H146.371H147.21C147.21 131.248 147.33 131.248 147.45 131.248L148.29 131.37H149.01L149.85 131.248C149.971 131.248 149.971 131.248 150.09 131.248H151.05C151.171 131.248 151.171 131.248 151.29 131.248L152.25 131.491L151.89 133.316L151.05 133.073H150.33L149.49 133.195C149.49 133.195 149.371 133.195 149.25 133.195H148.171Z" fill="#5D5FEF"/>
<path d="M127.77 134.406L127.17 133.554L126.57 132.947L125.85 132.46L125.37 131.73L124.77 131.122L123.93 130.635L123.45 129.906L122.73 129.297L122.25 128.69L122.73 127.96L123.45 127.474L124.05 126.744L124.53 126.014L125.13 125.527L125.85 124.919L126.57 124.312L127.05 123.582L127.77 122.974L128.37 123.582L128.85 124.312L129.57 124.919L130.289 125.406L130.77 126.135L131.489 126.622L131.97 127.352L132.689 127.96L133.17 128.69L132.689 129.297L132.089 129.906L131.37 130.392L130.77 131.122L130.17 131.73L129.45 132.217L128.97 132.947L128.489 133.676L127.77 134.406Z" fill="#00643C"/>
<path d="M127.77 135.257C127.65 135.257 127.65 135.257 127.77 135.257C127.41 135.257 127.17 135.135 127.05 134.892L126.57 134.162L125.97 133.676L125.37 133.189L125.25 133.068L124.77 132.338L124.289 131.852L123.57 131.487C123.45 131.487 123.45 131.365 123.33 131.244L122.73 130.514L122.13 130.027L122.01 129.906L121.41 129.176C121.17 128.811 121.17 128.325 121.41 127.96L122.01 127.352L122.73 126.744L123.689 125.527C123.689 125.527 123.689 125.406 123.81 125.406L125.13 124.189L125.85 123.703L126.33 123.095C126.33 122.974 126.45 122.974 126.45 122.974L127.17 122.365C127.53 122.122 128.01 122.122 128.37 122.365L128.97 122.974L129.089 123.095L129.57 123.703L130.17 124.189L130.77 124.676L130.889 124.797L131.489 125.406L132.089 125.892L132.21 126.014L132.689 126.622L133.289 127.109C133.41 127.109 133.41 127.23 133.53 127.352L134.01 128.082C134.25 128.447 134.25 128.932 134.01 129.176L132.93 130.514C132.93 130.635 132.81 130.635 132.689 130.635L132.089 131L131.01 132.217L130.889 132.338L130.289 132.825L129.33 134.162L129.21 134.284L128.489 134.892C128.13 135.135 127.889 135.257 127.77 135.257ZM126.45 131.852L127.05 132.338L127.77 132.947C127.77 132.947 127.77 132.947 127.889 133.068L128.85 131.852C128.85 131.73 128.97 131.73 129.089 131.609L129.689 131.122L130.77 129.906C130.77 129.784 130.889 129.784 131.01 129.662L131.61 129.297L132.21 128.689L131.61 128.203L131.489 128.082L131.01 127.474L130.41 126.987L129.81 126.257L129.21 125.77L128.489 125.162L128.37 125.041L127.889 124.432L127.41 125.041C127.41 125.162 127.289 125.162 127.17 125.284L126.45 125.77L125.37 126.865L124.289 128.203L123.57 128.811L124.17 129.419L124.77 130.027L125.37 130.392C125.489 130.392 125.489 130.514 125.489 130.514L126.089 131.122C126.089 131.122 126.089 131.244 126.21 131.244L126.45 131.852Z" fill="#5D5FEF"/>
<path d="M151.05 168.309L150.09 168.066L149.25 168.187L147.33 168.066H146.49L145.53 168.187L144.57 168.066H143.73L142.77 168.187H141.81L140.01 168.066H139.17L138.21 168.187L137.13 168.066H136.29L135.45 167.944L134.49 168.187L133.53 168.066L132.57 168.187L131.73 168.066L130.89 168.187L127.17 168.066L126.21 168.187L125.25 168.066L123.45 168.187L122.37 167.944L122.73 166.242L123.57 166.364L125.25 166.242L126.21 166.364L127.05 166.242L130.77 166.364L131.73 166.12L132.69 166.364L133.53 166.242L134.37 166.364L135.33 166.12L136.41 166.242H137.37L138.21 166.364L138.93 166.242H140.01L142.65 166.364L143.61 166.242H144.69L145.53 166.364L146.37 166.242H147.33L149.13 166.364L150.21 166.12L151.05 166.364L151.89 166.242H153.09L153.93 166.364H154.65H155.73H156.57L157.53 166.242L158.49 166.364H161.25H162.09L163.05 166.242L164.01 166.364L164.85 166.242H165.81L166.89 166.12L167.73 166.364H168.57L169.53 166.242L170.49 166.364L171.33 166.242L171.57 168.066L170.49 168.187L169.53 168.066L168.69 168.187H167.61L166.77 168.066H165.93H164.97L164.01 168.187L163.05 168.066L162.21 168.187H161.13H158.37L157.53 168.066L156.69 168.187H155.61H154.77H153.81L152.85 168.066H152.13L151.05 168.309Z" fill="#5D5FEF"/>
<path d="M166.89 158.57L166.05 158.327L165.21 158.084L164.61 157.354L164.25 156.624L164.01 155.772H165.09L165.45 156.502L165.93 157.232L166.77 157.475V156.502V155.529V154.557V154.435L165.81 154.313L165.09 153.705L164.37 153.219V152.245V151.272L165.09 150.542L165.93 150.178L166.77 149.935V149.084L167.49 149.205L167.61 149.935L168.33 150.3L169.05 150.786L169.65 151.516L169.89 152.489H168.69L168.33 151.516L167.49 151.029L167.37 151.759V152.61V153.462L168.33 153.827L169.29 154.07L169.77 154.921L170.01 155.894L169.89 156.867L169.17 157.597L168.33 158.205L167.37 158.327L167.25 159.3H166.65L166.89 158.57ZM166.89 153.705V152.61L166.77 151.516L165.93 151.759L165.45 152.61L165.93 153.462L166.89 153.705ZM169.05 156.381L168.57 155.407L167.61 155.042L167.49 155.894V156.745V157.597L168.57 157.354L169.05 156.381Z" fill="#5D5FEF"/>
<path d="M137.371 152.489H138.21H139.171H140.01L140.971 152.367H141.81L142.771 152.489H143.61L144.571 152.367H145.41H146.371L147.21 152.489H148.171H149.01H149.971H150.81L151.771 152.61L152.61 152.489L153.571 152.61L154.41 152.367L155.371 152.489L156.21 152.367H157.171L158.01 152.489H158.971" fill="white"/>
<path d="M151.771 153.462L149.971 153.34H149.13H149.01H148.171L147.33 153.462C147.21 153.462 147.21 153.462 147.09 153.462L146.25 153.34H145.41H145.29L144.45 153.219L143.73 153.34C143.61 153.34 143.61 153.34 143.49 153.34L141.69 153.219L138.09 153.34H137.13V151.516H138.09H139.89L140.73 151.394H141.69H141.81L143.49 151.516L144.33 151.394C144.45 151.394 144.45 151.394 144.571 151.394L145.41 151.516H146.25C146.371 151.516 146.371 151.516 146.49 151.516L147.33 151.637L148.171 151.516H148.29H149.13H149.971H150.09L151.89 151.637H152.73H153.571L154.41 151.516C154.53 151.516 154.65 151.516 154.65 151.516L155.49 151.637L157.29 151.516C157.41 151.516 157.41 151.516 157.53 151.516L158.371 151.637H159.21V153.462H158.25H158.13L157.29 153.34L155.61 153.462H155.49L154.771 153.34L154.05 153.462C153.93 153.462 153.93 153.462 153.81 153.462H152.85H151.771Z" fill="#5D5FEF"/>
<path d="M137.37 156.259H138.21L139.17 156.38H140.01L140.97 156.502L141.81 156.259L142.77 156.38H143.61H144.57H145.41L146.37 156.259L147.21 156.38H148.17L149.13 156.502L149.97 156.38H150.93L151.77 156.259" fill="white"/>
<path d="M140.97 158.268L140.01 158.147H139.17L137.37 158.025L137.49 156.2L139.29 156.322H140.13L140.97 156.444L141.69 156.2C141.81 156.2 141.93 156.2 142.05 156.2L143.01 156.322H143.85H144.69H145.65L146.49 156.2C146.61 156.2 146.73 156.2 146.73 156.2L147.57 156.322H148.41H148.53L149.37 156.444L150.21 156.322H151.17L152.01 156.2L152.25 158.025L151.29 158.147H150.33L149.49 158.268H149.37L148.53 158.147H147.69C147.57 158.147 147.57 158.147 147.45 158.147L146.73 158.025L146.01 158.147C146.01 158.147 145.89 158.147 145.77 158.147H144.81H143.97H143.01L142.17 158.025L141.45 158.268C141.09 158.268 140.97 158.268 140.97 158.268Z" fill="#5D5FEF"/>
<path d="M133.17 158.692L132.21 158.57L131.25 158.692L130.41 158.813L129.57 158.692L128.61 158.813H127.77L126.81 158.57H125.97L125.01 158.813L124.17 158.57L123.33 158.692H122.37L122.85 157.84L123.33 157.11L123.81 156.259L124.41 155.529L124.77 154.678L125.37 153.948L125.85 153.097L126.21 152.245L126.81 151.516L127.17 150.664L127.77 149.935L128.13 150.664L128.85 151.394L129.09 152.367L129.69 153.097L130.05 153.948L130.65 154.678L131.13 155.407L131.49 156.259L132.09 157.11L132.45 157.962L133.17 158.692Z" fill="white"/>
<path d="M127.77 159.664C127.65 159.664 127.65 159.664 127.53 159.664L126.81 159.422H126.21L125.37 159.664C125.25 159.664 125.13 159.664 125.01 159.664L124.29 159.543L123.57 159.664H123.45H122.49C122.13 159.664 121.89 159.422 121.77 159.178C121.65 158.935 121.65 158.57 121.77 158.327L122.25 157.475L122.85 156.624L123.21 155.894C123.21 155.772 123.33 155.772 123.33 155.651L123.81 155.043L124.05 154.313C124.05 154.192 124.17 154.192 124.17 154.07L124.65 153.34L125.49 151.759C125.49 151.637 125.61 151.637 125.61 151.516L126.09 150.907L126.45 150.178C126.45 150.178 126.45 150.057 126.57 150.057L127.05 149.327C127.17 149.084 127.53 148.962 127.77 148.962C128.13 148.962 128.37 149.084 128.49 149.448L128.97 150.178L129.57 150.786C129.69 150.907 129.69 151.029 129.69 151.151L129.93 151.881L130.41 152.489L130.53 152.61L130.89 153.34L131.37 154.07L131.85 154.922L132.21 155.772L132.69 156.502L133.17 157.354L133.77 158.084C134.01 158.327 134.01 158.813 133.89 159.178C133.65 159.543 133.29 159.664 132.93 159.664L132.09 159.543L130.41 159.786H130.29H129.45L128.61 159.907L127.77 159.664ZM126.81 157.597C126.93 157.597 126.93 157.597 127.05 157.597L127.77 157.84H128.49L129.33 157.719H129.45H130.29L131.25 157.597L131.13 157.475L130.65 156.745C130.65 156.745 130.65 156.624 130.53 156.624L130.17 155.772L129.21 154.313C129.21 154.313 129.21 154.192 129.09 154.192L128.73 153.462L128.25 152.854C128.13 152.732 128.13 152.61 128.13 152.489L127.89 151.759L127.65 151.516L127.53 151.759C127.53 151.881 127.41 151.881 127.41 152.002L126.93 152.61L126.09 154.192C126.09 154.192 126.09 154.313 125.97 154.313L125.49 154.922L125.25 155.651C125.25 155.772 125.13 155.894 125.13 155.894L124.53 156.502L124.05 157.475C124.17 157.475 124.17 157.475 124.29 157.475L125.01 157.597L125.73 157.475C125.85 157.475 125.85 157.475 125.97 157.475L126.81 157.597Z" fill="#5D5FEF"/>
<path d="M166.89 183.644L166.05 183.522L165.21 183.157L164.61 182.549L164.01 181.819V180.846H165.21L165.33 181.819L166.05 182.306L166.77 182.671L166.89 181.819L167.01 180.846L166.89 179.874L166.05 179.509L165.21 179.266L164.61 178.536L164.25 177.684L164.61 176.833L165.09 175.981L166.05 175.617L166.89 175.374V174.522H167.73L167.61 175.495L168.57 175.739L169.29 176.346L169.89 177.076L170.01 177.927H168.93L168.45 177.076L167.61 176.468V177.319V178.171V178.901L168.45 179.144L169.29 179.752L170.01 180.359L170.13 181.333L170.01 182.306L169.41 183.036L168.57 183.522L167.73 183.644V184.617L167.01 184.495L166.89 183.644ZM166.89 178.779L166.77 177.684V176.589L165.93 176.833L165.57 177.684L165.93 178.536L166.89 178.779ZM168.93 181.454L168.45 180.603L167.61 180.117L167.49 180.968L167.61 181.819L167.49 182.671L168.45 182.427L168.93 181.454Z" fill="#5D5FEF"/>
<path d="M137.371 177.441L138.21 177.562H139.171H140.01L140.971 177.684H141.81L142.771 177.562H143.61L144.571 177.441H145.41H146.371L147.21 177.562L148.171 177.684L149.01 177.562L149.971 177.684H150.81L151.771 177.562H152.61L153.571 177.684H154.41L155.371 177.441H156.21L157.171 177.562H158.01L158.971 177.441" fill="white"/>
<path d="M149.97 178.536C149.85 178.536 149.85 178.536 149.97 178.536L149.01 178.414L148.17 178.536C148.05 178.536 148.05 178.536 147.93 178.536L146.13 178.292H145.29H144.45L143.61 178.414C143.49 178.414 143.49 178.414 143.37 178.414H142.53H140.73H140.61L139.77 178.292L138.93 178.414C138.81 178.414 138.81 178.414 138.69 178.414L136.89 178.292L137.01 176.468L138.69 176.589L139.53 176.468C139.65 176.468 139.65 176.468 139.77 176.468L140.61 176.589H142.29H143.13L143.97 176.468C144.09 176.468 144.09 176.468 144.21 176.468H145.05H145.89C145.89 176.468 146.01 176.468 146.13 176.468L147.81 176.711L148.65 176.589C148.77 176.589 148.77 176.589 148.89 176.589L149.73 176.711H151.41L152.25 176.589C152.37 176.589 152.37 176.589 152.49 176.589L153.33 176.711H154.05L154.89 176.589H155.85C155.97 176.589 155.97 176.589 156.09 176.589L156.93 176.711H157.65L158.49 176.468L158.85 178.292L157.89 178.536C157.77 178.536 157.77 178.536 157.65 178.536H156.69H156.57L155.73 178.414H154.89L154.05 178.536H153.93H152.97H152.85L152.01 178.414L151.17 178.536H149.97Z" fill="#5D5FEF"/>
<path d="M137.37 181.576H138.21L139.17 181.333L140.01 181.454L140.97 181.576L141.81 181.333L142.77 181.576L143.61 181.454L144.57 181.333L145.41 181.576L146.37 181.454H147.21H148.17H149.13L149.97 181.576L150.93 181.454H151.77" fill="white"/>
<path d="M138.21 183.342H137.25V181.518H138.09L138.93 181.397C139.05 181.397 139.05 181.397 139.17 181.397H140.13L140.97 181.518L141.69 181.397C141.81 181.397 141.93 181.397 142.05 181.397L142.89 181.518H143.73L144.57 181.397C144.69 181.397 144.81 181.397 144.93 181.397L145.65 181.518L146.37 181.397L150.09 181.518L150.93 181.397H151.05H152.01L151.89 183.22H151.05L150.21 183.342H150.09H149.13H148.29H146.49L145.65 183.464C145.53 183.464 145.41 183.464 145.41 183.464L144.69 183.342L143.97 183.464L143.01 183.585C142.89 183.585 142.89 183.585 142.77 183.585L142.05 183.464L141.33 183.585C141.21 183.585 141.09 183.585 141.09 183.585L140.25 183.464H139.53L138.69 183.585C138.33 183.342 138.33 183.342 138.21 183.342Z" fill="#5D5FEF"/>
<path d="M132.81 179.752V180.603L132.57 181.576L132.33 182.427L131.61 183.036L131.13 183.766L130.29 184.252L129.45 184.495L128.61 184.982H127.77H126.81L125.97 184.739L125.13 184.374L124.41 183.766L123.81 183.036L123.21 182.306L122.85 181.576L122.61 180.603L122.49 179.752L122.73 178.779L122.85 177.927L123.21 177.076L123.69 176.224L124.29 175.617L125.13 175.131L125.97 174.644L126.81 174.522L127.77 174.401L128.61 174.644L129.45 174.766L130.29 175.252L131.01 175.739L131.73 176.346L132.21 177.076L132.57 177.927L132.69 178.779L132.81 179.752Z" fill="#DDEDFA"/>
<path d="M127.77 185.954H126.81C126.69 185.954 126.69 185.954 126.57 185.954L125.73 185.711H125.61L124.77 185.346C124.65 185.346 124.65 185.224 124.53 185.224L123.81 184.617L123.69 184.495L123.09 183.766L122.49 183.157C122.37 183.036 122.37 183.036 122.37 182.914L122.01 182.063C122.01 181.941 122.01 181.941 121.89 181.819L121.77 180.968L121.53 180.117C121.53 179.995 121.53 179.752 121.53 179.631L121.77 178.779L121.89 177.927C121.89 177.806 121.89 177.684 122.01 177.684L122.85 175.981C122.85 175.86 122.97 175.86 122.97 175.739L123.57 175.131C123.57 175.131 123.69 175.009 123.81 175.009L125.37 174.036C125.49 174.036 125.49 173.914 125.61 173.914L126.57 173.792L127.53 173.671C127.65 173.671 127.65 173.671 127.77 173.671L129.57 174.036C129.69 174.036 129.69 174.036 129.81 174.157L131.37 175.009L131.49 175.131L132.21 175.739C132.33 175.86 132.33 175.86 132.45 175.981L133.29 177.563C133.29 177.684 133.41 177.806 133.41 177.806L133.53 178.657L133.65 179.631V180.481C133.65 180.603 133.65 180.603 133.65 180.724L133.41 181.576V181.698L133.05 182.549C133.05 182.671 132.93 182.792 132.81 182.792L132.21 183.401L131.73 184.009C131.61 184.131 131.61 184.131 131.49 184.252L130.65 184.739C130.65 184.739 130.53 184.739 130.53 184.86L129.81 185.103L129.09 185.468C128.97 185.589 128.85 185.589 128.61 185.589L127.77 185.954ZM126.93 184.009H127.77H128.49L129.09 183.644H129.21L129.93 183.401L130.53 183.036L131.01 182.427L131.61 181.819L131.85 181.211L131.97 180.481L131.85 178.779L131.73 178.049L131.01 176.711L130.53 176.224L129.09 175.495L127.65 175.131L126.81 175.252L126.09 175.374L124.77 176.103L124.29 176.589L123.57 177.927L123.45 178.657C123.45 178.779 123.45 178.779 123.45 178.901L123.21 179.509L123.33 180.117L123.45 180.968L123.69 181.576L124.17 182.184L124.77 182.914L125.37 183.401L125.97 183.766L126.93 184.009Z" fill="#5D5FEF"/>
<path d="M131.73 117.125L130.65 117.004H129.93L129.089 117.125H128.01L127.05 117.004H126.21L123.57 116.882L122.73 117.004L122.37 115.302L123.45 115.058L127.17 115.18L128.13 115.302H128.97L129.81 115.18H130.77L131.73 115.302L132.689 115.18L133.53 115.302L134.489 115.18L135.33 115.302L136.289 115.058H137.25L138.21 115.18L139.17 115.302H140.01H140.97L141.81 115.18L143.61 115.302H144.57H145.53L146.489 115.058L147.33 115.18L148.289 115.058L149.37 115.302H152.01H152.85L153.81 115.18L154.77 115.302L156.57 115.18L158.489 115.302L160.289 115.18H161.25L162.089 115.302L163.05 115.058L164.01 115.302L164.97 115.18L165.81 115.302L166.65 115.18L167.61 115.302L168.57 115.18H169.65H170.489L171.57 115.302L171.33 117.125L170.489 117.004H169.65H168.689L167.73 117.125L166.77 117.004L165.81 117.125L164.97 117.004L164.01 117.125L163.05 117.004L162.21 117.125L161.13 117.004L158.489 117.125L156.57 117.004L154.77 117.125L153.81 117.004L152.97 117.125L151.889 117.004L149.13 117.125L148.289 116.882L147.45 117.004H146.489L145.65 117.125H144.57H143.73L141.81 117.004L140.97 117.125H140.01H139.05L137.97 117.004L137.25 116.882H136.41L135.45 117.125L134.489 117.004L133.53 117.125H132.689H131.73Z" fill="#5D5FEF"/>
<path d="M167.01 108.423L166.05 108.301L165.21 107.936L164.61 107.328L164.37 106.476L164.13 105.746L165.33 105.625L165.45 106.598L166.17 107.084L166.889 107.449L167.01 106.598V105.625L167.13 104.652L167.01 104.53L166.05 104.408L165.21 103.923L164.489 103.314L164.37 102.463L164.489 101.49L165.21 100.76L166.05 100.395L166.889 100.152V99.3009H167.73L167.61 100.152L168.57 100.395L169.289 101.003L169.889 101.733L170.01 102.706L168.81 102.828L168.45 101.733L167.61 101.246L167.489 102.098L167.61 102.949L167.73 103.801L168.57 104.166L169.41 104.53L170.13 105.26L170.25 106.233L170.01 107.206L169.41 107.936L168.57 108.423L167.489 108.544V109.516H166.889L167.01 108.423ZM167.01 103.558L166.889 102.341V101.246L166.05 101.49L165.45 102.22L165.93 103.071L167.01 103.558ZM169.17 106.233L168.57 105.26L167.61 104.895V105.746L167.489 106.598V107.449L168.57 107.084L169.17 106.233Z" fill="#5D5FEF"/>
<path d="M137.37 102.341H138.209H139.17L140.009 102.219H140.97L141.809 102.463L142.77 102.219L143.609 102.341H144.57H145.409H146.37H147.209H148.17H149.009H149.97L150.809 102.463L151.77 102.219L152.609 102.341L153.57 102.219L154.409 102.341H155.37L156.209 102.219L157.17 102.341L158.009 102.463L158.97 102.341" fill="white"/>
<path d="M158.009 103.314H157.05L156.209 103.193L155.489 103.314H154.53C154.409 103.314 154.409 103.314 154.289 103.314L153.57 103.193L152.85 103.314C152.73 103.314 152.609 103.314 152.489 103.314L151.77 103.193L151.05 103.314C150.93 103.314 150.93 103.314 150.809 103.314L149.85 103.193H149.009H148.17L147.33 103.314H147.209L145.409 103.193H144.57L142.77 103.071L141.93 103.193C141.809 103.193 141.689 103.193 141.689 103.193L140.85 103.071H140.13L139.289 103.193H139.17H138.209H137.37V101.368H138.33H139.17L140.009 101.246H140.13H140.97H141.089L141.809 101.368L142.53 101.246C142.65 101.246 142.65 101.246 142.77 101.246L144.57 101.368H145.409L147.209 101.49L148.05 101.368H148.17H149.009H149.85H150.689L151.409 101.246C151.53 101.246 151.65 101.246 151.77 101.246L152.489 101.368L153.209 101.246C153.33 101.246 153.45 101.246 153.45 101.246L154.289 101.368H155.13L155.97 101.246C156.089 101.246 156.209 101.246 156.209 101.246L157.17 101.368H157.889L158.73 101.246L158.97 103.071L158.009 103.314C158.13 103.314 158.13 103.314 158.009 103.314Z" fill="#5D5FEF"/>
<path d="M137.37 106.355L138.209 106.111L139.17 106.233H140.009H140.97H141.809L142.77 106.111L143.609 106.233H144.57H145.409H146.37L147.209 106.355L148.17 106.111L149.13 106.233L149.97 106.111L150.93 106.355H151.77" fill="white"/>
<path d="M150.93 108.121C150.81 108.121 150.81 108.121 150.689 108.121L149.97 107.999L149.25 108.121C149.13 108.121 149.01 108.121 148.889 108.121L148.17 107.999L147.45 108.121C147.33 108.121 147.21 108.121 147.21 108.121L145.41 107.999H144.57H143.61L142.65 107.877H140.85L138.21 107.756L137.37 107.877L137.01 106.053L137.97 105.931C138.089 105.931 138.089 105.931 138.21 105.931L140.85 106.053H142.65H142.77L143.73 106.174H144.57H145.41L147.21 106.296L147.93 106.053C148.05 106.053 148.17 106.053 148.289 106.053L149.01 106.174L149.73 106.053C149.85 106.053 149.97 106.053 150.089 106.053L150.93 106.296H151.77V108.121H150.93Z" fill="#5D5FEF"/>
<path d="M132.33 109.03H131.37L130.41 108.908L129.57 109.03L128.61 108.788L127.77 109.03H126.81L125.85 108.908L125.01 109.03H124.05L123.21 108.908L123.09 108.058L123.21 107.084V106.233V105.26V104.408L123.09 103.436V102.463V101.611L123.21 100.638L123.09 99.6659H124.05H125.01L125.85 99.7875H126.81L127.77 99.6659L128.61 99.7875L129.57 99.6659H130.41L131.37 99.7875H132.21L132.33 100.638V101.611L132.21 102.463V103.436L132.33 104.288L132.21 105.26L132.45 106.233L132.21 107.084L132.33 108.058V109.03Z" fill="#FFCD2C"/>
<path d="M129.57 110.003C129.45 110.003 129.45 110.003 129.33 110.003L128.61 109.76L127.889 109.881H126.93H126.81L125.97 109.76L125.13 109.881H124.17H123.21C122.73 109.881 122.37 109.516 122.37 109.03L122.25 108.058C122.25 107.936 122.25 107.936 122.25 107.814L122.37 105.99V105.138V104.288L122.25 103.436C122.25 103.314 122.25 103.314 122.25 103.193L122.37 102.22V101.368V101.246L122.489 100.395L122.37 99.5442C122.37 99.3009 122.37 99.0576 122.61 98.8143C122.73 98.5711 122.97 98.4494 123.33 98.4494H124.289H125.25H125.37L126.21 98.5711L127.889 98.4494C128.01 98.4494 128.01 98.4494 128.13 98.4494L128.85 98.5711L129.57 98.4494C129.689 98.4494 129.689 98.4494 129.81 98.4494L132.45 98.5711C132.81 98.5711 133.17 98.936 133.289 99.3009L133.41 100.152C133.41 100.273 133.41 100.273 133.41 100.395L133.289 102.22V103.071L133.41 103.923C133.41 104.044 133.41 104.166 133.41 104.288L133.289 105.016L133.53 105.746C133.53 105.868 133.53 105.99 133.53 106.233L133.41 106.963L133.53 107.693C133.53 107.814 133.53 107.814 133.53 107.936V108.908C133.53 109.395 133.17 109.76 132.57 109.76H131.61L130.77 109.638L129.93 109.76C129.689 110.003 129.57 110.003 129.57 110.003ZM128.61 107.936C128.73 107.936 128.73 107.936 128.85 107.936L129.57 108.179L130.289 108.058C130.41 108.058 130.41 108.058 130.53 108.058L131.489 108.179L131.25 107.328C131.25 107.206 131.25 107.084 131.25 106.841L131.37 106.111L131.25 105.381C131.25 105.26 131.25 105.138 131.25 105.016L131.37 104.288L131.25 103.558V103.436V102.463V102.341L131.37 100.638L129.57 100.516L128.73 100.638C128.61 100.638 128.489 100.638 128.489 100.638L127.65 100.516L125.85 100.638C125.73 100.638 125.73 100.638 125.61 100.638L124.77 100.516H124.05C124.05 100.638 124.05 100.638 124.05 100.76L123.93 101.611V102.463L123.81 103.314L123.93 104.166C123.93 104.288 123.93 104.288 123.93 104.408V105.381V106.233L123.81 108.179H123.93H124.77L125.61 108.058C125.73 108.058 125.73 108.058 125.85 108.058L126.689 108.179H127.53L128.37 108.058C128.489 107.936 128.61 107.936 128.61 107.936Z" fill="#5D5FEF"/>
<path d="M58.89 196.463L56.13 196.341L54.33 196.463C54.21 196.463 54.21 196.463 54.09 196.463L53.25 196.341L51.57 196.463C51.45 196.463 51.45 196.463 51.33 196.463L50.61 196.341L49.89 196.463C49.77 196.463 49.77 196.463 49.65 196.463H48.69L47.73 196.341L48.09 193.908L49.77 194.03L50.61 193.908C50.73 193.908 50.85 193.908 50.97 193.908L51.81 194.03L53.61 193.908C53.73 193.908 53.85 193.908 53.85 193.908L54.69 194.03L56.37 193.908L59.13 194.03L59.85 193.787C59.97 193.787 60.09 193.787 60.09 193.787H61.05C61.17 193.787 61.29 193.787 61.29 193.787L62.01 193.908L62.73 193.787C62.85 193.787 63.09 193.787 63.21 193.787L63.93 193.908L64.65 193.787H64.77H65.73H66.57H67.53H68.37C68.49 193.787 68.49 193.787 68.61 193.787L69.45 193.908H70.29L71.13 193.787C71.25 193.787 71.25 193.787 71.37 193.787L72.21 193.908L73.05 193.787C73.17 193.787 73.17 193.787 73.29 193.787H74.25L75.21 193.908H76.05H76.17H77.01L77.85 193.787C77.97 193.787 77.97 193.787 78.09 193.787L79.77 193.908L80.49 193.787C80.61 193.787 80.85 193.787 80.97 193.787L81.93 193.908L81.45 196.341L80.73 196.219L80.01 196.341C79.89 196.341 79.77 196.341 79.65 196.341L77.85 196.219L77.01 196.341C76.89 196.341 76.89 196.341 76.77 196.341H75.93H75.09C74.97 196.341 74.97 196.341 74.85 196.341L73.89 196.219H73.17L72.33 196.341C72.21 196.341 72.21 196.341 72.09 196.341L71.25 196.219L70.41 196.341H69.33H69.21L68.37 196.219H67.53H66.45H65.61H64.65L63.81 196.341C63.69 196.341 63.57 196.341 63.45 196.341L62.73 196.219L62.01 196.341C61.89 196.341 61.65 196.341 61.53 196.341L60.69 196.219H60.09L59.25 196.463C59.13 196.463 59.01 196.463 58.89 196.463Z" fill="white"/>
<path d="M66.33 205.827C66.21 205.827 66.21 205.827 66.33 205.827L64.41 205.706L62.61 205.827H61.65H61.53L60.81 205.706L60.09 205.827C59.97 205.827 59.97 205.827 59.85 205.827H59.01L58.17 205.949C58.05 205.949 58.05 205.949 57.93 205.949L57.21 205.827L56.49 205.949C56.37 205.949 56.25 205.949 56.13 205.949L54.45 205.706H53.73L52.89 205.827C52.77 205.827 52.65 205.827 52.53 205.827L51.69 205.706H50.85L50.01 205.827C49.89 205.827 49.89 205.827 49.77 205.827L48.93 205.706L48.09 205.827L47.73 203.395L48.69 203.273C48.81 203.273 48.81 203.273 48.93 203.273L49.77 203.395L50.61 203.273H51.57C51.69 203.273 51.69 203.273 51.81 203.273L52.53 203.395L53.25 203.273C53.25 203.273 53.37 203.273 53.49 203.273H54.45C54.57 203.273 54.57 203.273 54.57 203.273L56.25 203.516L56.97 203.395C57.09 203.395 57.21 203.395 57.33 203.395L58.17 203.516L59.01 203.395H59.13H59.97L60.81 203.273C60.93 203.273 61.05 203.273 61.17 203.273L62.01 203.395H62.85L64.65 203.273L66.57 203.395L68.25 203.273C68.37 203.273 68.37 203.273 68.49 203.273L70.29 203.395L71.97 203.273H72.09H73.05H73.17L73.89 203.395L74.61 203.273C74.73 203.273 74.73 203.273 74.85 203.273H75.81C75.93 203.273 75.93 203.273 76.05 203.273L76.77 203.395H77.49H78.45L79.29 203.273H79.41H80.37H80.49L81.33 203.395L84.09 203.273H85.05H85.89H86.01L87.81 203.395L87.69 205.827L85.89 205.706H85.05H84.09L81.45 205.827C81.33 205.827 81.33 205.827 81.21 205.827L80.37 205.706H79.53L78.69 205.827H78.57H77.61L76.77 205.949C76.65 205.949 76.53 205.949 76.41 205.949L75.57 205.827H74.85L74.01 205.949C73.89 205.949 73.77 205.949 73.65 205.949L72.81 205.827H72.09L71.25 205.949H70.29H70.17L68.49 205.827H66.33Z" fill="white"/>
<path d="M55.8899 215.192H54.9299C54.8099 215.192 54.8099 215.192 54.6899 215.192L53.9699 215.071L53.2499 215.192C53.1299 215.192 53.0099 215.192 52.8899 215.192L52.1699 215.071L51.4499 215.192C51.3299 215.192 51.3299 215.192 51.2099 215.192H49.4099H49.2899L47.4899 214.949L46.7699 215.071H46.6499H45.8099L44.9699 215.192C44.8499 215.192 44.7299 215.192 44.6099 215.192L43.8899 215.071L43.1699 215.192L42.6899 212.759L43.6499 212.516C43.7699 212.516 44.0099 212.516 44.1299 212.516L44.8499 212.638L45.5699 212.516H45.6899H46.5299L47.3699 212.395C47.4899 212.395 47.6099 212.395 47.7299 212.395L49.4099 212.638H51.0899L51.9299 212.516C52.0499 212.516 52.1699 212.516 52.2899 212.516L53.0099 212.638L53.7299 212.516C53.8499 212.516 53.9699 212.516 54.2099 212.516L55.0499 212.638H55.7699L56.6099 212.516H56.7299H57.6899L60.3299 212.395C60.4499 212.395 60.5699 212.395 60.6899 212.395L61.4099 212.516H62.1299H63.0899L63.9299 212.395H64.0499H64.8899L65.7299 212.273C65.8499 212.273 65.8499 212.273 65.9699 212.273H66.9299C67.0499 212.273 67.0499 212.273 67.1699 212.273L67.8899 212.395H68.6099H68.7299H69.4499L70.1699 212.273C70.2899 212.273 70.4099 212.273 70.4099 212.273L72.2099 212.395L73.0499 212.273C73.1699 212.273 73.2899 212.273 73.2899 212.273L74.0099 212.395L74.7299 212.273C74.8499 212.273 74.8499 212.273 74.9699 212.273H75.9299H76.0499L76.7699 212.395L77.4899 212.273C77.6099 212.273 77.7299 212.273 77.8499 212.273L78.5699 212.395L79.2899 212.273H79.4099L81.3299 212.395H82.1699H82.2899L83.2499 212.516L83.0099 214.949L82.1699 214.827H81.3299L79.5299 214.706L78.6899 214.827C78.5699 214.827 78.4499 214.827 78.3299 214.827L77.6099 214.706L76.8899 214.827C76.7699 214.827 76.6499 214.827 76.5299 214.827L75.6899 214.706H74.9699L74.1299 214.827C74.0099 214.827 73.8899 214.827 73.7699 214.827L73.0499 214.706L72.3299 214.827C72.2099 214.827 72.2099 214.827 72.0899 214.827L70.4099 214.706L69.5699 214.827C69.4499 214.827 69.3299 214.827 69.2099 214.827L68.3699 214.706H67.5299C67.4099 214.706 67.2899 214.706 67.1699 214.706L66.3299 214.584H65.6099L64.7699 214.706C64.6499 214.706 64.6499 214.706 64.5299 214.706H63.6899L62.8499 214.827H62.7299H61.7699H60.9299C60.8099 214.827 60.6899 214.827 60.5699 214.827L60.3299 214.949L57.6899 215.071H56.7299L55.8899 215.192Z" fill="white"/>
</g>
</g>
</g>
<defs>
<clipPath id="clip0_647_36">
<rect x="0.330017" width="300" height="225" rx="8" fill="white"/>
</clipPath>
<clipPath id="clip1_647_36">
<rect width="300" height="225" fill="white" transform="translate(0.330017)"/>
</clipPath>
<clipPath id="clip2_647_36">
<rect width="300" height="237.805" fill="white" transform="translate(0.330017 -6.40244)"/>
</clipPath>
</defs>
</svg>
