<svg width="301" height="225" viewBox="0 0 301 225" fill="none" xmlns="http://www.w3.org/2000/svg">
<g clip-path="url(#clip0_647_177)">
<rect x="0.660034" width="300" height="225" rx="8" fill="white"/>
<g clip-path="url(#clip1_647_177)">
<path d="M130.14 178.647V176.847L130.38 175.047L130.02 173.367L130.14 171.567L130.02 169.767L130.26 167.967L130.14 166.287L130.26 164.487L130.14 162.687L130.5 160.887L130.02 159.207L130.14 157.407L130.38 155.607L130.26 153.807V152.127V150.327L130.38 148.527L130.26 146.727V144.927L130.38 143.247L128.82 142.647L127.26 142.047L125.82 140.967L124.26 140.247L122.58 139.647L121.14 138.807L119.82 137.607L118.38 136.647L117.3 135.327L115.86 134.367L114.66 133.047L113.58 131.607L112.74 130.167L111.9 128.727L111.06 127.167L110.1 125.727L109.62 124.047L108.9 122.487L108.3 120.807L107.94 119.127V117.447L107.34 115.767L107.46 114.087L107.7 112.407L107.94 110.727L107.7 109.047L107.94 107.487V105.687L108.3 104.007L108.9 102.327L109.14 100.647L109.5 98.9671L109.38 97.1671L109.74 95.4869L110.22 93.8067L110.94 92.2472L111.66 90.6869L112.74 89.3671L113.82 88.0472L114.78 86.6067L116.22 85.6472L117.66 84.6871L118.98 83.6071L120.42 82.7671L121.98 81.9271L123.66 81.4471L125.34 80.9671L127.02 80.7271L128.7 80.6071H130.38H132.06H133.86L135.42 81.3271L137.1 81.6871L138.66 82.2871L140.34 82.5271L141.9 83.1271L143.46 83.9671L145.14 84.3271L146.7 84.9271L148.38 85.4067L150.06 85.6472L151.62 86.2472L153.18 87.0869L154.74 87.5671L155.7 89.0067L156.54 90.4472L157.38 92.0067L157.98 93.6869L158.7 95.2472L159.54 96.8067L160.38 98.2472L161.34 99.8067L162.3 101.247L162.78 102.927L163.98 104.367L164.46 106.047L165.18 107.607L166.26 109.047L166.98 110.607L167.7 112.287L168.66 113.727L169.62 115.167L170.46 116.727L170.94 118.407L172.14 119.847L172.02 121.647V123.327L171.78 125.127L171.66 126.807L171.78 128.607L171.66 130.287L171.54 132.087L171.66 133.767L171.54 135.567L171.78 137.247L171.42 139.047V140.727L171.3 142.527L171.54 144.207V146.007L171.18 147.687L171.3 149.487V151.167L171.06 152.967V154.647L171.3 156.447L171.18 158.127L171.06 159.927V161.607L170.94 163.407L170.7 165.087L170.94 166.887L171.06 168.567L170.82 170.367L170.94 172.047L170.7 173.847L170.94 175.647L170.7 177.327V179.127" fill="#867C7A"/>
<path d="M171.9 179.127H169.5V177.327C169.5 177.207 169.5 177.207 169.5 177.087L169.74 175.527L169.5 173.967C169.5 173.847 169.5 173.727 169.5 173.607L169.74 172.047L169.62 170.487C169.62 170.367 169.62 170.247 169.62 170.127L169.98 168.567L169.86 167.007L169.62 165.327C169.62 165.207 169.62 165.087 169.62 165.087L169.98 161.727L169.86 160.047C169.86 159.927 169.86 159.927 169.86 159.807L170.1 158.127V156.567L169.86 154.887C169.86 154.767 169.86 154.767 169.86 154.647V152.847C169.86 152.727 169.86 152.727 169.86 152.607L170.1 151.047V149.487L169.98 147.807C169.98 147.687 169.98 147.567 169.98 147.447L170.34 145.887L170.22 144.327L169.98 142.647C169.98 142.527 169.98 142.527 169.98 142.407L170.1 138.927V138.807L170.34 137.247L170.1 135.687C170.1 135.567 170.1 135.567 170.1 135.447L170.22 133.767L170.1 132.087V130.287L170.22 128.607L170.1 126.927V126.807L170.22 125.127L170.46 123.327V121.647L170.58 120.207L169.74 119.127C169.62 119.007 169.62 118.887 169.5 118.767L168.9 117.207L168.18 115.767L167.22 114.447L166.26 112.887C166.26 112.767 166.14 112.767 166.14 112.647L164.82 109.527L163.86 108.207C163.86 108.087 163.74 108.087 163.74 107.967L163.02 106.407V106.287L162.54 104.847L161.46 103.647C161.34 103.527 161.22 103.407 161.22 103.167L160.74 101.607L159.9 100.287L158.1 97.1671L156.42 94.0473C156.42 93.9274 156.3 93.9274 156.3 93.8067L155.82 92.2473L153.42 88.4067L152.22 88.0473C152.1 88.0473 151.98 87.9274 151.98 87.9274L150.54 87.0869L149.1 86.6067L147.54 86.3671H147.42L144.3 85.2869L142.74 84.927C142.62 84.927 142.5 84.807 142.38 84.807L140.94 83.967L139.62 83.367L138.06 83.247C137.94 83.247 137.82 83.247 137.7 83.127L136.26 82.527L134.7 82.287C134.58 82.287 134.46 82.287 134.34 82.167L133.02 81.567H131.58H129.78H128.1L124.98 81.927L121.86 82.767L119.1 84.207L117.9 85.2869L117.78 85.4067L115.02 87.2067L114.18 88.4067L112.02 91.0473L110.7 94.0473L110.22 95.6067L109.98 97.1671V98.8473C109.98 98.9671 109.98 98.9671 109.98 99.0869L109.5 102.447C109.5 102.567 109.5 102.687 109.38 102.687L108.78 104.247L108.42 105.687V107.247C108.42 107.367 108.42 107.367 108.42 107.487L108.18 108.927L108.42 110.367C108.42 110.487 108.42 110.607 108.42 110.727L107.94 115.407L108.42 116.847C108.42 116.967 108.42 117.087 108.42 117.207V118.767L108.78 120.207L109.38 121.767L110.1 123.207V123.327L110.58 124.767L111.42 126.087C111.42 126.087 111.42 126.207 111.54 126.207L112.26 127.767L113.1 129.207L113.94 130.647L115.98 133.047L117.3 134.007C117.42 134.007 117.42 134.127 117.54 134.247L118.62 135.447L119.94 136.287C120.06 136.287 120.06 136.407 120.18 136.407L121.38 137.487L122.58 138.327L124.14 138.807C124.26 138.807 124.26 138.807 124.38 138.927L125.94 139.767C125.94 139.767 126.06 139.767 126.06 139.887L127.38 140.847L128.82 141.447L130.26 141.927C130.74 142.047 131.1 142.527 131.1 143.127L130.98 146.607L131.1 148.287C131.1 148.287 131.1 148.407 131.1 148.527L130.98 150.207L131.1 151.887V153.687L131.22 155.367C131.22 155.487 131.22 155.487 131.22 155.607L130.98 157.287V158.847L131.34 160.527C131.34 160.647 131.34 160.887 131.34 161.007L130.98 162.567L131.1 164.127C131.1 164.247 131.1 164.247 131.1 164.367L130.86 166.047L130.98 167.727C130.98 167.847 130.98 167.847 130.98 167.967L130.74 169.647V171.327L130.62 173.007L130.98 174.567C130.98 174.687 130.98 174.807 130.98 174.927L130.74 176.607V178.287H128.34V176.487V176.367L128.46 174.807L128.1 173.247C128.1 173.127 128.1 173.007 128.1 172.887L128.22 171.087V169.407V169.287L128.46 167.607L128.34 165.927C128.34 165.807 128.34 165.807 128.34 165.687L128.46 164.007L128.22 162.327C128.22 162.207 128.22 162.087 128.22 161.967L128.58 160.407L128.22 158.847C128.22 158.727 128.22 158.607 128.22 158.607L128.34 156.807V156.687L128.58 155.007L128.46 153.327L128.34 149.727V149.607L128.46 147.927L129.06 146.847V144.087L128.34 143.847L126.66 143.127C126.54 143.127 126.54 143.007 126.42 143.007L125.1 142.047L123.78 141.327L122.22 140.847C122.1 140.847 121.98 140.727 121.86 140.727L120.42 139.767L120.3 139.647L119.1 138.567L117.78 137.727C117.66 137.607 117.54 137.607 117.54 137.487L116.46 136.287L115.14 135.327C115.02 135.327 115.02 135.207 114.9 135.087L112.74 132.327L111.78 130.767L110.94 129.207L110.22 127.647L109.38 126.207C109.38 126.087 109.26 126.087 109.26 125.967L108.78 124.407L108.06 122.847L107.46 121.167V121.047L107.1 119.367C107.1 119.247 107.1 119.247 107.1 119.127V117.567L106.62 116.007C106.62 115.887 106.5 115.647 106.62 115.527L107.22 110.727L106.98 109.167C106.98 109.047 106.98 108.927 106.98 108.807L107.22 107.247V105.567C107.22 105.447 107.22 105.327 107.22 105.327L107.58 103.647C107.58 103.527 107.58 103.527 107.58 103.407L108.18 101.847L108.66 98.6067V96.9274C108.66 96.8067 108.66 96.8067 108.66 96.6869L108.9 95.0067V94.8869L109.38 93.2067V93.0869L110.7 89.9671C110.7 89.8473 110.82 89.7274 110.82 89.7274L112.98 87.0869L113.94 85.7671C114.06 85.6473 114.18 85.5274 114.3 85.4067L117.06 83.607L118.26 82.527C118.38 82.407 118.38 82.407 118.5 82.407L121.62 80.727C121.74 80.727 121.74 80.607 121.86 80.607L125.1 79.647C125.1 79.647 125.22 79.647 125.34 79.647L127.02 79.407L128.82 79.287H130.62H132.3H133.98C134.22 79.287 134.34 79.287 134.46 79.407L135.9 80.127L137.46 80.367C137.58 80.367 137.7 80.367 137.82 80.487L139.14 81.087L140.7 81.207C140.82 81.207 140.94 81.207 141.06 81.327L142.62 81.927H142.74L144.06 82.647L145.5 83.007H145.62L148.74 84.087L150.3 84.327H150.42L151.98 84.807C152.1 84.807 152.1 84.927 152.22 84.927L153.54 85.7671L154.98 86.1274C155.22 86.2473 155.46 86.3671 155.7 86.6067L156.66 88.0473L158.46 91.0473C158.46 91.1671 158.58 91.2869 158.58 91.2869L159.06 92.8473L160.62 95.8473L162.3 98.8473L163.26 100.287C163.38 100.407 163.38 100.527 163.38 100.647L163.86 102.087L164.94 103.167C165.06 103.287 165.18 103.407 165.18 103.647L165.66 105.207L166.26 106.647L167.22 107.967C167.22 108.087 167.34 108.087 167.34 108.207L168.66 111.327L169.5 112.767L170.46 114.087C170.46 114.207 170.58 114.207 170.58 114.327L171.3 115.887V116.007L171.78 117.447L172.74 118.767C172.98 119.007 172.98 119.247 172.98 119.607L172.86 121.407V123.087V123.207L172.62 124.887L172.5 126.447L172.62 128.127V128.247L172.5 129.927V131.607L172.62 133.287V133.407L172.5 134.967L172.74 136.527C172.74 136.647 172.74 136.767 172.74 136.887L172.5 138.567L172.38 141.927L172.62 143.607L172.74 145.407C172.74 145.527 172.74 145.647 172.74 145.767L172.38 147.327L172.5 148.887L172.62 150.687C172.62 150.807 172.62 150.807 172.62 150.927L172.26 152.607V154.167L172.5 155.847C172.5 155.967 172.5 155.967 172.5 156.087V157.887L172.26 159.687L172.38 161.367C172.38 161.487 172.38 161.487 172.38 161.607L172.02 164.967L172.26 166.527L172.38 168.327C172.38 168.447 172.38 168.567 172.38 168.687L172.02 170.247L172.14 171.807C172.14 171.927 172.14 172.047 172.14 172.047L171.9 173.607L172.14 175.167C172.14 175.287 172.14 175.407 172.14 175.527L171.9 177.207V179.127Z" fill="#201F1B"/>
<path d="M140.1 95.4869L139.14 96.9274L138.66 98.6067L138.42 100.287L137.94 101.967L137.7 103.647L137.22 105.447V107.127L137.34 108.807L137.22 110.607L137.7 112.287L137.94 113.967L138.3 115.647L138.54 117.447L138.9 119.127L139.74 120.687L140.1 122.367L140.7 124.047L141.42 125.607L142.14 127.167L142.74 128.847L143.34 130.407" fill="#736763"/>
<path d="M142.26 130.887L141.66 129.207L141.06 127.647L140.34 126.207L138.9 122.967C138.9 122.847 138.9 122.847 138.78 122.727L138.42 121.167L137.7 119.727C137.7 119.607 137.58 119.487 137.58 119.487L137.22 117.807L136.98 116.007L136.5 114.447C136.5 114.327 136.5 114.327 136.5 114.207L136.38 112.647L135.9 111.087C135.9 110.967 135.9 110.847 135.9 110.727L136.02 108.927L135.9 107.247V105.447C135.9 105.327 135.9 105.207 135.9 105.207L136.26 103.527L136.5 101.967V101.847L136.98 100.287L137.22 98.6067L137.58 96.8067C137.58 96.6869 137.7 96.4473 137.82 96.3275L138.9 94.8869L140.82 96.3275L139.98 97.5275L139.86 98.8473L139.62 100.527V100.647L139.14 102.207L138.9 103.887L138.54 105.567L138.66 108.807L138.54 110.487L139.02 112.047C139.02 112.167 139.02 112.167 139.02 112.287L139.14 113.967L139.5 115.527V115.647L139.74 117.327L140.1 118.767L140.82 120.207C140.82 120.327 140.94 120.447 140.94 120.567L141.3 122.127L142.62 125.247L143.34 126.687C143.34 126.807 143.34 126.807 143.46 126.927L143.94 128.607L144.54 130.167L142.26 130.887Z" fill="#201F1B"/>
<path d="M170.82 179.127L170.58 177.447L170.82 175.647L170.94 173.967L170.82 172.287V170.607V168.926L170.94 167.127L171.06 165.447L171.18 163.767V162.087L170.94 160.407L171.06 158.727L171.3 156.927V155.247V153.567L171.06 151.887L171.42 150.087L171.18 148.407V146.727L171.3 145.047V143.367L171.42 141.567L171.78 139.887L171.54 138.207L171.78 136.527L171.66 134.727V133.047L171.54 131.367L171.78 129.687L171.54 128.007L171.66 126.207L172.02 124.527L172.14 122.847L171.9 121.047L171.78 119.367L172.14 117.687L171.9 116.007L172.02 114.327L172.14 112.647L171.9 110.967L171.66 109.407L171.3 107.727L171.18 106.047L171.06 104.367L170.94 102.687L170.46 101.127L169.86 99.4472L169.74 97.7671L169.5 96.0869L168.9 94.5265L168.18 92.9671L167.58 91.2869L166.74 89.7265L166.02 88.1671L165.3 86.6067L164.7 85.047L164.22 83.367L163.38 81.807L162.9 80.127L162.06 78.567L161.58 76.887L161.22 75.207L160.5 73.647L159.9 71.967L159.3 70.407L158.58 68.727L158.22 67.047L157.74 65.367L157.26 63.687L156.9 62.007L156.42 60.327L156.18 58.647L155.46 56.967V55.287L155.1 53.487L154.86 51.807L154.38 50.127L154.62 48.327L153.54 47.007L152.34 46.047L150.9 45.207L149.34 45.447L149.22 45.207L147.66 46.047L146.58 47.367L146.1 49.047L145.74 50.727L145.38 52.407L145.02 54.087L144.78 55.767L144.66 57.447L144.54 59.127L144.3 60.807L144.18 62.487V64.287L144.3 65.967L144.06 67.647L144.18 69.327L144.3 71.127L144.66 72.807L144.42 74.487L145.02 76.167L144.9 77.847L145.38 79.527L145.74 81.207L146.1 82.887L146.82 84.447L147.3 86.0067L148.26 87.4472" fill="#867874"/>
<path d="M169.62 179.247L169.38 177.567C169.38 177.447 169.38 177.327 169.38 177.207L169.74 173.967L169.5 172.407C169.5 172.287 169.5 172.287 169.5 172.167V170.487V168.807L169.98 163.647V162.087L169.74 160.407C169.74 160.287 169.74 160.167 169.74 160.167L169.86 158.487L170.1 156.807L169.98 153.567L169.86 151.887C169.86 151.767 169.86 151.647 169.86 151.527L170.22 150.087L169.98 148.647C169.98 148.527 169.98 148.407 169.98 148.407L170.1 145.047L170.22 141.567C170.22 141.447 170.22 141.447 170.22 141.327L170.58 139.767L170.46 138.207C170.46 138.087 170.46 138.087 170.46 137.967L170.58 136.407L170.46 134.847V134.727V133.047L170.34 131.367C170.34 131.247 170.34 131.127 170.34 131.007L170.58 129.447L170.46 127.887C170.46 127.767 170.46 127.767 170.46 127.647L170.58 125.967L170.82 124.167L170.94 122.727L170.7 121.167L170.58 119.367C170.58 119.247 170.58 119.127 170.58 119.127L170.82 117.687L170.58 116.247V116.127V114.447L170.7 112.887L170.22 109.647L169.86 108.087V107.967L169.5 103.047L169.14 101.487L168.66 99.9274C168.66 99.8067 168.66 99.8067 168.66 99.6869L168.18 96.4472L167.58 95.0067L166.86 93.4472V93.3274L166.38 91.7671L165.66 90.3274L164.22 87.0869L163.62 85.4067L163.14 83.727L162.42 82.287C162.42 82.167 162.42 82.167 162.3 82.047L161.82 80.487L160.98 79.047C160.98 78.927 160.86 78.927 160.86 78.807L160.38 77.127L160.02 75.447L159.3 74.007V73.887L158.82 72.207L157.5 69.087V68.967L156.18 63.927L155.82 62.127L155.34 60.567V60.447L155.1 58.887L154.5 57.327C154.5 57.207 154.38 57.087 154.38 56.967V55.287L154.02 53.727L153.78 52.047L153.3 50.487C153.3 50.367 153.3 50.127 153.3 50.007L153.54 48.807L152.82 47.967L151.74 47.127L150.78 46.527L149.58 46.647C149.46 46.647 149.34 46.647 149.34 46.647L148.62 47.007L147.78 47.967L147.42 49.407L146.34 54.327L146.1 55.887L145.98 59.247L145.74 61.047L145.62 62.727V64.407L145.74 65.967V66.087L145.62 67.767V69.447L145.74 71.007L145.98 72.567C145.98 72.687 145.98 72.807 145.98 72.927L145.74 74.367L146.22 75.687C146.22 75.807 146.34 75.927 146.34 76.167V77.727L147.18 80.847L147.42 82.407L148.14 83.727C148.14 83.847 148.26 83.847 148.26 83.967L148.62 85.4067L149.46 86.7274L147.42 88.0472L146.46 86.6067C146.34 86.4869 146.34 86.3671 146.34 86.2472L145.98 84.687L145.26 83.247C145.26 83.127 145.14 83.007 145.14 82.887L144.78 81.207L143.94 77.967C143.94 77.847 143.94 77.727 143.94 77.607V76.167L143.46 74.727C143.34 74.487 143.34 74.367 143.34 74.127L143.58 72.567L143.34 71.127L143.1 69.327V67.527V67.407L143.22 65.847L143.1 64.287V62.487L143.22 60.687L143.46 58.887L143.58 55.527V55.407L144.54 50.367L144.9 48.687L145.38 47.007C145.38 46.887 145.5 46.647 145.62 46.527L146.7 45.207C146.82 45.087 146.94 44.967 147.06 44.967L148.62 44.127C148.98 43.887 149.34 43.887 149.7 44.127C149.7 44.127 149.82 44.127 149.82 44.247L150.78 44.127C151.02 44.127 151.26 44.127 151.5 44.247L152.94 45.087C153.06 45.087 153.06 45.207 153.18 45.207L154.38 46.287L154.5 46.407L155.58 47.727C155.82 47.967 155.94 48.327 155.82 48.687L155.58 50.247L155.94 51.687V51.807L156.18 53.487L156.54 55.047C156.54 55.167 156.54 55.167 156.54 55.287V56.847L157.14 58.287C157.14 58.407 157.14 58.407 157.26 58.527L157.5 60.207L157.98 61.767L158.34 63.567L158.82 65.127L159.66 68.487L160.98 71.607L161.46 73.287L162.18 74.847C162.18 74.967 162.3 74.967 162.3 75.087L162.66 76.767L163.14 78.207L163.98 79.647C163.98 79.767 164.1 79.767 164.1 79.887L164.58 81.447L165.3 82.887C165.3 82.887 165.3 83.007 165.42 83.127L165.9 84.807L166.5 86.3671L168.66 90.9274C168.66 90.9274 168.66 91.0472 168.78 91.0472L169.26 92.6067L169.98 94.1671L170.58 95.8472C170.58 95.9671 170.58 96.0869 170.7 96.0869L171.18 99.3274L171.66 100.767L172.14 102.447C172.14 102.567 172.14 102.567 172.14 102.687L172.5 107.607L172.86 109.167L173.34 112.527C173.34 112.647 173.34 112.767 173.34 112.767L173.22 114.447V116.007L173.46 117.567C173.46 117.687 173.46 117.807 173.46 117.927L173.22 119.487L173.34 121.047L173.58 122.727C173.58 122.847 173.58 122.847 173.58 122.967L173.46 124.647L173.22 126.447L173.1 127.887L173.34 129.447C173.34 129.567 173.34 129.687 173.34 129.807L173.1 131.367L173.22 132.927V133.047V134.727L173.34 136.407C173.34 136.527 173.34 136.527 173.34 136.647L173.22 138.207L173.34 139.767C173.34 139.887 173.34 140.007 173.34 140.127L172.98 141.687L172.74 148.287L172.98 149.847C172.98 149.967 172.98 150.207 172.98 150.326L172.62 151.887L172.74 153.447L172.86 156.927V157.047L172.26 158.847L172.14 160.407L172.38 161.967V162.087V163.767V163.887L172.02 168.926V170.487V172.167L172.26 173.727C172.26 173.847 172.26 173.967 172.26 173.967L171.9 177.207L172.14 178.767L169.62 179.247Z" fill="#201F1B"/>
<path d="M110.7 111.447L109.26 112.527L107.82 113.607L106.86 115.167V116.967L106.74 118.767L106.5 120.567L106.74 122.247L106.98 124.047L106.62 125.727L106.86 127.527L106.62 129.327V131.007L107.34 132.447L108.18 133.767L109.38 134.847L110.82 135.567L112.38 136.167L113.94 136.287L115.62 136.167L117.3 135.807L118.98 136.047H120.78L122.46 136.287L124.14 135.927H125.82L127.5 136.047L129.18 135.447L130.86 134.727L132.06 133.287L132.42 131.367L132.54 129.567L133.02 127.887L133.5 126.327L133.62 124.527L133.98 122.967V121.167L134.1 119.367L132.78 118.167L131.58 117.087L129.78 116.607L128.22 117.087L126.54 116.847L124.62 117.567L122.94 118.887L122.1 120.447L121.26 122.127L120.78 123.807L120.42 125.607L119.94 127.407" fill="#6B6260"/>
<path d="M122.46 137.487C122.34 137.487 122.34 137.487 122.22 137.487L120.66 137.247H119.1L117.54 137.127L115.98 137.487C115.98 137.487 115.86 137.487 115.74 137.487L114.06 137.607H113.94L112.38 137.487C112.26 137.487 112.14 137.487 112.02 137.367L110.46 136.767L108.9 136.047C108.78 136.047 108.66 135.927 108.54 135.807L107.34 134.727C107.22 134.607 107.22 134.607 107.1 134.487L106.26 133.167L105.54 131.727C105.42 131.607 105.42 131.367 105.42 131.127V129.327V129.207L105.54 127.527L105.42 125.847C105.42 125.727 105.42 125.607 105.42 125.487L105.66 123.927L105.42 122.367L105.3 120.567C105.3 120.447 105.3 120.447 105.3 120.327L105.54 118.527L105.66 115.047C105.66 114.807 105.78 114.687 105.78 114.447L106.74 112.887C106.86 112.767 106.98 112.647 107.1 112.527L109.98 110.367L111.42 112.287L108.78 114.327L108.18 115.407L108.06 118.647L107.82 120.327L107.94 122.007L108.18 123.687C108.18 123.807 108.18 123.927 108.18 124.047L107.94 125.607L108.06 127.167C108.06 127.287 108.06 127.287 108.06 127.407L107.94 129.087V130.527L108.54 131.607L109.26 132.687L110.22 133.527L111.54 134.127L112.86 134.607L114.18 134.727L115.74 134.607L117.3 134.247C117.42 134.247 117.54 134.247 117.66 134.247L119.34 134.367H120.9C121.02 134.367 121.02 134.367 121.14 134.367L122.58 134.607L124.02 134.367C124.14 134.367 124.14 134.367 124.26 134.367L127.38 134.487L130.26 133.407L130.98 132.447L131.22 130.887L131.46 129.207V129.087L131.82 127.407V127.287L132.3 125.847V124.287C132.3 124.167 132.3 124.167 132.3 124.047L132.66 122.487V120.927L132.78 119.607L131.94 118.767L130.86 117.927L129.66 117.687L128.34 118.047C128.22 118.047 128.1 118.047 127.98 118.047L126.66 117.927L125.22 118.527L123.9 119.487L123.18 120.807L122.46 122.247L121.98 123.927L121.14 127.407L118.86 126.807L119.7 123.327L120.18 121.527C120.18 121.407 120.18 121.407 120.3 121.287L121.14 119.607L122.1 117.927C122.22 117.807 122.34 117.687 122.46 117.567L124.14 116.367C124.26 116.247 124.38 116.247 124.38 116.247L126.3 115.527C126.42 115.407 126.66 115.407 126.78 115.407L128.22 115.527L129.66 115.167C129.9 115.167 130.02 115.167 130.26 115.167L131.94 115.527C132.18 115.527 132.3 115.647 132.42 115.767L133.74 116.847L135.06 118.167C135.3 118.407 135.42 118.767 135.42 119.127L135.3 120.927V122.607C135.3 122.727 135.3 122.847 135.3 122.847L134.94 124.407V125.967C134.94 126.087 134.94 126.207 134.82 126.327L134.34 127.887L133.98 129.447L133.74 131.127L133.38 133.047C133.38 133.287 133.26 133.407 133.14 133.527L131.94 134.967C131.82 135.087 131.58 135.207 131.46 135.327L129.78 136.047L127.98 136.647C127.86 136.647 127.62 136.767 127.5 136.767L124.26 136.647L122.7 137.007C122.58 137.487 122.46 137.487 122.46 137.487Z" fill="#201F1B"/>
<path d="M113.1 100.407L111.3 100.767L109.86 102.087L108.78 103.407L107.819 105.087L107.94 107.007L107.58 108.687L107.219 110.367L107.1 112.047L106.98 113.727L106.74 115.407L106.38 117.087L106.14 118.887L105.78 120.567L105.419 122.247L106.019 123.807L106.86 125.127L107.819 126.327L109.14 127.287L110.7 127.767L112.26 128.127H114.18L115.98 127.767L117.78 127.887H119.7L121.5 127.767L123.3 127.407L125.1 127.767L127.019 127.647L128.58 127.287L130.019 126.447L131.219 125.487L132.06 124.047L132.54 122.487L133.019 120.807L133.619 119.247L134.34 117.567L134.58 115.767L135.3 114.207L135.06 112.407L134.58 110.607L133.26 109.407L131.46 109.167L129.78 108.807L128.219 108.327L126.06 108.567L124.26 109.767L123.06 111.207L121.86 112.767L121.26 114.447L120.3 116.127L120.18 118.047" fill="#796D69"/>
<path d="M112.26 129.327C112.14 129.327 112.019 129.327 112.019 129.327L110.46 128.967L108.9 128.367C108.78 128.367 108.66 128.247 108.66 128.247L107.34 127.407C107.219 127.287 107.1 127.287 107.1 127.167L106.14 125.967L106.019 125.847L105.18 124.527L105.06 124.407L104.46 122.847C104.34 122.607 104.34 122.367 104.34 122.247L104.7 120.567L105.06 118.887L105.3 117.327L105.66 115.527L105.9 113.847L106.14 110.487L106.5 108.687L106.86 107.127V105.447C106.86 105.207 106.86 104.967 106.98 104.847L107.94 103.167L108.06 103.047L109.14 101.607L109.26 101.487L110.7 100.287C110.819 100.167 111.06 100.047 111.18 100.047L112.98 99.5671L113.58 101.847L112.019 102.207L110.94 103.167L109.98 104.367L109.26 105.687V107.247C109.26 107.367 109.26 107.487 109.26 107.487L108.66 108.927L108.419 110.607L108.18 113.967L107.94 115.767L107.58 117.567L107.34 119.247L106.74 122.367L107.219 123.567L107.94 124.767L108.78 125.727L109.86 126.447L111.18 126.927L112.5 127.287H114.06L115.86 127.047C115.98 127.047 115.98 127.047 116.1 127.047L119.7 127.167L121.5 126.927L123.3 126.687C123.419 126.687 123.54 126.687 123.66 126.687L125.34 126.927L126.9 126.807L128.219 126.447L129.419 125.847L130.38 125.007L130.98 123.927L131.46 122.487L131.94 120.807L133.26 117.567L133.5 116.007C133.5 115.887 133.5 115.767 133.619 115.647L134.219 114.327L134.1 113.007L133.74 111.687L132.9 110.967L129.78 110.367H129.66L128.34 110.007L126.78 110.127L125.34 111.087L123.18 113.727L122.58 115.287C122.58 115.407 122.58 115.407 122.46 115.527L121.619 116.847L121.5 118.407L119.1 118.287L119.219 116.367C119.219 116.127 119.34 116.007 119.34 115.767L120.3 114.207L120.9 112.527C120.9 112.407 121.019 112.287 121.14 112.167L123.54 109.287C123.66 109.167 123.66 109.167 123.78 109.047L125.58 107.847C125.7 107.727 125.94 107.607 126.18 107.607L128.34 107.367C128.46 107.367 128.7 107.367 128.819 107.367L130.38 107.847L133.74 108.447C133.98 108.447 134.1 108.567 134.34 108.687L135.78 109.887C136.019 110.007 136.14 110.247 136.14 110.487L136.619 112.287V112.407L136.86 114.207C136.86 114.447 136.86 114.687 136.74 114.807L136.14 116.247L135.9 117.807C135.9 117.927 135.9 118.047 135.78 118.167L134.46 121.407L133.98 122.967L133.5 124.527C133.5 124.647 133.5 124.647 133.38 124.767L132.66 126.207C132.54 126.327 132.54 126.447 132.3 126.567L130.98 127.647C130.98 127.647 130.86 127.767 130.74 127.767L129.3 128.487C129.18 128.487 129.06 128.607 128.94 128.607L127.38 128.967C127.26 128.967 127.26 128.967 127.14 128.967L125.34 129.087C125.219 129.087 125.219 129.087 125.1 129.087L123.419 128.847L121.74 129.087L119.819 129.327H119.7L116.1 129.207L114.419 129.447H114.3L112.26 129.327C112.38 129.327 112.38 129.327 112.26 129.327Z" fill="#201F1B"/>
<path d="M114.9 88.6473H112.98L111.3 89.2473L110.1 90.6869L108.78 92.1265L108.18 93.8067L107.82 95.4869L107.34 97.1671L106.62 98.7266L106.02 100.287L105.42 101.967L104.94 103.527L104.34 105.207L103.74 106.767L103.14 108.447V110.007L103.38 111.567L104.22 112.887L105.42 113.967L106.86 114.687L108.3 115.527L110.1 115.647L112.02 115.887L113.82 116.247L115.62 116.487L117.3 117.087L119.22 117.327L121.02 117.567L122.82 117.807L124.38 117.927L125.94 117.567L127.26 116.607L128.58 115.767L129.42 114.327L130.38 112.887L131.1 111.207L131.82 109.647L132.66 108.087L133.5 106.527L133.86 104.847L133.62 103.047L132.66 101.607L131.1 100.527L129.54 100.047L127.86 99.6869L125.82 99.3265L123.78 100.047L122.46 101.367L121.14 102.687L119.58 103.767L118.74 105.567L117.78 107.127" fill="#7A6D69"/>
<path d="M124.38 119.127H122.7H122.58L120.78 118.767L118.98 118.527L117.18 118.407C117.06 118.407 116.94 118.407 116.82 118.287L115.14 117.687L113.46 117.447L111.66 117.087L108.06 116.727C107.94 116.727 107.7 116.607 107.58 116.607L104.7 115.047C104.58 115.047 104.58 114.927 104.46 114.927L103.26 113.847C103.14 113.727 103.14 113.727 103.02 113.607L102.18 112.287C102.06 112.167 102.06 111.927 101.94 111.807L101.7 110.247C101.7 110.127 101.7 110.127 101.7 110.007V108.447C101.7 108.327 101.7 108.207 101.82 108.087L103.62 103.287L104.1 101.727L106.02 96.8067L106.5 95.2473L106.86 93.6869V93.5671L107.46 91.7671C107.46 91.6473 107.58 91.5274 107.7 91.4067L108.9 90.0869L109.98 88.6473C110.1 88.4067 110.34 88.2869 110.58 88.2869L112.38 87.6869C112.5 87.6869 112.62 87.6869 112.74 87.6869H114.54V90.0869H112.86L111.66 90.4473L110.7 91.6473L109.5 92.8473L109.02 94.2869L108.66 95.8473L108.06 97.5265L106.14 102.327L105.66 103.887L103.98 108.567V109.767L104.22 110.967L104.82 111.927L105.78 112.767L108.3 114.087L111.66 114.447H111.78L113.58 114.807L115.38 115.047C115.5 115.047 115.5 115.047 115.62 115.047L117.18 115.647L118.86 115.767L120.78 116.007L122.58 116.367H123.9L125.1 116.127L127.38 114.567L127.98 113.367C127.98 113.367 127.98 113.247 128.1 113.247L129.06 111.807L129.78 110.367L130.5 108.807L131.34 107.127L132.18 105.687L132.66 104.847L132.54 103.527L131.82 102.447L130.62 101.607L129.3 101.127L127.74 100.767L126.06 100.527L124.5 101.007L122.1 103.407L121.98 103.527L120.66 104.487L119.82 106.047L118.86 107.727L116.82 106.527L117.78 104.847L118.62 103.167C118.74 103.047 118.86 102.927 118.98 102.807L120.42 101.727L123.06 99.0869C123.18 98.9671 123.42 98.8473 123.54 98.8473L125.58 98.2473C125.7 98.2473 125.94 98.1265 126.06 98.2473L128.1 98.4869L129.78 98.8473H129.9L131.46 99.4473C131.58 99.4473 131.7 99.5671 131.7 99.5671L133.26 100.647C133.38 100.767 133.5 100.887 133.62 101.007L134.58 102.567C134.7 102.687 134.7 102.927 134.82 103.047L135.06 104.847C135.06 104.967 135.06 105.087 135.06 105.207L134.7 106.887C134.7 107.007 134.58 107.127 134.58 107.247L133.62 108.807L131.46 113.487C131.46 113.487 131.46 113.607 131.34 113.607L130.38 115.047L129.66 116.367C129.54 116.487 129.42 116.727 129.3 116.727L126.66 118.527C126.54 118.647 126.42 118.647 126.18 118.767L124.62 119.127C124.62 119.127 124.5 119.127 124.38 119.127Z" fill="#201F1B"/>
<path d="M143.46 83.487L141.78 83.247L140.1 82.647L138.54 81.927L136.98 81.087L135.18 80.727L133.62 80.007L131.94 79.407L130.38 78.807L128.58 78.687L126.9 77.967L125.22 77.607L123.54 77.127L121.74 77.007H120.18L118.62 77.127L117.18 77.967L115.86 78.927L114.66 79.887L113.94 81.327L112.98 82.647L112.5 84.327L111.54 85.6472L110.82 87.2067L109.98 88.5274L109.38 90.0869L108.54 91.5274L107.7 92.967L106.62 94.1671L106.74 96.2067L106.86 98.0067L107.94 99.5671L109.26 100.767L110.94 101.727L112.62 102.327L114.3 102.687L115.98 103.287L117.54 104.007L119.34 104.247L120.9 105.087L122.7 105.327L124.26 106.167H126.18L127.98 105.687L129.9 105.087L131.1 103.527L131.94 102.087L132.9 100.647L134.1 99.4472L134.94 98.0067L136.26 96.9274L136.62 95.1274L136.74 93.4472L135.9 91.7671L134.46 90.9274L133.02 90.0869L131.58 89.4869L129.66 88.7671L127.86 89.4869L126.3 90.4472L124.86 91.4067L123.42 92.4869L122.1 93.6869L121.02 95.1274" fill="#746965"/>
<path d="M124.26 107.367C124.02 107.367 123.9 107.367 123.66 107.247L122.22 106.527L120.66 106.287C120.54 106.287 120.42 106.287 120.3 106.167L118.86 105.447L117.3 105.207C117.18 105.207 117.06 105.207 116.94 105.087L115.38 104.367L113.94 103.767L112.26 103.407C112.14 103.407 112.14 103.407 112.02 103.407L110.34 102.807C110.34 102.807 110.22 102.807 110.22 102.687L108.54 101.847C108.42 101.847 108.42 101.727 108.3 101.727L106.98 100.527C106.86 100.527 106.86 100.407 106.86 100.287L105.78 98.7275C105.66 98.4869 105.54 98.3671 105.54 98.1275L105.3 94.2869C105.3 93.9266 105.42 93.6869 105.54 93.4473L106.62 92.2473L108.18 89.6067L108.78 88.1671C108.78 88.0473 108.9 88.0473 108.9 87.9275L109.74 86.6067L110.34 85.1671C110.34 85.047 110.46 85.047 110.46 84.927L111.3 83.727L111.66 82.287C111.66 82.167 111.78 82.047 111.9 81.927L112.86 80.727L113.58 79.407C113.7 79.287 113.7 79.167 113.94 79.047L115.14 77.967C115.14 77.967 115.26 77.967 115.26 77.847L118.02 76.047C118.14 75.927 118.38 75.927 118.5 75.807L120.06 75.687H120.18H121.74L123.54 75.807C123.66 75.807 123.66 75.807 123.78 75.807L125.46 76.287L127.02 76.647C127.14 76.647 127.14 76.647 127.26 76.767L128.7 77.367L130.26 77.487C130.38 77.487 130.5 77.487 130.62 77.607L132.3 78.327L133.86 78.927L135.42 79.647L136.98 79.887C137.1 79.887 137.22 80.007 137.34 80.007L140.34 81.567L141.9 82.047L143.58 82.287L143.22 84.687L141.42 84.327H141.3L139.62 83.847C139.62 83.847 139.5 83.847 139.5 83.727L136.5 82.167L134.94 81.927C134.82 81.927 134.7 81.927 134.7 81.807L133.14 81.087L131.58 80.607L130.14 80.007L128.58 79.887C128.46 79.887 128.34 79.887 128.22 79.767L126.66 79.167L125.1 78.807L123.42 78.327L121.74 78.207H120.3L119.1 78.327L116.7 79.887L115.74 80.727L115.14 81.927C115.14 82.047 115.02 82.047 115.02 82.047L114.18 83.247L113.82 84.687C113.82 84.807 113.7 84.927 113.7 85.047L112.86 86.3671L112.26 87.8067C112.26 87.8067 112.26 87.9275 112.14 87.9275L111.06 89.1275L110.46 90.5671C110.46 90.6869 110.46 90.6869 110.34 90.6869L108.66 93.5671L108.54 93.6869L107.82 94.6473L108.06 97.6473L108.9 98.8473L110.1 99.9275L111.54 100.767L112.98 101.367L114.66 101.727C114.78 101.727 114.78 101.727 114.9 101.727L116.58 102.327L118.02 103.047L119.58 103.287C119.7 103.287 119.82 103.287 119.94 103.407L121.38 104.127L122.94 104.367C123.06 104.367 123.18 104.367 123.3 104.487L124.62 105.207H126.06L127.74 104.727L129.18 104.247L130.14 103.167L130.86 101.847C130.86 101.847 130.86 101.727 130.98 101.727L131.94 100.407L132.06 100.287L133.14 99.2067L133.98 97.8869C134.1 97.7671 134.1 97.6473 134.22 97.5275L135.3 96.6869L135.54 95.4869V94.1671L135.06 93.0869L132.54 91.6473L131.22 91.0473L129.78 90.5671L128.46 91.0473L125.58 92.8473L124.26 93.9275L123.06 95.0067L121.98 96.3275L120.06 94.8869L121.14 93.4473L121.26 93.3275L122.58 92.1275L124.02 90.9275C124.02 90.9275 124.14 90.9275 124.14 90.8067L127.14 88.8869C127.26 88.8869 127.26 88.7671 127.38 88.7671L129.3 88.0473C129.54 87.9275 129.9 87.9275 130.14 88.0473L132.06 88.7671C132.06 88.7671 132.18 88.7671 132.18 88.8869L133.62 89.6067L136.62 91.2869C136.86 91.4067 136.98 91.6473 137.1 91.7671L137.82 93.3275C137.94 93.4473 137.94 93.6869 137.94 93.8067V95.4869C137.94 95.6067 137.94 95.6067 137.94 95.7275L137.58 97.5275C137.58 97.7671 137.34 98.0067 137.1 98.2473L135.9 99.2067L135.06 100.047C135.06 100.167 134.94 100.167 134.94 100.287L133.86 101.487L133.02 102.687L132.3 104.127C132.3 104.247 132.18 104.247 132.18 104.367L130.86 105.807C130.74 105.927 130.5 106.047 130.38 106.167L128.58 106.767L126.78 107.247C126.66 107.247 126.54 107.247 126.42 107.247L124.26 107.367Z" fill="#3F3D35"/>
<path d="M130.38 143.247L132.06 143.487L133.5 143.967L135.18 144.087L136.74 143.967L138.42 144.327L139.98 143.847L141.54 143.727" fill="#CAA195"/>
<path d="M138.42 145.527C138.3 145.527 138.3 145.527 138.18 145.527L136.74 145.287L135.3 145.407C135.18 145.407 135.18 145.407 135.06 145.407L133.5 145.287C133.38 145.287 133.38 145.287 133.26 145.287L131.82 144.807L130.26 144.447L130.5 142.047L132.06 142.287C132.18 142.287 132.18 142.287 132.3 142.287L133.74 142.767L135.06 142.887L136.62 142.767C136.74 142.767 136.86 142.767 136.98 142.767L138.3 143.007L139.62 142.647C139.74 142.647 139.86 142.647 139.98 142.647L141.66 142.527L141.78 144.927L140.34 145.047L138.9 145.527C138.66 145.527 138.54 145.527 138.42 145.527Z" fill="#201F1B"/>
<path d="M91.8599 219.807L90.2999 220.167L88.4999 219.927L86.8199 220.167L85.0199 219.687L83.3399 219.927L81.5399 219.807L79.8599 219.927L78.0599 219.807L76.3799 220.047L74.5799 219.927H72.8999H71.0999L69.4199 220.167L67.6199 220.047L65.9399 219.927L64.1399 219.807L62.4599 219.687L60.6599 219.927H58.8599H57.1799L55.3799 220.047V218.247L55.2599 216.447V214.767V213.087L55.6199 211.287L55.2599 209.607V207.807L55.3799 206.127L55.6199 204.447V202.647L55.4999 200.967L55.3799 199.167L55.6199 197.487V195.807L55.3799 194.007V192.327L55.2599 190.527L55.4999 188.847L55.6199 187.167L55.4999 185.367L55.6199 183.687L55.2599 181.887L55.4999 180.207L55.2599 178.287L57.1799 178.527L58.8599 178.407L60.6599 178.527H62.3399H64.1399H65.8199L67.6199 178.407L69.2999 178.287L71.0999 178.647L72.7799 178.287L74.5799 178.407L76.2599 178.167H78.0599H79.7399L81.5399 178.527H83.3399L85.0199 178.287L86.8199 178.407L88.4999 178.647L90.2999 178.287L91.9799 178.407L91.8599 180.207L92.0999 181.887V183.567L91.9799 185.367L92.2203 187.047L91.8599 188.847L92.2203 190.527L92.0999 192.207L91.9799 194.007L92.2203 195.687L91.9799 197.487L91.8599 199.167V200.847L91.9799 202.647L91.8599 204.327V206.127L92.0999 207.807L91.9799 209.607L92.0999 211.287L92.2203 212.967L91.8599 214.767L92.0999 216.447L91.9799 218.247L91.8599 219.807Z" fill="#223426"/>
<path d="M94.9798 178.527L93.1798 178.287L91.4999 178.527H89.8199H88.1399H86.4599L84.7799 178.407L83.0999 178.647L81.4199 178.167L79.6199 178.287L77.9399 178.407H76.2599L74.5799 178.527H72.8999H71.2199L69.5399 178.647L67.8599 178.287L66.1799 178.647L64.3799 178.287L62.6999 178.647L61.0199 178.287L59.3399 178.647L57.6599 178.527H55.9799H54.2999L52.4999 178.407L52.7399 176.727L52.6199 174.927L52.4999 173.247L52.3799 171.447L52.7399 169.767L52.6199 167.967L52.3799 166.287L52.6199 164.607L54.1799 164.727L55.9799 164.487H57.6599H59.3399L61.0199 164.367L62.6999 164.487L64.3799 164.367L66.0599 164.727L67.7399 164.607L69.4199 164.367L71.0999 164.727L72.8999 164.367H74.5799H76.2599L77.9399 164.487L79.6199 164.607L81.2999 164.727H82.9799L84.6599 164.487L86.4599 164.727L88.1399 164.247L89.8199 164.727L91.4999 164.487H93.1798L94.7402 164.607L94.86 166.287L94.7402 167.967L94.9798 169.767V171.447L94.7402 173.247V174.927L95.0996 176.727L94.9798 178.527Z" fill="white"/>
<path d="M96.1799 179.847L93.1799 179.487L91.62 179.607L88.14 179.727L84.78 179.607L82.98 179.727L81.3 179.367H79.74L78.18 179.487L71.34 179.607L69.54 179.727L67.98 179.367L66.3 179.727L64.62 179.367L62.94 179.607L61.26 179.247L59.7 179.607L57.78 179.487H54.42L51.42 179.367L51.78 176.487L51.42 171.207L51.78 169.407V167.847L51.42 166.047L51.9 163.167L54.42 163.287L56.1 163.047H57.78L61.14 162.927L62.82 163.047L64.62 162.927L66.3 163.287L67.74 163.167L69.54 162.927L71.22 163.287L72.78 163.047H74.58L76.26 162.927L79.74 163.287L82.98 163.407L84.78 163.167L86.46 163.407L88.26 162.927L90.06 163.287L91.62 163.167H93.5402L96.1799 163.407L96.2997 166.167L96.1799 167.847L96.4204 169.647V171.447L96.1799 173.247V174.807L96.5402 176.607L96.1799 179.847ZM53.82 177.327H54.3H57.66L59.22 177.447L61.02 177.087L62.7 177.447L64.38 177.207L66.06 177.567L67.74 177.207L69.54 177.567L72.78 177.447L77.94 177.327L79.5 177.207H81.42L83.1 177.567L84.66 177.447L88.14 177.567L91.5 177.447L93.1799 177.327L93.8997 177.447V176.967L93.5402 175.287L93.66 173.247L93.8997 171.567V170.007L93.66 168.207L93.7799 166.407V165.927H93.2997H91.62L89.82 166.047L88.26 165.687L86.58 166.047L84.78 165.807L83.1 166.047H81.3L77.82 165.807L76.14 165.567L74.58 165.687H72.9L71.1 166.047L69.42 165.687L67.74 165.927L65.94 166.047L64.26 165.687L62.7 165.807L60.9 165.687L57.54 165.807H55.86L54.18 166.047H53.58L53.46 166.407L53.82 168.087V170.007L53.46 171.687L53.82 176.847V177.327Z" fill="#246F58"/>
<path d="M85.26 209.247L83.82 210.567L82.5 212.007L81.18 213.567L79.62 214.407L78.06 213.927L76.5 213.327L75.66 211.887L75.54 210.207L76.5 208.767L77.82 207.327L79.14 205.887L80.82 204.807L82.14 203.847L83.82 203.607L85.14 204.687V204.807L86.22 206.007L85.86 207.687L85.26 209.247Z" fill="white"/>
<path d="M86.7 189.927L85.5 191.487L83.94 192.687L82.5 194.127L81.18 194.967H79.62L78.06 194.367L78.18 194.127L77.22 192.807V191.127L78.06 189.567L79.5 188.247L80.94 187.047L82.14 185.367L83.82 184.887L85.38 184.647L86.82 185.607V185.487L87.66 186.927L87.9 188.727L86.7 189.927Z" fill="white"/>
<path d="M70.4999 209.247L69.0599 210.567L67.4999 211.767L66.2999 213.327L64.8599 214.287L63.2999 214.047L61.7399 213.327L60.8999 211.887L61.1399 210.327L61.6199 208.647L62.9399 207.327L64.4999 206.007L65.8199 204.567L67.3799 203.727L69.0599 203.847L70.6199 204.567V204.447L71.0999 206.127L71.4599 207.807L70.4999 209.247Z" fill="white"/>
<path d="M66.3001 193.647L66.0601 195.687L65.9401 197.607V199.647L65.5801 201.207L64.5001 202.527L62.9401 203.007V202.767L61.2601 202.407L59.9401 201.327L59.4601 199.647L59.5801 197.607L59.7001 195.687V193.647L60.1801 192.087L61.2601 190.887L62.9401 190.287V190.647L64.5001 191.007L65.8201 191.967L66.3001 193.647Z" fill="white"/>
<path d="M73.7401 194.727L74.9401 196.407L76.38 197.727L77.7 199.167L78.5401 200.607L78.6601 202.167L77.8201 203.727L76.2601 204.447L74.58 204.567L73.1401 203.727L71.7001 202.287L70.38 200.847L68.8201 199.647L68.1001 198.087L67.98 196.287L68.9401 194.847L68.8201 194.727L70.5001 194.127L72.0601 194.247L73.7401 194.727Z" fill="white"/>
<path d="M204.3 170.967L204.42 172.767V174.447L204.18 176.247L204.06 177.927V179.727L204.3 181.407L204.06 183.207L204.54 184.887L204.42 186.687L204.3 188.487L204.06 190.167L204.42 191.967L204.06 193.647L204.54 195.447L204.3 197.127L204.18 198.927L204.3 200.727L204.18 202.407L204.42 204.207L204.3 205.887L204.54 207.687L204.18 209.367L204.06 211.167L204.18 212.967L204.3 214.647L204.18 216.447L204.42 218.247L204.3 219.927L205.98 219.687H207.66L209.46 220.047L211.14 219.927H212.82H214.62H216.3L217.98 220.047L219.78 219.807L221.46 219.927H223.14L224.94 219.807L226.62 220.167L228.3 219.927L230.1 219.687L231.78 220.167H233.46L235.26 220.047H236.94L238.62 219.807L240.42 220.047H242.1L243.78 219.807L245.58 220.047L247.26 219.807L248.94 219.927H250.74H252.42L252.18 218.247L252.54 216.447V214.767L252.42 212.967L252.66 211.287V209.487V207.687L252.3 206.007L252.66 204.207L252.3 202.527V200.727V199.047L252.54 197.247L252.42 195.447V193.767V191.967V190.287L252.54 188.487L252.42 186.807L252.54 185.007L252.66 183.207L252.54 181.527L252.42 179.727L252.3 178.047L252.66 176.247L252.3 174.447V172.767L252.54 170.967L252.42 169.167L251.94 167.487V165.687L251.34 164.007L250.38 162.567L249.54 161.007L248.34 159.687L246.9 158.607L245.46 157.647L243.9 157.047L242.22 156.207H240.3L240.54 154.287L240.3 152.487L240.66 150.687L240.3 149.007L238.74 148.767H237.18H235.5H233.82L232.14 149.127L230.46 149.007L228.78 149.127H227.1L225.42 149.007H223.74L222.06 149.127L220.38 148.767H218.7H217.02L215.34 148.887L215.22 150.687V152.487L215.1 154.287L215.46 156.207L213.66 156.447L211.98 156.807L210.54 157.887L209.22 158.727L208.02 160.047L206.7 161.127L205.98 162.687L205.26 164.247L204.66 165.807L204.3 167.487V169.287V170.967Z" fill="#5C5C34"/>
<path d="M210.78 148.887L212.58 149.127L214.26 148.887H215.94L217.62 148.647L219.3 149.007H220.98H222.78L224.46 148.767H226.14H227.82H229.5L231.18 148.887L232.86 148.767H234.54H236.34L238.02 148.887L239.7 149.007H241.38L243.06 148.647L244.74 148.767V146.967L244.62 145.167V143.247V141.447L244.86 139.527V137.607L243.06 137.727L241.38 137.487L239.7 137.607L238.02 137.487L236.34 137.727L234.66 137.847L232.98 137.727L231.18 137.847L229.5 137.727H227.82H226.14L224.46 137.487L222.78 137.727H221.1L219.42 137.847L217.62 137.487L215.94 137.847L214.26 137.727L212.58 137.487L211.02 137.727L210.78 139.527L211.02 141.447L210.78 143.247L210.66 145.167L210.9 146.967L210.78 148.887Z" fill="#AF5C5C"/>
<path d="M212.58 150.327L209.58 150.087L209.7 147.087L209.46 145.167L209.58 143.247L209.82 141.447L209.58 139.647L209.82 136.887L212.46 136.407L214.38 136.647L215.82 136.767L217.62 136.407L219.42 136.767L220.98 136.647H222.66L224.46 136.407L226.26 136.647H227.82H229.5L231.3 136.767H232.86L234.66 136.887L236.1 136.767L237.9 136.407L239.7 136.527H241.38L243.06 136.767L245.94 136.647L246.06 139.887L245.82 141.807L245.94 143.607V145.527L246.18 147.447L246.06 150.567L243.3 150.327L241.62 150.567L239.82 150.687L238.02 150.567L236.34 150.327H234.66L232.98 150.447H231.18L229.38 150.327L226.14 150.447H224.46L222.66 150.687H220.98L219.06 150.567L217.5 150.327L215.82 150.447H214.14L212.58 150.327ZM212.1 147.807H212.58L214.26 147.567H215.94L217.74 147.327L219.54 147.567L221.22 147.687H222.78L224.46 147.447H226.26L229.62 147.327L231.42 147.447H232.98L234.66 147.327H236.58L238.26 147.567L239.82 147.687L241.38 147.567L243.18 147.207H243.66V146.727L243.42 144.807L243.54 142.887L243.42 140.967L243.66 139.047V138.447H243.06L241.38 138.207H239.7L238.02 138.087L236.34 138.447L234.66 138.567L232.86 138.447H231.3L229.5 138.327H227.82H225.9L224.34 138.087L222.66 138.327H220.86L219.06 138.447L217.5 138.087L215.94 138.447L214.02 138.327L212.46 138.087L211.98 138.207L211.86 138.927L212.1 140.847L211.86 142.887L211.74 144.567L211.98 146.487L212.1 147.807Z" fill="#ABABAB"/>
<path d="M235.14 207.687L230.34 207.327L228.66 207.687L226.86 207.567L225.06 207.687L223.38 207.567L221.7 207.687L219.66 207.567L218.22 207.207L216.54 207.687L211.14 207.567L207.78 207.327L206.1 207.567L204.18 207.447L204.3 205.047L205.98 205.167L207.66 204.927L209.46 205.047L211.26 205.167L216.3 205.287L218.1 204.807L220.02 205.167L221.58 205.287L223.38 205.167L225.18 205.287L226.74 205.167H228.54L230.22 204.927L232.74 205.047L232.62 202.887L232.86 201.087V199.527L232.74 197.967L232.62 196.047L232.74 194.487L232.38 192.687L232.74 191.007V189.447V187.647V186.087L232.62 184.407V182.487L232.86 180.927L232.62 178.647H232.02L230.34 178.767L228.66 178.647L226.98 179.007L225.06 178.767H223.38L221.58 178.887L219.9 178.647H218.22H216.42H213.06L211.26 178.887L209.58 178.647L207.78 179.007L205.86 178.647L204.18 178.527L204.3 176.127L206.22 176.247L207.78 176.487L209.46 176.127L211.26 176.487L212.94 176.247H216.42H218.22H220.02L221.7 176.487L223.38 176.367H225.18L226.74 176.487L228.54 176.127L230.34 176.367L232.02 176.247L234.9 176.487L235.02 179.127L235.26 180.927L235.02 182.727V184.287L235.14 185.967V187.767V189.327V191.127L234.78 192.807L235.14 194.367L235.02 196.167L235.14 197.727L235.26 199.407V201.207L235.02 202.887L235.14 207.687Z" fill="white"/>
<path d="M122.34 163.167L124.02 163.407L125.82 163.287L127.5 163.407L129.18 162.927L130.86 163.287L132.54 163.167H134.22L136.02 163.407L137.7 162.927L139.38 163.167L141.06 163.407L142.74 162.927L144.42 163.047L146.22 163.407L147.9 163.287H149.58H151.26L152.94 162.927L154.74 163.167L156.42 163.287L158.1 163.047L159.78 162.927L161.46 163.047H163.26L164.94 163.407H166.62L168.3 163.287L169.98 163.047H171.78H173.46L175.14 163.287L176.82 163.167H178.62L178.5 164.847L178.62 166.647L178.74 168.327L179.1 170.007L179.34 171.687L179.22 173.367L179.58 175.047L179.7 176.727V178.407L180.06 180.087V181.767V183.567L180.42 185.247L180.3 186.927L180.66 188.607V190.287L181.02 191.967V193.647L181.14 195.447V197.127L181.38 198.807L181.5 200.487L181.74 202.167L181.86 203.847L182.1 205.527V207.327V209.007L182.46 210.687L182.7 212.367L182.82 214.047L182.58 215.847L182.82 217.527L183.06 219.207L183.18 220.887L181.5 221.007H179.82L178.02 220.767L176.34 220.887L174.66 221.127L172.86 220.647L171.18 221.127L169.5 221.007L167.82 220.887L166.02 221.007L164.34 220.767H162.66H160.86H159.18H157.5L155.7 220.887L154.02 220.767L152.34 220.887L150.54 220.767L148.86 220.887L147.18 220.767H145.38L143.7 221.007L142.02 220.767L140.22 221.007L138.54 221.127L136.86 220.767L135.06 220.887L133.38 221.127L131.7 221.007L129.9 220.767H128.22L126.54 220.647L124.74 220.767L123.06 221.127L121.38 220.767H119.58L117.9 220.887L118.02 219.207L118.38 217.407L118.02 215.607L118.5 213.927L118.74 212.127L118.86 210.447L119.1 208.647L118.86 206.967L119.1 205.167V203.487L119.46 201.687L119.58 200.007V198.207L119.7 196.407L119.82 194.727L120.06 192.927V191.247L120.18 189.447L120.54 187.767L120.78 185.967L120.9 184.287L121.02 182.487V180.687L120.9 179.007L121.14 177.207L121.5 175.527L121.38 173.727L121.86 171.927L121.62 170.247L121.86 168.447L122.34 166.767L122.22 164.967L122.34 163.167Z" fill="#9BACBA"/>
<path d="M147.3 208.287L144.06 208.047L144.42 205.407L144.06 203.847L144.18 202.167L144.06 200.607V200.007L143.7 199.887L142.14 200.007L140.58 199.887L139.02 200.127H136.14L136.26 197.127L136.14 195.327V193.407L136.02 191.607L136.26 188.727L138.9 188.487H140.7L142.26 188.727L143.82 188.607L144.42 188.727V188.367L144.18 186.687V185.127V183.567L144.3 181.047L147.06 180.567L148.98 180.687L150.78 180.927L152.58 180.687L155.58 180.927V183.567V185.247L155.46 186.807L155.7 188.487V188.847H156.06L157.74 188.727L159.18 188.967L160.74 188.607L163.38 188.967L163.74 191.727V193.647L163.5 195.567L163.38 197.247L163.62 200.007L160.86 200.487L159.06 200.247L157.62 200.127L155.94 200.367L155.34 200.247V200.607L155.46 202.047L155.7 203.727L155.46 205.287L155.82 208.167H152.34L150.66 207.927L147.3 208.287ZM146.82 205.767H147.3L151.02 205.407L152.94 205.767H153.42L153.3 205.287L153.54 203.727L153.3 202.287L153.18 200.487L153.54 197.487L156.18 197.847L157.74 197.727L159.42 197.847L160.86 197.967H161.1L160.98 197.127L161.1 195.207L161.34 193.287V191.607L161.22 190.767L160.74 190.647L159.18 191.007L157.5 190.647H156.06L152.82 191.127L153.18 188.007L152.94 186.447L153.06 184.767V183.207V182.847H152.46L150.66 183.087L148.74 182.847L147.18 182.727L146.46 182.847V183.327V184.887V186.447L146.7 188.127L146.58 191.247L143.7 190.887L142.14 191.007L140.58 190.767L138.54 190.887L138.42 191.607L138.54 193.287V195.207L138.66 197.007V197.607H138.9L140.58 197.367L142.26 197.487L143.94 197.367L146.58 197.847V200.247L146.82 201.927L146.7 203.487L147.06 205.167L146.82 205.767Z" fill="#D31B1B"/>
<path d="M2.33997 221.127L4.13997 220.647L5.81997 220.767H7.49997L9.29997 220.647L10.98 220.887L12.66 221.007L14.46 220.887L16.14 220.767L17.82 221.127L19.62 220.887L21.3 221.007L22.98 220.767L24.78 221.127L26.46 221.007L28.14 221.127L29.94 221.007L31.62 220.647L33.42 221.127L35.1 220.767L36.78 220.887L38.58 220.767L40.26 220.887L41.94 220.767L43.74 220.887L45.42 220.647L47.1 220.887L48.9 220.767L50.58 221.007L52.26 220.767L54.06 220.887L55.74 221.127L57.54 220.887H59.22L60.9 220.767L62.7 221.007L64.38 220.767L66.06 221.007L67.86 220.767L69.54 221.007H71.22L73.02 220.887L74.7 220.767H76.5H78.18L79.86 221.007H81.66L83.34 220.767L85.02 220.887H86.82H88.5H90.18L91.98 220.767L93.66 221.127L95.3402 220.887L97.1402 221.007L98.8203 221.127L100.5 220.767H102.3H103.98L105.66 221.127H107.46L109.14 220.767L110.82 220.887L112.62 221.127L114.3 220.887H115.98H117.78L119.46 221.007L121.14 220.647L122.94 221.007L124.62 221.127L126.3 220.767L128.1 220.887H129.78L131.46 220.767H133.26H134.94L136.62 221.007L138.42 220.887L140.1 220.647L141.9 221.007H143.58H145.26L147.06 221.127L148.74 220.887H150.42L152.22 220.647L153.9 220.767L155.58 221.127L157.38 220.767L159.06 220.647L160.86 221.127L162.54 221.007L164.22 220.887L166.02 220.767L167.7 220.887L169.38 221.127L171.18 221.007L172.86 220.887L174.54 220.767L176.34 220.887L178.02 221.007L179.82 220.767H181.5L183.18 221.007L184.98 220.887H186.66L188.34 221.007L190.14 220.647L191.82 220.767L193.5 221.007H195.3H196.98H198.78L200.46 220.767L202.14 220.887L203.94 220.767H205.62L207.42 221.007L209.1 220.767L210.78 221.007L212.58 221.127L214.26 221.007L215.94 220.767L217.74 221.127H219.42L221.22 220.767L222.9 220.887H224.58L226.38 221.007H228.06L229.86 220.887H231.54L233.22 221.127L235.02 221.007L236.7 220.887H238.5L240.18 220.647L241.86 221.127H243.66L245.34 220.767H247.02L248.82 220.887L250.5 220.767H252.18L253.98 221.127H255.66L257.46 220.887L259.14 220.767H260.82H262.62L264.3 221.007L266.1 221.127L267.78 220.887L269.46 221.007L271.26 221.127L272.94 220.887H274.74H276.42H278.22L279.9 220.647L281.58 220.767L283.38 221.007L285.06 220.887H286.86H288.54L290.22 220.647L292.02 221.007H293.7L295.5 220.887L297.18 221.007L298.98 221.127" fill="white"/>
<path d="M160.62 222.447L158.94 221.967L157.5 222.087L155.58 222.447L153.78 222.087H152.22L150.54 222.207H148.86L147.06 222.447L145.26 222.327L143.58 222.447L141.66 222.327L140.1 222.087L138.54 222.327L136.62 222.447L134.82 222.087H131.46L129.78 222.207L126.42 222.087L124.62 222.447H122.58L121.14 222.087L119.58 222.327L117.78 222.207H116.1H114.42L112.62 222.447L110.7 222.207L109.26 222.087L107.46 222.447H105.66L103.86 222.087L100.62 221.967L98.8204 222.327L95.3402 222.087L93.5402 222.327L91.8599 221.967L90.1799 222.087H88.4999L86.6999 221.967H85.0199L83.4599 221.847L81.7799 222.207L79.8599 222.087L78.0599 221.847H76.4999H74.8199L71.4599 221.967H69.5399L67.8599 221.727L66.0599 221.967L64.3799 221.607L62.6999 221.847L60.8999 221.607L59.2199 221.727L57.5399 221.607L55.7399 221.847L53.8199 221.607H52.3799L50.5799 221.847L48.7799 221.607L47.0999 221.727L45.4199 221.487L43.7399 221.607L42.0599 221.487L40.3799 221.727L38.5799 221.607L36.8999 221.727L35.2199 221.607L33.4199 221.967L31.6199 221.607L30.1799 221.847L28.2599 222.087L26.4599 221.847L24.6599 222.447L22.9799 222.207L21.2999 222.447L19.6199 222.327L17.8199 222.567L16.0199 222.207L14.4599 222.327L12.6599 222.447L10.8599 222.327L9.17993 222.087L5.81993 222.207L4.25993 222.087L2.69993 222.447C1.97993 222.567 1.25993 222.207 1.13993 221.487C1.01993 220.767 1.37993 220.047 2.09993 219.927L4.01993 219.447L5.93993 219.567L9.41993 219.447L11.2199 219.687L12.7799 219.807L14.3399 219.687L16.2599 219.567L17.9399 219.927L19.4999 219.687L21.1799 219.807L22.9799 219.567L24.7799 219.807L26.4599 219.687L28.1399 219.807L29.6999 219.687L31.6199 219.447L33.2999 219.807L34.8599 219.567L36.6599 219.687L38.3399 219.567L40.0199 219.687L41.6999 219.447L43.3799 219.567L45.1799 219.447L46.9799 219.687L48.6599 219.567L50.3399 219.807L52.0199 219.567L53.8199 219.687L55.4999 219.927L57.1799 219.687L58.8599 219.807L60.6599 219.567L62.3399 219.807L64.1399 219.567L65.8199 219.927L67.4999 219.687L69.2999 219.927L72.6599 219.807L74.3399 219.687H76.1399H77.9399L79.7399 219.927L81.1799 220.047L82.8599 219.687L84.6599 219.807H86.3399L88.1399 219.927H89.6999L91.4999 219.687L93.1798 220.047L94.86 219.807L98.2204 220.047L99.8996 219.687L103.74 219.807L105.3 220.047H106.74L108.54 219.687L110.46 219.807L112.14 220.047L113.82 219.807H115.5H117.18H118.86L120.66 219.447L122.46 219.807H123.9L125.7 219.447L129.18 219.567L130.86 219.447H134.46L136.14 219.687L137.7 219.567L139.5 219.327L141.3 219.687L142.86 219.807L144.66 219.687L146.34 219.807L148.02 219.567H149.7L151.38 219.447L153.42 219.567L154.86 219.807L156.54 219.567L158.46 219.447L160.14 219.927L165.18 219.567L166.98 219.687L168.66 219.927H170.22L171.9 219.687L173.82 219.567L175.62 219.807H177.18L178.98 219.567H180.78L182.46 219.807L184.02 219.687H185.82L187.5 219.807L189.18 219.567L191.22 219.687L192.78 219.927H194.34L196.14 220.047H197.7L199.5 219.687L201.3 219.807L202.98 219.687H204.9L206.58 219.927L208.38 219.687L210.18 220.047L211.74 220.167L213.42 220.047L215.34 219.807L217.14 220.167H218.58L220.38 219.927L222.3 220.047L227.34 220.167L229.02 220.047H230.94L232.62 220.287H234.18L235.86 220.167H237.54L239.46 219.927L241.26 220.407H242.7L244.5 220.047H246.3L247.98 220.167L249.66 220.047H251.58L253.38 220.407H254.94L256.5 220.287L258.3 220.047L260.1 220.167L261.9 220.047L263.7 220.407H265.26L267.06 220.287L270.42 220.527L272.22 220.287H273.9H277.38L279.18 220.047L281.1 220.167L282.78 220.407L284.34 220.287L287.82 220.167L289.74 220.047L291.54 220.407L294.9 220.287L296.7 220.407L298.5 220.527C299.22 220.647 299.82 221.247 299.7 221.967C299.58 222.687 298.98 223.287 298.26 223.167L296.58 223.047L294.9 222.927L291.42 223.167L289.74 222.807L288.06 222.927H284.58L282.78 223.047L280.86 222.807L279.3 222.687L277.62 222.927H274.14H272.58L270.78 223.167L267.3 222.927L265.62 223.047H263.58L262.02 222.807L260.34 222.927L258.66 222.807L257.1 223.047L255.3 223.167H253.38L251.7 222.807H250.14L248.34 222.927L246.54 222.807H244.98L243.18 223.167H241.26L239.58 222.687L237.9 222.927H236.22L234.54 223.047H232.62L230.94 222.807H229.26L227.58 223.047L225.78 222.927L222.42 222.807L220.74 222.687L218.94 222.927H216.9L215.46 222.687L214.02 222.927L212.1 223.047L210.18 222.927L208.62 222.687L206.94 222.927L205.14 222.687H203.46L201.78 222.807L200.1 222.687L198.3 222.927H196.62L194.82 222.807L193.14 222.927L191.34 222.687H189.78L188.1 222.927L186.18 222.807H184.5L182.7 222.927L180.9 222.687H179.34L177.54 222.927H175.74L174.06 222.687L172.5 222.807L170.7 223.047H168.9L167.1 222.807L165.54 222.687L160.62 222.447Z" fill="#ABABAB"/>
<path d="M62.9399 127.647L61.1399 127.887L59.6999 128.967L58.3799 130.167L56.9399 131.247L56.0999 132.807L54.7799 134.127L54.1799 135.807L53.2199 137.367L52.7399 139.047L52.1399 140.727L51.8999 142.527L51.4199 144.207V146.007L51.1799 147.807H50.9399V146.007L50.5799 144.327L50.4599 142.527L49.7399 140.847L49.4999 139.047L48.7799 137.487L47.9399 135.807L47.4599 134.127L46.4999 132.567L45.1799 131.367L43.8599 130.167L42.6599 128.847L40.9799 128.247L39.1799 127.647L40.9799 127.047L42.6599 126.327L43.9799 125.127L45.4199 124.047L46.1399 122.367L47.2199 120.927L48.1799 119.487L48.6599 117.687L49.2599 116.007L50.0999 114.447L50.5799 112.647L50.8199 110.847L50.9399 109.047H51.1799L51.5399 110.847L51.6599 112.647L52.2599 114.327L52.6199 116.127L53.2199 117.807L54.1799 119.367L55.0199 120.927L55.7399 122.607L56.9399 123.927L58.2599 125.127L59.5799 126.447L61.1399 127.167L62.9399 127.647Z" fill="#FFCD2C"/>
<path d="M50.94 149.007C50.58 149.007 50.34 148.887 50.1 148.647C49.86 148.407 49.74 148.047 49.74 147.807V146.127L49.5 144.447L49.26 142.767L48.66 141.207C48.66 141.087 48.54 140.967 48.54 140.967L48.3 139.407L46.86 136.407C46.86 136.407 46.86 136.287 46.74 136.287L46.26 134.727L45.54 133.527L44.34 132.447L41.94 130.047L40.5 129.447L38.82 128.847C38.34 128.727 37.98 128.247 37.98 127.767C37.98 127.287 38.34 126.807 38.82 126.687L42.06 125.487L43.14 124.407L43.26 124.287L44.46 123.327L45.18 121.887C45.18 121.767 45.3 121.767 45.3 121.647L46.38 120.207L47.22 119.007L47.58 117.447V117.327L48.18 115.647L48.9 114.087L49.26 112.527L49.5 110.847L49.62 109.167C49.62 108.567 50.22 108.087 50.82 108.087H51.06C51.66 108.087 52.14 108.567 52.26 109.047L52.62 110.847V110.967L52.74 112.647L53.22 114.207L53.7 116.007L54.18 117.567L55.98 120.567C55.98 120.567 55.98 120.687 56.1 120.687L56.7 122.247L57.66 123.447L58.98 124.527L60.18 125.727L61.5 126.327L63.06 126.687C63.66 126.807 64.02 127.287 64.02 127.887C64.02 128.487 63.54 128.967 63.06 128.967L61.5 129.207L60.3 130.047L57.78 132.207L56.94 133.527C56.94 133.647 56.82 133.647 56.7 133.767L55.62 134.847L55.14 136.287C55.14 136.407 55.02 136.407 55.02 136.527L54.18 137.847L53.22 141.087L52.98 142.767L52.5 144.447V146.127V146.247L52.26 148.047C52.14 148.647 51.78 149.007 51.18 149.127L50.94 149.007ZM50.94 140.487C51.06 140.487 51.06 140.487 50.94 140.487L52.02 137.007C52.02 136.887 52.14 136.767 52.14 136.647L53.1 135.207L53.7 133.647C53.82 133.527 53.82 133.287 53.94 133.167L55.14 131.967L55.98 130.527C56.1 130.407 56.1 130.287 56.22 130.167L58.86 127.887L58.98 127.767L59.46 127.647L59.1 127.407C58.98 127.407 58.86 127.287 58.74 127.167L57.42 125.847L56.1 124.767L55.98 124.647L54.78 123.207C54.66 123.087 54.66 122.967 54.66 122.967L53.94 121.407L52.14 118.407C52.14 118.287 52.02 118.287 52.02 118.167L51.42 116.487L51.06 114.927L50.34 116.487L49.86 118.047L49.38 119.727C49.38 119.847 49.26 119.967 49.26 120.087L48.3 121.647L47.22 123.087L46.5 124.647C46.38 124.767 46.26 125.007 46.14 125.127L44.7 126.207L43.5 127.407C43.38 127.527 43.26 127.647 43.02 127.647L42.66 127.767L43.02 127.887C43.14 128.007 43.38 128.007 43.5 128.127L46.02 130.647L47.34 131.847C47.46 131.967 47.46 131.967 47.58 132.087L48.54 133.647C48.54 133.767 48.66 133.767 48.66 133.887L49.14 135.567L50.7 138.687C50.7 138.807 50.82 138.927 50.82 139.047L50.94 140.487Z" fill="#201F1A"/>
<path d="M267.66 66.9269L265.86 67.2869L264.42 68.4869L262.86 69.3269L261.66 70.6469L260.82 72.2069L259.62 73.5269L258.9 75.2069L258.18 76.7669L257.46 78.4469L257.1 80.1269L256.5 81.8069L256.38 83.6069L255.9 85.4067L255.66 87.0869V87.2067V85.4067L255.3 83.6069L255.06 81.9269L254.46 80.2469L253.98 78.4469L253.62 76.7669L252.78 75.0869L252.18 73.4069L251.1 71.9669L249.9 70.6469L248.82 69.3269L247.26 68.2469L245.7 67.4069L243.9 66.9269L245.7 66.4469L247.26 65.6069L248.58 64.4069L249.9 63.2069L250.86 61.7669L252.18 60.4469L253.02 58.8869L253.5 57.0869L254.22 55.5269L254.46 53.7269L255.06 52.0469L255.54 50.2469V48.4469H256.26L256.14 50.2469L256.38 52.0469L257.1 53.7269L257.34 55.5269L258.18 57.0869L259.02 58.6469L259.62 60.3269L260.46 62.0069L261.66 63.2069L262.86 64.5269L264.18 65.8469L265.98 66.3269L267.66 66.9269Z" fill="#FFCD2C"/>
<path d="M255.66 88.4067C255.54 88.4067 255.42 88.4067 255.3 88.2869C254.82 88.1671 254.46 87.6869 254.46 87.2067V85.5265L253.86 82.287L253.26 80.727L252.78 78.927L252.42 77.247L251.7 75.807V75.687L251.1 74.127L250.26 72.807L249.06 71.607L247.98 70.287L246.66 69.327L245.34 68.607L243.66 68.247C243.18 68.127 242.82 67.647 242.7 67.047C242.7 66.447 243.06 65.967 243.54 65.847L245.22 65.367L246.54 64.647L247.74 63.567L249.06 62.487L250.02 61.167L250.14 61.047L251.22 59.847L251.94 58.527L252.42 56.967V56.847L253.02 55.407L253.26 53.847C253.26 53.727 253.26 53.727 253.38 53.607L253.98 51.927L254.34 50.367V48.687C254.34 48.087 254.82 47.487 255.54 47.487H256.26C256.62 47.487 256.86 47.607 257.1 47.847C257.34 48.087 257.46 48.447 257.46 48.687L257.34 50.367L257.58 51.927L258.18 53.487C258.18 53.607 258.18 53.607 258.3 53.727L258.54 55.287L260.1 58.287L260.82 59.967L261.54 61.407L262.62 62.607L263.82 63.927L264.9 64.887L268.14 65.967C268.62 66.207 268.98 66.687 268.98 67.167C268.98 67.767 268.5 68.127 268.02 68.247L266.46 68.487L265.26 69.447C265.14 69.447 265.14 69.567 265.02 69.567L263.58 70.287L262.62 71.367L261.9 72.807C261.9 72.927 261.78 72.927 261.78 73.047L260.7 74.247L260.1 75.687L259.26 77.247L258.66 78.807L258.3 80.487L257.7 82.167L257.58 83.847C257.58 83.967 257.58 83.967 257.58 84.087L257.1 85.7671L256.86 87.4473C256.86 87.6869 256.74 87.9265 256.62 88.0473C256.38 88.1671 256.02 88.4067 255.66 88.4067ZM253.86 74.607L254.58 76.167C254.58 76.287 254.7 76.407 254.7 76.407L255.06 78.207L255.66 80.247L255.78 79.767L256.14 78.087V77.967L256.74 76.287V76.167L257.58 74.607L258.18 73.047C258.18 72.927 258.3 72.807 258.42 72.687L259.5 71.487L260.22 70.047C260.22 69.927 260.34 69.927 260.46 69.807L261.66 68.487C261.78 68.367 261.9 68.367 262.02 68.247L263.46 67.407L263.94 67.047L263.58 66.927C263.46 66.927 263.22 66.807 263.1 66.687L261.78 65.487L259.26 62.847C259.14 62.727 259.14 62.607 259.02 62.487L258.18 60.807L257.46 59.127L255.9 56.007C255.78 55.887 255.78 55.767 255.78 55.647L255.54 53.967L255.42 53.607L255.3 53.967L255.06 55.647C255.06 55.767 255.06 55.887 254.94 56.007L254.22 57.567L253.74 59.247C253.74 59.367 253.74 59.367 253.62 59.487L252.78 61.047C252.78 61.167 252.66 61.287 252.54 61.287L251.34 62.487L250.38 63.927C250.26 64.047 250.26 64.047 250.14 64.167L248.82 65.247L247.62 66.447C247.5 66.567 247.5 66.567 247.38 66.687L246.9 66.927L247.38 67.167L248.94 68.247C249.06 68.367 249.18 68.367 249.18 68.487L250.38 69.927L251.58 71.127L251.7 71.247L252.66 72.687C252.66 72.807 252.78 72.807 252.78 72.927L253.86 74.607Z" fill="#201F1A"/>
<path d="M212.34 165.087L212.22 166.887L211.38 168.447L210.42 169.887L208.98 171.087L207.3 171.927L205.5 172.167L203.7 171.687L202.14 170.847L200.46 170.007L199.5 168.447L199.02 166.767L198.54 165.087L198.78 163.287L199.38 161.487L200.58 160.167L202.02 159.087L203.7 158.607L205.5 158.247H207.3L208.98 159.087L210.18 160.287L211.38 161.607L212.1 163.287L212.34 165.087Z" fill="white"/>
<path d="M205.5 173.367C205.38 173.367 205.26 173.367 205.14 173.367L203.34 172.887C203.22 172.887 203.22 172.887 203.1 172.767L201.54 171.927L199.86 170.967C199.74 170.847 199.5 170.727 199.38 170.607L198.42 169.047C198.42 168.927 198.3 168.927 198.3 168.807L197.7 167.127L197.22 165.327C197.22 165.207 197.22 164.967 197.22 164.847L197.46 163.047C197.46 162.927 197.46 162.927 197.58 162.807L198.18 161.127C198.18 161.007 198.3 160.887 198.42 160.767L199.62 159.327C199.74 159.207 199.74 159.207 199.86 159.087L201.3 158.127C201.42 158.007 201.54 158.007 201.54 158.007L203.22 157.407C203.34 157.407 203.34 157.407 203.46 157.407L205.14 157.167H205.26H207.06C207.18 157.167 207.42 157.167 207.66 157.287L209.34 158.127C209.46 158.127 209.58 158.247 209.58 158.367L210.9 159.567L211.02 159.687L212.1 161.007C212.22 161.127 212.22 161.127 212.22 161.247L212.94 162.807C212.94 162.927 213.06 163.047 213.06 163.167L213.3 164.967V165.087V166.887C213.3 167.127 213.18 167.247 213.18 167.487L212.22 169.047L211.26 170.607C211.14 170.727 211.14 170.847 211.02 170.847L209.58 171.927C209.46 171.927 209.46 172.047 209.34 172.047L207.66 172.887C207.54 172.887 207.42 173.007 207.3 173.007L205.5 173.247C205.62 173.367 205.5 173.367 205.5 173.367ZM204.18 170.487L205.62 170.847L207.06 170.607L208.38 169.887L209.58 168.927L210.42 167.607L211.14 166.287V164.847L211.02 163.407L210.42 162.087L209.46 160.887L208.26 160.047L207.06 159.447H205.62L204.06 159.687L202.62 160.167L201.42 161.007L200.46 162.087L199.98 163.527L199.74 164.967L200.1 166.407L200.58 167.847L201.3 169.047L202.62 169.767L204.18 170.487Z" fill="#201F1A"/>
<path d="M49.7399 62.3669L49.6199 64.0469L49.2599 65.7269L48.0599 66.9269L46.7399 68.0069L45.0599 68.3669L43.4999 68.8469L41.8199 68.6069L40.3799 67.8869L38.8199 67.0469L38.0999 65.4869L37.6199 63.9269L37.0199 62.3669L37.1399 60.6869L37.8599 59.1269L39.1799 58.0469L40.2599 56.8469L41.9399 56.2469L43.4999 55.7669L45.0599 56.4869L46.8599 56.7269L48.0599 57.9269L48.8999 59.2469L49.8599 60.6869L49.7399 62.3669Z" fill="white"/>
<path d="M43.5001 70.0469C43.3801 70.0469 43.3801 70.0469 43.2601 70.0469L41.5801 69.8069C41.4601 69.8069 41.3401 69.8069 41.2201 69.6869L39.6601 68.9669L38.1001 68.1269C37.8601 68.0069 37.7401 67.7669 37.6201 67.5269L36.9001 65.9669L35.7001 62.8469C35.7001 62.7269 35.5801 62.4869 35.5801 62.3669L35.7001 60.6869C35.7001 60.5669 35.7001 60.4469 35.8201 60.2069L36.5401 58.6469C36.6601 58.5269 36.6601 58.4069 36.7801 58.2869L37.9801 57.2069L39.0601 56.0069C39.1801 55.8869 39.4201 55.7669 39.5401 55.6469L42.7801 54.6869C43.0201 54.5669 43.2601 54.5669 43.6201 54.6869L45.0601 55.2869L46.6201 55.5269C46.8601 55.5269 47.1001 55.6469 47.3401 55.8869L48.5401 57.0869C48.6601 57.2069 48.6601 57.2069 48.6601 57.3269L50.4601 60.0869C50.5801 60.3269 50.7001 60.5669 50.7001 60.8069L50.5801 62.4869L50.4601 64.1669V64.2869L50.1001 65.9669C50.1001 66.2069 49.9801 66.3269 49.8601 66.5669L48.6601 67.7669L48.5401 67.8869L47.4601 68.9669C47.3401 69.0869 47.2201 69.0869 46.9801 69.2069L45.4201 69.5669L43.8601 69.9269C43.7401 70.0469 43.6201 70.0469 43.5001 70.0469ZM42.1801 67.4069L43.3801 67.6469L44.7001 67.1669H44.8201L46.1401 66.8069L47.2201 65.9669L48.0601 65.0069L48.3001 63.6869L48.5401 60.9269L46.9801 58.5269L46.2601 57.8069L44.9401 57.5669C44.8201 57.5669 44.8201 57.5669 44.7001 57.4469L43.5001 56.9669L40.9801 57.8069L40.0201 58.7669L38.9401 59.8469L38.3401 60.9269L38.2201 62.1269L39.3001 65.0069L39.7801 66.0869L40.9801 66.6869L42.1801 67.4069Z" fill="#201F1A"/>
<path d="M241.74 23.127L241.62 24.807L240.9 26.247L240.06 27.687L238.62 28.527L237.18 29.367L235.5 29.247L233.82 29.367L232.38 28.527L231.06 27.567L229.74 26.367L229.26 24.807V23.127L229.38 21.447L229.74 19.767L231.06 18.687L232.26 17.487L233.82 17.007L235.5 16.767H237.18L238.62 17.607L239.94 18.687L240.9 20.007L241.5 21.567L241.74 23.127Z" fill="white"/>
<path d="M237.18 30.567L235.5 30.447L233.94 30.567C233.7 30.567 233.46 30.567 233.34 30.447L231.9 29.607L231.78 29.487L230.46 28.527L229.14 27.327C229.02 27.207 228.9 26.967 228.78 26.727L228.3 25.047C228.3 24.927 228.3 24.807 228.3 24.687V23.007V21.327C228.3 21.207 228.3 21.207 228.3 21.087L228.78 19.407C228.78 19.167 228.9 19.047 229.14 18.807L231.54 16.407C231.66 16.287 231.9 16.167 232.02 16.167L233.58 15.687H233.7L235.38 15.447C235.5 15.447 235.5 15.447 235.62 15.447L237.3 15.567C237.54 15.567 237.66 15.567 237.78 15.687L239.22 16.527C239.34 16.527 239.34 16.647 239.46 16.647L240.66 17.727L240.78 17.847L241.86 19.047C241.98 19.167 241.98 19.287 242.1 19.407L242.58 20.967C242.58 21.087 242.58 21.087 242.58 21.207L242.82 22.767C242.82 22.887 242.82 23.007 242.82 23.007L242.7 24.687C242.7 24.807 242.7 24.927 242.58 25.047L241.86 26.487L241.02 28.047C240.9 28.287 240.78 28.407 240.54 28.527L239.1 29.247L237.78 30.207C237.66 30.567 237.42 30.567 237.18 30.567ZM235.5 28.047L236.82 28.167L237.9 27.447C237.9 27.447 238.02 27.447 238.02 27.327L239.22 26.727L240.42 24.327L240.54 23.007L240.3 21.687L239.82 20.487L238.98 19.407L237.9 18.447L236.82 17.847H235.5L234.06 18.087L232.86 18.447L230.82 20.367L230.46 21.567V23.127V24.567L230.82 25.767L231.78 26.607L232.98 27.567L234.06 28.167L235.5 28.047Z" fill="#201F1A"/>
<path d="M93.1798 83.487L91.4999 83.127L89.8199 83.247H88.0199H86.3399H84.5399L82.8599 83.367H81.1799L79.3799 83.487L77.6999 83.367L75.8999 83.247L74.2199 83.607L72.5399 83.487L70.7399 83.727L69.0599 83.367L67.3799 83.487L65.5799 83.727L63.8999 83.607L62.0999 83.367H60.4199" fill="white"/>
<path d="M65.5799 84.927L63.7799 84.807H63.6599L61.9799 84.567H60.2999V82.167H61.9799C62.0999 82.167 62.0999 82.167 62.2199 82.167L63.8999 82.407L65.4599 82.527L67.0199 82.287H67.1399L68.8199 82.167C68.9399 82.167 68.9399 82.167 69.0599 82.167L70.6199 82.407L72.1799 82.167C72.2999 82.167 72.4199 82.167 72.4199 82.167L73.9799 82.287L75.5399 81.927C75.6599 81.927 75.7799 81.927 75.8999 81.927L79.2599 82.167L82.6199 82.047L84.2999 81.927H84.4199L86.0999 82.047L91.1399 81.927C91.2599 81.927 91.2599 81.927 91.3799 81.927L93.06 82.287L92.5798 84.687L91.0199 84.327L86.3399 84.447H84.6599L82.9799 84.567L79.4999 84.687L76.0199 84.447L74.4599 84.807C74.3399 84.807 74.2199 84.807 74.0999 84.807L72.5399 84.687L70.9799 84.927C70.8599 84.927 70.7399 84.927 70.6199 84.927L69.0599 84.687L67.4999 84.807L65.8199 85.047C65.6999 84.927 65.6999 84.927 65.5799 84.927Z" fill="#201F1A"/>
<path d="M102.78 60.4469L101.34 59.3669L99.8996 58.4069L98.3402 57.5669L96.7798 56.7269L95.3402 55.7669L93.8996 54.8069L92.3402 53.8469L90.8999 52.7669L89.4599 51.8069L87.7799 51.0869L86.3399 50.2469L84.7799 49.2869L83.3399 48.2069L81.8999 47.2469L80.5799 46.0469L79.0199 45.0869L77.4599 44.3669L76.0199 43.2869L74.5799 42.3269L73.0199 41.4869" fill="white"/>
<path d="M102.06 61.4069L100.62 60.3269L99.1798 59.3669L96.1798 57.8069L94.6204 56.8469L93.1798 55.7669L91.7399 54.9269L90.1799 53.8469L88.8599 53.0069L87.2999 52.2869H87.1799L85.6199 51.4469L81.1799 48.4469L81.0599 48.3269L79.8599 47.2469L78.5399 46.4069L76.9799 45.6869C76.8599 45.6869 76.8599 45.5669 76.7399 45.5669L73.9799 43.5269L72.4199 42.6869L73.4999 40.5269L75.0599 41.3669C75.0599 41.3669 75.1799 41.3669 75.1799 41.4869L77.9399 43.5269L79.4999 44.2469C79.4999 44.2469 79.6199 44.2469 79.6199 44.3669L81.0599 45.3269L81.1799 45.4469L82.3799 46.6469L86.6999 49.5269L88.1399 50.2469L89.6999 50.9669C89.8199 50.9669 89.8199 51.0869 89.9399 51.0869L91.3799 52.0469L92.8204 53.1269L94.26 53.9669L95.8204 55.0469L97.26 56.0069L100.26 57.6869L101.82 58.7669L103.26 59.8469L102.06 61.4069Z" fill="#201F1A"/>
<path d="M122.94 45.8069L122.34 44.2469L121.5 42.8069L120.54 41.4869L119.58 40.0469L118.86 38.4869L118.14 36.9269L117.42 35.3669L116.7 33.8069L115.98 32.3669L115.26 30.8069L114.3 29.3669L113.58 27.9269L112.98 26.2469L111.9 24.9269L110.94 23.4869L110.58 21.8069L109.62 20.3669L108.9 18.8069L108.06 17.3669L107.34 15.8069L106.38 14.3669L105.66 12.9269L105.06 11.2469" fill="white"/>
<path d="M121.86 46.287L121.26 44.847L120.42 43.527L119.46 42.087L118.5 40.647L117.06 37.527L114.9 32.847L114.18 31.527L113.22 30.207L113.1 30.087L112.38 28.527L111.9 26.847L110.94 25.647L109.98 24.087C109.86 24.087 109.86 23.967 109.86 23.847L109.5 22.407L108.66 21.207C108.66 21.087 108.54 21.087 108.54 20.967L107.94 19.527L107.1 18.207L106.98 18.087L106.26 16.407L105.42 15.087C105.42 15.087 105.42 14.967 105.3 14.967L104.58 13.407C104.58 13.407 104.58 13.287 104.46 13.287L103.86 11.607L106.14 10.887L106.62 12.447L107.34 13.767L108.3 15.087C108.3 15.087 108.42 15.207 108.42 15.327L109.02 16.767L109.86 18.087C109.86 18.207 109.98 18.207 109.98 18.327L110.58 19.767L111.42 21.087C111.54 21.207 111.54 21.327 111.54 21.447L111.9 23.007L112.74 24.327L113.7 25.647C113.82 25.767 113.82 25.887 113.82 25.887L114.42 27.447L115.02 28.767L115.98 30.087C115.98 30.087 115.98 30.207 116.1 30.207L116.94 31.647L119.1 36.327L120.54 39.327L123.18 43.527C123.18 43.527 123.18 43.647 123.3 43.647L123.9 45.207L121.86 46.287Z" fill="#A39554"/>
<path d="M147.3 24.447L147.78 22.647L147.54 20.847L147.42 19.047V17.247V15.567L147.78 13.767L147.54 11.967V10.167V8.36698V6.56698L147.66 4.76698L147.42 2.96698L147.78 1.16696" fill="white"/>
<path d="M148.5 24.687L146.1 24.207L146.46 22.647L146.22 19.287V19.167V17.367V15.687C146.22 15.567 146.22 15.567 146.22 15.447L146.46 13.887L146.34 12.327L146.22 10.527L146.34 5.12699L146.22 3.44699C146.22 3.32699 146.22 3.20699 146.22 3.20699L146.46 1.40701L148.86 1.76701L148.62 3.44699L148.74 5.12699V5.24699L148.62 10.527L148.74 12.207L148.98 13.887C148.98 14.007 148.98 14.127 148.98 14.247L148.62 15.927V17.607V19.407L148.98 22.887C148.98 23.007 148.98 23.127 148.98 23.247L148.5 24.687Z" fill="#C7B142"/>
<path d="M178.26 34.047L178.86 32.367L179.7 30.807L180.66 29.247L181.5 27.687L182.46 26.127L183.18 24.567L184.02 23.007L184.98 21.447L185.82 19.887L186.78 18.327L187.86 16.887L188.7 15.327L189.42 13.647" fill="white"/>
<path d="M179.34 34.527L177.18 33.567L177.9 31.887L178.74 30.207L181.5 25.527L182.22 23.967L184.86 19.287L185.82 17.727L186.9 16.287L188.46 13.167L190.62 14.247L188.94 17.487C188.94 17.487 188.94 17.607 188.82 17.607L187.74 19.047L186.9 20.487L184.26 25.047L183.54 26.607L180.78 31.287L179.94 32.847L179.34 34.527Z" fill="#A8994D"/>
<path d="M182.94 65.847L184.5 65.007L185.94 63.927L187.38 63.087L189.06 62.367L190.38 61.287L192.18 60.927L193.62 59.847L195.18 59.127L196.74 58.407L198.18 57.327L199.74 56.487L201.3 55.647L202.86 55.047L204.3 53.967L205.74 53.007L207.3 52.167L208.86 51.447L210.54 50.727L212.1 50.127L213.54 48.807L215.1 48.207L216.78 47.487L218.1 46.407L219.78 45.807" fill="white"/>
<path d="M183.54 66.9269L182.46 64.7669L183.9 64.0469L185.22 62.9669L185.34 62.8469L186.9 62.0069C186.9 62.0069 187.02 62.0069 187.02 61.8869L188.46 61.2869L189.78 60.3269C189.9 60.2069 190.02 60.2069 190.14 60.0869L191.7 59.7269L192.9 58.7669C193.02 58.7669 193.02 58.6469 193.14 58.6469L194.7 57.9269L196.14 57.2069L197.46 56.2469C197.58 56.2469 197.58 56.1269 197.7 56.1269L199.26 55.4069L200.7 54.5669C200.7 54.5669 200.82 54.5669 200.82 54.4469L202.26 53.8469L203.58 52.8869L205.14 51.9269C205.14 51.9269 205.26 51.9269 205.26 51.8069L208.38 50.2469L211.5 48.9269L212.7 47.8469C212.82 47.7269 212.94 47.7269 213.06 47.6069L216.06 46.4069L217.26 45.3269C217.38 45.2069 217.5 45.0869 217.62 45.0869L219.3 44.4869L220.02 46.7669L218.58 47.2469L217.38 48.2069C217.26 48.3269 217.14 48.3269 217.02 48.4469L213.9 49.7669L212.7 50.8469C212.58 50.9669 212.46 50.9669 212.34 51.0869L209.1 52.4069L206.1 53.9669L204.66 54.9269L203.34 55.8869C203.22 55.8869 203.22 56.0069 203.1 56.0069L201.54 56.6069L200.1 57.4469L198.54 58.1669L197.22 59.1269C197.1 59.1269 197.1 59.2469 196.98 59.2469L195.42 59.9669L193.86 60.5669L192.54 61.5269C192.42 61.6469 192.3 61.6469 192.06 61.7669L190.5 62.1269L189.3 63.0869C189.18 63.0869 189.18 63.2069 189.06 63.2069L187.5 63.8069L186.18 64.6469L184.86 65.7269L184.74 65.8469L183.54 66.9269Z" fill="#201F1A"/>
<path d="M93.0601 123.567L91.6201 124.647L90.1801 125.487L88.6201 126.327L87.3001 127.527L85.7401 128.127L84.4201 129.207L82.7401 129.927L81.4201 131.007L80.1001 132.087" fill="white"/>
<path d="M80.6999 133.047L79.3799 131.127L80.8199 130.167L82.1399 129.087C82.2599 128.967 82.3799 128.967 82.3799 128.967L83.8199 128.367L85.0199 127.407C85.1399 127.287 85.2599 127.287 85.3799 127.167L86.8199 126.567L87.8999 125.487C88.0199 125.367 88.1399 125.367 88.2599 125.247L89.8199 124.527L91.1399 123.807L92.3402 122.847L93.8996 124.767L92.5798 125.847L92.46 125.967L90.8999 126.807L89.4599 127.527L88.3799 128.607C88.2599 128.727 88.1399 128.847 88.0199 128.847L86.5799 129.447L85.3799 130.407C85.2599 130.527 85.1399 130.527 85.0199 130.647L83.5799 131.247L82.3799 132.207L80.6999 133.047Z" fill="#201F1A"/>
<path d="M199.62 119.487L201.18 120.327L202.62 121.287L203.94 122.247L205.26 123.567L206.94 124.167L208.14 125.367L209.7 126.087L211.14 127.047L212.46 128.127" fill="white"/>
<path d="M211.74 129.087L210.42 128.007L209.1 127.167L207.66 126.447C207.54 126.447 207.42 126.326 207.42 126.207L206.34 125.126L204.9 124.527C204.78 124.527 204.66 124.407 204.54 124.287L203.34 123.087L200.7 121.167L199.26 120.447L200.34 118.287L201.9 119.007L202.02 119.126L204.78 121.167L204.9 121.287L205.98 122.367L207.42 122.967C207.54 122.967 207.66 123.087 207.78 123.207L208.98 124.287L210.42 125.007C210.42 125.007 210.54 125.007 210.54 125.126L211.98 126.087L213.42 127.167L211.74 129.087Z" fill="#201F1A"/>
<path d="M190.86 88.1671L192.54 87.8067H194.34L196.02 87.9274L197.7 88.1671L199.38 87.9274L201.06 88.0473L202.74 88.1671L204.42 88.2869L206.1 87.9274L207.78 88.1671H209.58L211.26 88.4067L212.94 88.1671H214.62L216.3 88.2869L217.98 88.0473H219.66L221.34 88.2869H223.14L224.82 88.5274L226.5 88.1671L228.18 88.4067L229.86 88.2869" fill="white"/>
<path d="M224.82 89.7274H224.7L223.02 89.4869H221.34H221.22L219.54 89.2472H217.98L216.42 89.4869C216.3 89.4869 216.18 89.4869 216.06 89.4869L214.38 89.3671H212.7L211.14 89.4869C211.02 89.4869 211.02 89.4869 210.9 89.4869L209.22 89.3671H207.66C207.54 89.3671 207.54 89.3671 207.42 89.3671L205.98 89.1274L204.54 89.4869C204.42 89.4869 204.3 89.4869 204.18 89.4869L202.5 89.3671H200.94L199.38 89.2472L197.82 89.4869C197.7 89.4869 197.58 89.4869 197.46 89.4869L195.78 89.2472L194.22 89.1274L192.66 89.2472L191.1 89.6067L190.62 87.2067L192.3 86.8472H192.42L194.1 86.7274C194.1 86.7274 194.22 86.7274 194.34 86.7274L196.02 86.8472L197.58 87.0869L199.14 86.8472C199.26 86.8472 199.38 86.8472 199.5 86.8472L201.18 86.9671H202.74L204.3 87.0869L205.86 86.7274C205.98 86.7274 206.22 86.7274 206.34 86.7274L207.9 86.9671H209.46L211.14 87.0869L212.7 86.9671H214.5H214.62L216.18 87.0869L217.86 86.8472C217.98 86.8472 217.98 86.8472 218.1 86.8472H219.78H219.9L221.58 87.0869H223.26H223.38L224.82 87.3274L226.38 86.9671C226.5 86.9671 226.62 86.9671 226.74 86.9671L228.3 87.2067L229.86 87.0869L229.98 89.4869L228.3 89.6067C228.18 89.6067 228.18 89.6067 228.06 89.6067L226.5 89.3671L224.94 89.7274H224.82Z" fill="#201F1A"/>
</g>
</g>
<defs>
<clipPath id="clip0_647_177">
<rect x="0.660034" width="300" height="225" rx="8" fill="white"/>
</clipPath>
<clipPath id="clip1_647_177">
<rect width="300" height="225" fill="white" transform="translate(0.660034)"/>
</clipPath>
</defs>
</svg>
